<svg width="628" height="423" viewBox="0 0 628 423" fill="none" xmlns="http://www.w3.org/2000/svg">
<path d="M628 371.729H0V372.013H628V371.729Z" fill="#EBEBEB"/>
<path d="M565.076 390.002H523.474V390.286H565.076V390.002Z" fill="#EBEBEB"/>
<path d="M416.012 393.083H405.094V393.367H416.012V393.083Z" fill="#EBEBEB"/>
<path d="M522.217 379.46H498.112V379.744H522.217V379.46Z" fill="#EBEBEB"/>
<path d="M120.139 381.367H65.8885V381.651H120.139V381.367Z" fill="#EBEBEB"/>
<path d="M139.277 381.367H131.322V381.651H139.277V381.367Z" fill="#EBEBEB"/>
<path d="M282.785 386.161H165.128V386.445H282.785V386.161Z" fill="#EBEBEB"/>
<path d="M297.69 321.1H55.1573C51.2047 321.1 47.988 318.193 47.988 314.62V6.47994C47.988 2.90735 51.2047 0 55.1573 0H297.69C301.641 0 304.858 2.90735 304.858 6.47994V314.62C304.858 318.193 301.641 321.1 297.69 321.1ZM55.1573 0.284944C51.3767 0.284944 48.302 3.06401 48.302 6.48107V314.621C48.302 318.038 51.3767 320.817 55.1573 320.817H297.69C301.469 320.817 304.544 318.038 304.544 314.621V6.47994C304.544 3.06401 301.469 0.28381 297.69 0.28381L55.1573 0.284944Z" fill="#EBEBEB"/>
<path d="M569.357 321.1H326.826C322.874 321.1 319.658 318.193 319.658 314.62V6.47994C319.658 2.90735 322.875 0 326.826 0H569.357C573.311 0 576.527 2.90735 576.527 6.47994V314.62C576.528 318.193 573.311 321.1 569.357 321.1ZM326.826 0.284944C323.047 0.284944 319.972 3.06401 319.972 6.48107V314.621C319.972 318.038 323.047 320.817 326.826 320.817H569.357C573.138 320.817 576.213 318.038 576.213 314.621V6.47994C576.213 3.06401 573.138 0.28381 569.357 0.28381L326.826 0.284944Z" fill="#EBEBEB"/>
<path d="M514.366 78.1442L410.959 197.655L335.071 211.42L256.367 263.245L208.477 231.297L107.511 371.544H134.482L214.348 260.61L256.279 288.583L344.378 230.573L423.614 216.202L532.175 90.7328L514.366 78.1442Z" fill="#E0E0E0"/>
<path d="M536.949 63.0171L492.903 73.4533L534.634 104.12L536.949 63.0171Z" fill="#E0E0E0"/>
<path d="M172.76 128.352C201.042 128.352 223.968 107.63 223.968 82.0675C223.968 56.5051 201.042 35.7827 172.76 35.7827C144.478 35.7827 121.552 56.5051 121.552 82.0675C121.552 107.63 144.478 128.352 172.76 128.352Z" fill="#E0E0E0"/>
<path d="M172.76 82.0675L218.708 61.6344C222.169 67.9917 223.969 74.9825 223.969 82.0675C223.969 107.458 200.852 128.352 172.76 128.352C144.668 128.352 121.552 107.458 121.552 82.0675C121.552 69.186 127.501 56.872 137.955 48.1171L172.76 82.0675Z" fill="#EBEBEB"/>
<path d="M172.76 82.0675L162.145 127.348C138.567 122.832 121.551 103.853 121.551 82.0675C121.551 69.1859 127.5 56.872 137.954 48.1171L172.76 82.0675Z" fill="#F5F5F5"/>
<path d="M172.76 107.083C188.045 107.083 200.436 95.8829 200.436 82.0675C200.436 68.2521 188.045 57.0526 172.76 57.0526C157.475 57.0526 145.084 68.2521 145.084 82.0675C145.084 95.8829 157.475 107.083 172.76 107.083Z" fill="white"/>
<path d="M127.448 207.838H86.6853V231.985H127.448V207.838Z" fill="#F5F5F5"/>
<path d="M127.448 207.838H86.6853V212.929H127.448V207.838Z" fill="#E0E0E0"/>
<path d="M548.071 311.044H507.308V335.19H548.071V311.044Z" fill="#F5F5F5"/>
<path d="M548.071 311.044H507.308V316.134H548.071V311.044Z" fill="#E0E0E0"/>
<path d="M426.044 29.4753H385.282V53.6219H426.044V29.4753Z" fill="#F5F5F5"/>
<path d="M426.044 29.4753H385.282V34.5658H426.044V29.4753Z" fill="#E0E0E0"/>
<path d="M344.325 321.426H303.562V345.572H344.325V321.426Z" fill="#F5F5F5"/>
<path d="M344.325 321.426H303.562V326.516H344.325V321.426Z" fill="#E0E0E0"/>
<path d="M314 423C448.495 423 557.525 417.245 557.525 410.146C557.525 403.046 448.495 397.291 314 397.291C179.505 397.291 70.4756 403.046 70.4756 410.146C70.4756 417.245 179.505 423 314 423Z" fill="#F5F5F5"/>
<path d="M415.941 294.078H119.247C115.832 294.078 113.065 291.576 113.065 288.49V81.4C113.065 78.3133 115.833 75.8124 119.247 75.8124H415.941C419.356 75.8124 422.123 78.3144 422.123 81.4V288.489C422.124 291.576 419.356 294.078 415.941 294.078Z" fill="#407BFF"/>
<path opacity="0.8" d="M422.118 91.431V288.486C422.118 291.574 419.354 294.082 415.938 294.082H119.246C115.829 294.082 113.066 291.574 113.066 288.486V91.431H422.118Z" fill="white"/>
<path d="M139.396 126.546H187.842" stroke="#263238" stroke-miterlimit="10"/>
<path d="M139.396 130.813H187.842" stroke="#263238" stroke-miterlimit="10"/>
<path d="M139.396 135.08H187.842" stroke="#263238" stroke-miterlimit="10"/>
<path d="M139.396 139.346H187.842" stroke="#263238" stroke-miterlimit="10"/>
<path d="M139.396 143.612H187.842" stroke="#263238" stroke-miterlimit="10"/>
<path d="M139.396 147.88H172.76" stroke="#263238" stroke-miterlimit="10"/>
<path opacity="0.6" d="M194.425 120.821H132.812V153.606H194.425V120.821Z" fill="white"/>
<path d="M214.98 105.237H250.857" stroke="#263238" stroke-miterlimit="10"/>
<path d="M214.98 109.503H250.857" stroke="#263238" stroke-miterlimit="10"/>
<path d="M214.98 113.77H250.857" stroke="#263238" stroke-miterlimit="10"/>
<path d="M214.98 118.036H240.803" stroke="#263238" stroke-miterlimit="10"/>
<path opacity="0.6" d="M257.441 100.186H208.396V123.087H257.441V100.186Z" fill="white"/>
<path d="M362.674 213.916H398.551" stroke="#263238" stroke-miterlimit="10"/>
<path d="M362.674 218.184H398.551" stroke="#263238" stroke-miterlimit="10"/>
<path d="M362.674 222.45H398.551" stroke="#263238" stroke-miterlimit="10"/>
<path d="M362.674 226.716H388.497" stroke="#263238" stroke-miterlimit="10"/>
<path opacity="0.6" d="M405.135 208.866H356.09V231.767H405.135V208.866Z" fill="white"/>
<path d="M367.198 278.478C373.867 275.981 377.034 269.07 374.271 263.043C371.509 257.015 363.863 254.152 357.194 256.649C350.525 259.146 347.358 266.057 350.121 272.084C352.883 278.112 360.529 280.975 367.198 278.478Z" fill="#407BFF"/>
<path opacity="0.3" d="M366.466 276.879C372.158 274.748 374.861 268.849 372.503 263.704C370.145 258.559 363.619 256.116 357.927 258.247C352.235 260.378 349.532 266.277 351.889 271.422C354.247 276.567 360.773 279.01 366.466 276.879Z" fill="white"/>
<path d="M362.981 273V274.702H361.602V273.016C359.956 272.924 358.358 272.438 357.484 271.755L358.24 270.22C359.064 270.827 360.325 271.268 361.602 271.374V268.336C359.737 267.927 357.736 267.379 357.736 265.267C357.736 263.717 358.98 262.365 361.602 262.138V260.422H362.98V262.107C364.224 262.169 365.485 262.502 366.393 263.034L365.703 264.569C364.813 264.097 363.872 263.839 362.98 263.748V266.816C364.845 267.226 366.879 267.759 366.879 269.87C366.88 271.421 365.62 272.757 362.981 273ZM361.602 266.498V263.794C360.409 263.962 359.904 264.508 359.904 265.177C359.905 265.906 360.628 266.24 361.602 266.498ZM364.729 270.007C364.729 269.263 363.989 268.914 362.98 268.655V271.344C364.209 271.177 364.729 270.661 364.729 270.007Z" fill="#407BFF"/>
<path d="M383.24 190.022L375.65 185.456L368.061 190.022V171.164H383.24V190.022Z" fill="#407BFF"/>
<path d="M375.65 160.448L376.838 159.608L377.841 160.626L379.176 159.991L379.963 161.155L381.402 160.746L381.945 162.018L383.442 161.849L383.726 163.187L385.232 163.262L385.247 164.624L386.712 164.941L386.459 166.284L387.839 166.832L387.323 168.113L388.574 168.876L387.813 170.053L388.893 171.004L387.912 172.04L388.786 173.15L387.617 174.01L388.257 175.245L386.936 175.902L387.323 177.22L385.893 177.653L386.014 179.012L384.522 179.209L384.371 180.564L382.864 180.517L382.448 181.827L380.975 181.537L380.308 182.759L378.915 182.236L378.017 183.331L376.75 182.591L375.65 183.523L374.549 182.591L373.283 183.331L372.384 182.236L370.992 182.759L370.324 181.537L368.851 181.827L368.435 180.517L366.928 180.564L366.778 179.209L365.286 179.012L365.406 177.653L363.976 177.22L364.363 175.902L363.043 175.245L363.684 174.01L362.514 173.15L363.388 172.04L362.407 171.004L363.486 170.053L362.727 168.876L363.976 168.113L363.46 166.832L364.842 166.284L364.587 164.941L366.054 164.624L366.069 163.262L367.575 163.187L367.859 161.849L369.354 162.018L369.898 160.746L371.338 161.155L372.123 159.991L373.458 160.626L374.461 159.608L375.65 160.448Z" fill="#407BFF"/>
<path opacity="0.3" d="M375.65 160.448L376.838 159.608L377.841 160.626L379.176 159.991L379.963 161.155L381.402 160.746L381.945 162.018L383.442 161.849L383.726 163.187L385.232 163.262L385.247 164.624L386.712 164.941L386.459 166.284L387.839 166.832L387.323 168.113L388.574 168.876L387.813 170.053L388.893 171.004L387.912 172.04L388.786 173.15L387.617 174.01L388.257 175.245L386.936 175.902L387.323 177.22L385.893 177.653L386.014 179.012L384.522 179.209L384.371 180.564L382.864 180.517L382.448 181.827L380.975 181.537L380.308 182.759L378.915 182.236L378.017 183.331L376.75 182.591L375.65 183.523L374.549 182.591L373.283 183.331L372.384 182.236L370.992 182.759L370.324 181.537L368.851 181.827L368.435 180.517L366.928 180.564L366.778 179.209L365.286 179.012L365.406 177.653L363.976 177.22L364.363 175.902L363.043 175.245L363.684 174.01L362.514 173.15L363.388 172.04L362.407 171.004L363.486 170.053L362.727 168.876L363.976 168.113L363.46 166.832L364.842 166.284L364.587 164.941L366.054 164.624L366.069 163.262L367.575 163.187L367.859 161.849L369.354 162.018L369.898 160.746L371.338 161.155L372.123 159.991L373.458 160.626L374.461 159.608L375.65 160.448Z" fill="white"/>
<path d="M375.649 180.838C381.315 180.838 385.908 176.686 385.908 171.565C385.908 166.444 381.315 162.293 375.649 162.293C369.984 162.293 365.39 166.444 365.39 171.565C365.39 176.686 369.984 180.838 375.649 180.838Z" fill="#407BFF"/>
<path opacity="0.3" d="M370.676 171.204L375.3 174.864L380.613 168.387" stroke="white" stroke-width="2" stroke-miterlimit="10"/>
<path d="M319.204 110.931C316.629 108.615 313.263 107.446 309.897 107.446C306.531 107.446 303.165 108.615 300.59 110.931C295.44 115.585 295.44 123.112 300.59 127.767L309.897 136.179L319.204 127.767C324.353 123.112 324.353 115.585 319.204 110.931ZM314.205 123.237C313.012 124.304 311.454 124.849 309.897 124.849C308.339 124.849 306.782 124.304 305.589 123.237C303.215 121.091 303.215 117.606 305.589 115.461C306.782 114.382 308.339 113.837 309.897 113.837C311.454 113.837 313.012 114.382 314.205 115.461C316.579 117.606 316.579 121.091 314.205 123.237Z" fill="#407BFF"/>
<path opacity="0.3" d="M305.589 115.461C303.215 117.606 303.215 121.091 305.589 123.237C306.782 124.304 308.339 124.849 309.897 124.849V136.179L300.59 127.767C295.44 123.112 295.44 115.585 300.59 110.931C303.165 108.615 306.531 107.446 309.897 107.446V113.837C308.339 113.837 306.782 114.382 305.589 115.461Z" fill="white"/>
<path d="M164.197 196.656C154.714 194.193 145.194 179.9 152.378 174.973C159.386 170.148 163.983 176.858 164.184 177.176C164.197 177.187 164.197 177.187 164.197 177.187C164.197 177.187 168.844 170.035 176.028 174.973C183.213 179.9 173.692 194.193 164.197 196.656Z" fill="#407BFF"/>
<path opacity="0.3" d="M164.197 177.187V196.656C154.714 194.193 145.194 179.9 152.378 174.973C159.386 170.148 163.983 176.858 164.184 177.176C164.197 177.187 164.197 177.187 164.197 177.187Z" fill="white"/>
<path d="M260.394 244.555C287.194 244.555 308.92 224.919 308.92 200.695C308.92 176.472 287.194 156.835 260.394 156.835C233.594 156.835 211.868 176.472 211.868 200.695C211.868 224.919 233.594 244.555 260.394 244.555Z" stroke="#407BFF" stroke-linecap="round" stroke-linejoin="round" stroke-dasharray="11.65 9.71 24.27 2.91"/>
<path d="M309.897 143.52C323.161 143.52 333.914 133.801 333.914 121.812C333.914 109.823 323.161 100.104 309.897 100.104C296.632 100.104 285.879 109.823 285.879 121.812C285.879 133.801 296.632 143.52 309.897 143.52Z" stroke="#407BFF" stroke-linecap="round" stroke-linejoin="round" stroke-dasharray="14.41 12.01 30.03 3.6"/>
<path d="M398.649 181.067C394.83 192.548 381.435 199.056 368.733 195.604C356.031 192.15 348.83 180.044 352.65 168.564C356.47 157.083 369.864 150.575 382.566 154.027C395.269 157.48 402.47 169.586 398.649 181.067Z" stroke="#407BFF" stroke-linecap="round" stroke-linejoin="round" stroke-dasharray="14.41 12.01 30.03 3.6"/>
<path d="M367.528 288.725C354.597 291.393 341.72 284.081 338.769 272.392C335.816 260.704 343.907 249.066 356.839 246.398C369.77 243.73 382.647 251.042 385.598 262.73C388.55 274.419 380.46 286.057 367.528 288.725Z" stroke="#407BFF" stroke-linecap="round" stroke-linejoin="round" stroke-dasharray="14.41 12.01 30.03 3.6"/>
<path d="M187.619 180.113C190.57 191.802 182.481 203.44 169.549 206.108C156.617 208.776 143.741 201.464 140.788 189.775C137.836 178.087 145.926 166.449 158.858 163.781C171.789 161.113 184.666 168.425 187.619 180.113Z" stroke="#407BFF" stroke-linecap="round" stroke-linejoin="round" stroke-dasharray="14.41 12.01 30.03 3.6"/>
<path d="M284.335 162.545L298.046 140.695" stroke="#407BFF" stroke-miterlimit="10" stroke-linecap="round" stroke-linejoin="round"/>
<path d="M187.841 188.815L212.642 192.877" stroke="#407BFF" stroke-miterlimit="10" stroke-linecap="round" stroke-linejoin="round"/>
<path d="M299.645 226.48L342.756 254.8" stroke="#407BFF" stroke-miterlimit="10" stroke-linecap="round" stroke-linejoin="round"/>
<path d="M352.341 180.05L307.497 190.118" stroke="#407BFF" stroke-miterlimit="10" stroke-linecap="round" stroke-linejoin="round"/>
<path d="M292.719 198.789C297.799 195.147 302.642 199.688 306.229 205.176" stroke="#263238" stroke-width="0.7602" stroke-miterlimit="10" stroke-linecap="round" stroke-linejoin="round"/>
<path d="M315.011 209.854C315.011 209.854 306.263 195.999 293.757 199.111" stroke="#263238" stroke-width="0.7602" stroke-miterlimit="10" stroke-linecap="round" stroke-linejoin="round"/>
<path d="M308.285 218.239C308.193 218.337 308.057 218.397 307.905 218.391C307.641 218.385 307.435 218.185 307.442 217.946C307.447 217.791 307.857 202.297 295.902 199.163C294.107 198.692 292.708 198.894 291.622 199.779C286.938 203.614 289.853 218.472 289.884 218.623C289.93 218.857 289.759 219.082 289.499 219.125C289.239 219.167 288.991 219.011 288.944 218.777C288.817 218.147 285.881 203.279 290.984 199.139C292.316 198.053 294.061 197.781 296.17 198.334C308.838 201.657 308.404 217.813 308.398 217.975C308.394 218.076 308.352 218.168 308.285 218.239Z" fill="#407BFF"/>
<path d="M301.607 223.207C301.494 223.329 301.311 223.389 301.13 223.349C300.874 223.292 300.717 223.06 300.778 222.828C300.825 222.652 305.41 205.203 300.16 199.864C298.983 198.667 297.425 198.192 295.397 198.412C283.037 199.754 283.934 222.626 283.944 222.857C283.954 223.095 283.749 223.297 283.487 223.306C283.223 223.316 283.001 223.131 282.991 222.893C282.945 221.918 282.05 198.993 295.283 197.555C297.612 197.302 299.493 197.887 300.876 199.291C306.456 204.965 301.905 222.296 301.707 223.031C301.689 223.098 301.653 223.158 301.607 223.207Z" fill="#407BFF"/>
<path d="M282.246 180.086C283.415 183.694 284.541 187.357 285.66 190.985C286.818 194.571 287.937 198.3 289.204 201.562L289.403 202.066C289.362 202.017 289.291 201.918 289.175 201.818C288.952 201.599 288.565 201.464 288.478 201.475C288.273 201.517 288.933 201.601 289.634 201.459C291.111 201.195 292.956 200.56 294.71 199.805C296.505 199.074 298.305 198.215 300.08 197.295C301.866 196.402 303.667 195.424 305.404 194.482L305.472 194.446C306.541 193.866 307.927 194.179 308.569 195.146C309.112 195.963 308.946 196.985 308.236 197.633C305.129 200.465 301.832 202.944 298.069 205.227C296.142 206.318 294.178 207.4 291.578 208.144C290.253 208.472 288.753 208.874 286.482 208.458C285.373 208.244 284.027 207.617 283.105 206.683C282.643 206.224 282.28 205.722 282.019 205.241L281.599 204.429C280.628 202.498 279.876 200.684 279.137 198.837C278.397 197.005 277.728 195.167 277.079 193.328C275.767 189.652 274.562 185.985 273.499 182.239C272.877 180.047 274.339 177.815 276.765 177.252C279.137 176.702 281.553 177.954 282.238 180.061L282.246 180.086Z" fill="#EBC0BC"/>
<path d="M305.016 195.556L308.166 189.094L313.896 192.454C313.896 192.454 312.396 197.25 307.868 197.644L305.016 195.556Z" fill="#EEC1BB"/>
<path d="M312.534 185.984L316.143 189.412L313.897 192.454L308.166 189.093L312.534 185.984Z" fill="#EEC1BB"/>
<path d="M293.757 199.112C282.49 201.917 299.673 219.243 299.673 219.243" stroke="#263238" stroke-width="0.7602" stroke-miterlimit="10" stroke-linecap="round" stroke-linejoin="round"/>
<path d="M319.293 205.37L353.19 233.543L352.41 244.06L321.245 262.574L289.111 227.008L292.609 219.956L319.293 205.37Z" fill="#407BFF"/>
<path opacity="0.1" d="M319.293 205.37L353.19 233.543L352.41 244.06L321.245 262.574L289.111 227.008L316.159 213.612L319.293 205.37Z" fill="white"/>
<path opacity="0.1" d="M316.159 213.612L352.41 244.06L321.245 262.574L289.111 227.008L316.159 213.612Z" fill="white"/>
<path opacity="0.2" d="M292.609 219.956L289.111 227.008L316.159 213.612L319.293 205.37L292.609 219.956Z" fill="black"/>
<path d="M306.229 205.176C309.858 210.727 312.2 217.248 312.2 217.248" stroke="#263238" stroke-width="0.7602" stroke-miterlimit="10" stroke-linecap="round" stroke-linejoin="round"/>
<path d="M297.025 225.616C297.025 225.616 282.503 206.115 292.72 198.79" stroke="#263238" stroke-width="0.7602" stroke-miterlimit="10" stroke-linecap="round" stroke-linejoin="round"/>
<path d="M295.662 199.109C295.811 198.968 295.951 198.82 296.125 198.703C296.263 198.609 296.421 198.54 296.567 198.454C296.432 198.416 296.306 198.37 296.169 198.334C294.06 197.781 292.315 198.053 290.983 199.139C285.879 203.279 288.817 218.147 288.943 218.777C288.989 219.011 289.238 219.168 289.498 219.125C289.758 219.082 289.93 218.857 289.882 218.623C289.852 218.473 286.937 203.614 291.621 199.779C292.658 198.935 293.984 198.72 295.662 199.109Z" fill="#407BFF"/>
<path d="M303.893 203.351C303.662 203.548 303.422 203.74 303.178 203.927C307.659 209.612 307.446 217.833 307.443 217.946C307.434 218.185 307.641 218.385 307.905 218.391C308.057 218.396 308.194 218.337 308.285 218.239C308.352 218.168 308.395 218.076 308.398 217.975C308.402 217.857 308.627 209.298 303.893 203.351Z" fill="#407BFF"/>
<path d="M314.166 216.166L326.722 256.212L319.967 264.801L282.689 265.825L275.917 220.317L282.983 215.964L314.166 216.166Z" fill="#263238"/>
<path opacity="0.2" d="M314.166 216.166L326.722 256.212L319.967 264.801L282.689 265.825L275.917 220.317L282.983 215.964L314.166 216.166Z" fill="white"/>
<path opacity="0.2" d="M314.166 216.166L326.722 256.212L319.967 264.801L282.689 265.825L275.917 220.317L306.72 221.704L314.166 216.166Z" fill="white"/>
<path opacity="0.2" d="M306.72 221.704L319.967 264.801L282.689 265.825L275.917 220.317L306.72 221.704Z" fill="white"/>
<path d="M296.708 198.375C297.166 198.123 297.648 197.904 298.157 197.732C297.292 197.506 296.336 197.44 295.282 197.554C282.049 198.991 282.946 221.916 282.989 222.892C283 223.13 283.222 223.315 283.486 223.305C283.748 223.296 283.953 223.094 283.943 222.856C283.933 222.626 283.036 199.753 295.396 198.411C295.858 198.362 296.293 198.353 296.708 198.375Z" fill="#407BFF"/>
<path d="M302.999 204.073C302.773 204.241 302.533 204.381 302.285 204.512C303.693 211.723 300.815 222.688 300.778 222.827C300.717 223.058 300.874 223.291 301.13 223.348C301.312 223.388 301.494 223.327 301.607 223.206C301.654 223.157 301.688 223.097 301.706 223.03C301.863 222.444 304.78 211.327 303.137 203.96C303.091 203.998 303.047 204.038 302.999 204.073Z" fill="#407BFF"/>
<path d="M275.221 148.933C275.221 148.933 279.405 162.631 273.623 171.839C267.841 181.047 248.58 194.234 233.698 188.396C218.815 182.559 225.917 171.019 234.54 168.688C243.164 166.358 243.9 165.112 242.986 157.367C242.071 149.62 248.788 139.605 261.174 140.944C273.559 142.284 275.221 148.933 275.221 148.933Z" fill="#263238"/>
<path d="M281.198 260.74V260.752L279.352 265.338L276.727 271.832L274.881 276.429L272.18 284.887L269.254 294.082H252.725C253.001 291.528 253.353 288.667 253.792 285.659C254.32 282.106 254.961 278.359 255.752 274.67C255.94 273.773 256.141 272.876 256.355 271.991V271.979C256.405 271.786 256.443 271.605 256.493 271.412C256.681 270.662 256.87 269.902 257.058 269.152C257.661 266.814 258.327 264.453 259.043 262.114V262.103L264.242 261.785L281.198 260.74Z" fill="#EEC1BB"/>
<path opacity="0.1" d="M281.198 260.752L279.352 265.338L276.727 271.832L274.881 276.429L272.18 284.887L269.254 294.082H252.675C252.951 291.483 253.303 288.588 253.742 285.568C254.27 282.003 254.923 278.268 255.727 274.67C255.928 273.784 256.141 272.887 256.355 271.991V271.979C256.405 271.786 256.443 271.605 256.493 271.412C256.681 270.662 256.87 269.902 257.058 269.152C257.661 266.814 258.327 264.453 259.042 262.114L264.242 261.796L281.198 260.752Z" fill="black"/>
<path opacity="0.2" d="M281.196 260.748L276.728 271.835C271.746 272.522 263.326 273.671 255.725 274.673C255.969 273.594 256.223 272.506 256.494 271.408C257.24 268.343 258.085 265.212 259.039 262.108L281.196 260.748Z" fill="black"/>
<path d="M275.107 294.082H258.414C256.932 291.403 255.375 288.542 253.792 285.659C253.78 285.625 253.767 285.602 253.742 285.568C252.75 283.729 251.745 281.879 250.765 280.062C249.823 278.314 248.894 276.532 247.99 274.704C247.374 273.478 246.784 272.24 246.206 271.003C244.837 268.063 243.581 265.088 242.501 262.148C240.542 256.847 239.173 251.636 238.771 246.925L259.57 249.093L263.627 260.116L264.242 261.785V261.796L266.754 268.608L268.362 272.978L268.613 273.659L272.18 284.887L275.107 294.082Z" fill="#EEC1BB"/>
<path opacity="0.2" d="M266.753 268.608L247.986 274.708C245.934 270.587 244.036 266.336 242.496 262.149L263.627 260.115L266.753 268.608Z" fill="black"/>
<path d="M203.022 243.727C203.022 243.727 213.207 230.696 204.793 221.773C197.212 213.734 187.119 235.141 187.119 235.141" stroke="#263238" stroke-width="0.7602" stroke-miterlimit="10" stroke-linecap="round" stroke-linejoin="round"/>
<path d="M209.33 245.334L195.44 285.017L184.569 288.832L152.819 271.149L174.864 229.779L183.415 229.659L209.33 245.334Z" fill="#407BFF"/>
<path opacity="0.1" d="M209.33 245.334L195.44 285.017L184.569 288.832L152.819 271.149L174.864 229.779L199.742 246.257L209.33 245.334Z" fill="white"/>
<path opacity="0.1" d="M199.742 246.257L184.569 288.832L152.819 271.149L174.864 229.779L199.742 246.257Z" fill="white"/>
<path opacity="0.2" d="M174.864 229.779L199.742 246.257L209.33 245.334L183.415 229.659L174.864 229.779Z" fill="black"/>
<path d="M179.611 235.671C179.611 235.671 193.01 215.524 204.677 220.789C216.345 226.053 194.421 244.555 194.421 244.555" stroke="#263238" stroke-width="0.7602" stroke-miterlimit="10" stroke-linecap="round" stroke-linejoin="round"/>
<path d="M280.398 183.184C280.425 183.658 280.443 184.167 280.467 184.728C280.675 190.537 276.996 192.648 274.957 210.471L250.752 211.188C250.7 208.597 247.102 200.583 244.779 195.017C243.95 193.027 243.278 191.347 242.983 190.344C242.748 189.511 242.492 188.653 242.225 187.77C241.892 186.648 241.536 185.485 241.158 184.272C240.662 182.642 240.111 180.902 239.504 179.071C241.121 178.679 242.76 178.327 244.391 178.01C247.041 177.501 249.71 177.104 252.407 176.817C257.008 176.275 261.649 176.024 266.285 176.069C269.327 176.175 272.601 176.459 275.07 176.713L275.072 176.723C277.463 176.956 279.115 177.174 279.115 177.174C279.115 177.174 280.079 177.426 280.398 183.184Z" fill="#EEC1BB"/>
<path d="M282.005 242.345C282.221 244.839 282.364 247.513 282.437 250.379C282.438 250.664 282.451 250.949 282.454 251.243C282.479 252.592 282.488 253.993 282.472 255.43C282.467 256 282.454 256.59 282.441 257.178C282.428 257.906 282.407 258.642 282.378 259.396C282.348 260.254 282.317 261.139 282.26 262.033C282.225 262.961 282.16 263.9 282.1 264.864L242.635 271.621C242.123 270.527 241.641 269.458 241.199 268.412C240.829 267.57 240.49 266.753 240.18 265.941C239.84 265.105 239.529 264.286 239.239 263.481C239.034 262.914 238.84 262.364 238.654 261.813C238.087 260.135 237.604 258.53 237.208 256.971C237.13 256.691 237.061 256.409 236.992 256.128C236.099 252.516 235.632 249.231 235.491 246.222C235.48 246.075 235.48 245.937 235.469 245.79C234.746 226.892 248.616 209.092 248.616 209.092L245.968 198.82C245.968 198.82 247.064 195.602 247.144 193.106C247.387 185.644 244.269 178.042 244.269 178.042C244.307 178.031 244.354 178.019 244.391 178.009C259.82 173.333 275.07 176.712 275.07 176.712V176.72C279.42 184.289 281.903 189.852 276.797 209.492C276.797 209.492 280.51 224.764 281.972 241.914C281.982 242.061 282.002 242.199 282.005 242.345Z" fill="#407BFF"/>
<path opacity="0.5" d="M282.005 242.345C282.221 244.839 282.364 247.513 282.437 250.379C282.438 250.664 282.451 250.949 282.454 251.243C282.479 252.592 282.488 253.993 282.472 255.43C282.467 256 282.454 256.59 282.441 257.178C282.428 257.906 282.407 258.642 282.378 259.396C282.348 260.254 282.317 261.139 282.26 262.033C282.225 262.961 282.16 263.9 282.1 264.864L242.635 271.621C242.123 270.527 241.641 269.458 241.199 268.412C240.829 267.57 240.49 266.753 240.18 265.941C239.84 265.105 239.529 264.286 239.239 263.481C239.034 262.914 238.84 262.364 238.654 261.813C238.087 260.135 237.604 258.53 237.208 256.971C237.13 256.691 237.061 256.409 236.992 256.128C236.099 252.516 235.632 249.231 235.491 246.222C235.48 246.075 235.48 245.937 235.469 245.79C234.746 226.892 248.616 209.092 248.616 209.092L245.968 198.82C245.968 198.82 247.064 195.602 247.144 193.106C247.387 185.644 244.269 178.042 244.269 178.042C244.307 178.031 244.354 178.019 244.391 178.009C259.82 173.333 275.07 176.712 275.07 176.712V176.72C279.42 184.289 281.903 189.852 276.797 209.492C276.797 209.492 280.51 224.764 281.972 241.914C281.982 242.061 282.002 242.199 282.005 242.345Z" fill="white"/>
<path d="M191.771 241.768C191.636 241.735 191.516 241.648 191.457 241.522C191.353 241.303 191.465 241.05 191.707 240.955C191.865 240.894 207.568 234.67 205.65 223.553C205.362 221.885 204.567 220.823 203.22 220.309C197.393 218.097 183.734 226.774 183.596 226.863C183.381 227 183.083 226.955 182.93 226.76C182.778 226.566 182.828 226.296 183.043 226.159C183.621 225.789 197.281 217.089 203.591 219.515C205.244 220.147 206.255 221.461 206.594 223.422C208.627 235.202 192.25 241.685 192.084 241.75C191.981 241.789 191.872 241.793 191.771 241.768Z" fill="#407BFF"/>
<path d="M196.338 245.706L161.514 272.941L150.044 271.046L133.238 240.953L175.986 216.143L183.34 220.086L196.338 245.706Z" fill="#263238"/>
<path opacity="0.2" d="M196.338 245.706L161.514 272.941L150.044 271.046L133.238 240.953L175.986 216.143L183.34 220.086L196.338 245.706Z" fill="white"/>
<path opacity="0.2" d="M196.338 245.706L161.514 272.941L150.044 271.046L133.238 240.953L175.986 216.143L187.635 241.954L196.338 245.706Z" fill="white"/>
<path opacity="0.2" d="M187.635 241.954L150.044 271.046L133.238 240.953L175.986 216.143L187.635 241.954Z" fill="white"/>
<path d="M183.964 238.403C183.794 238.363 183.657 238.238 183.62 238.072C183.568 237.838 183.734 237.611 183.993 237.563C184.189 237.527 203.619 233.895 206.748 227.336C207.45 225.865 207.266 224.388 206.186 222.821C199.609 213.268 177.062 223.685 176.836 223.791C176.602 223.9 176.314 223.818 176.193 223.607C176.071 223.396 176.163 223.134 176.396 223.025C177.355 222.576 199.954 212.136 206.998 222.365C208.237 224.165 208.448 225.953 207.626 227.679C204.301 234.65 185.003 238.259 184.182 238.41C184.108 238.424 184.033 238.42 183.964 238.403Z" fill="#407BFF"/>
<path opacity="0.2" d="M246.202 191.167C246.343 192.405 246.066 193.797 244.779 195.017C243.95 193.027 243.279 191.347 242.983 190.344C242.748 189.511 242.492 188.653 242.225 187.77C243.034 187.712 243.884 187.684 244.774 187.699C244.774 187.699 245.991 189.251 246.202 191.167Z" fill="black"/>
<path d="M245.557 183.496C244.869 187.738 244.012 191.917 243.056 196.116C242.599 198.217 242.075 200.309 241.514 202.42C241.236 203.478 240.942 204.528 240.602 205.61C240.445 206.14 240.259 206.696 240.067 207.257L239.92 207.69C239.828 207.931 239.734 208.194 239.623 208.408C239.41 208.867 239.168 209.254 238.92 209.615C237.915 211.035 236.82 211.932 235.749 212.752C234.672 213.56 233.592 214.234 232.509 214.861C230.333 216.089 228.147 217.117 225.928 218.034C221.479 219.858 217.029 221.365 212.363 222.56C211.165 222.867 209.919 222.238 209.58 221.156C209.285 220.216 209.771 219.243 210.688 218.802L210.747 218.774C212.756 217.807 214.834 216.833 216.828 215.801C218.849 214.805 220.836 213.766 222.753 212.676C224.667 211.588 226.546 210.48 228.228 209.291C229.069 208.706 229.866 208.099 230.538 207.492C231.204 206.896 231.768 206.255 231.979 205.855C232.03 205.761 232.066 205.678 232.067 205.643C232.081 205.615 232.06 205.62 232.066 205.612L232.148 205.277C232.263 204.814 232.379 204.345 232.483 203.841L233.105 200.821L234.275 194.64C235.034 190.499 235.774 186.318 236.608 182.186L236.612 182.168C237.061 179.942 239.421 178.466 241.884 178.873C244.293 179.268 245.906 181.325 245.557 183.496Z" fill="#EBC0BB"/>
<path d="M212.559 218.943L204.816 218.005L205.002 224.177C205.002 224.177 210.312 225.52 213.044 222.232L212.559 218.943Z" fill="#EEC1BB"/>
<path d="M199.602 219.755L200.959 224.324L205.001 224.177L204.816 218.005L199.602 219.755Z" fill="#EEC1BB"/>
<path d="M258.198 175.338C252.444 175.804 250.886 178.263 256.498 185.008C262.11 191.752 267.312 194.433 267.312 194.433C267.312 194.433 275.089 173.97 258.198 175.338Z" stroke="#263238" stroke-width="0.5" stroke-miterlimit="10"/>
<path d="M263.436 182.112C255.899 180.917 253.769 177.891 253.769 177.891C257.003 175.382 256.639 171.462 255.97 168.997C255.61 167.635 255.15 166.718 255.15 166.718L264.2 168.641C263.892 169.993 263.729 171.135 263.67 172.1C263.595 173.159 263.658 174 263.796 174.662C264.291 177.154 265.844 177.253 265.844 177.253C267.308 180.026 263.436 182.112 263.436 182.112Z" fill="#EEC1BB"/>
<path opacity="0.2" d="M263.67 172.1C263.595 173.159 263.658 174 263.796 174.662C260.194 174.081 257.581 171.346 255.97 168.997C255.61 167.635 255.15 166.718 255.15 166.718L264.2 168.641C263.892 169.992 263.727 171.135 263.67 172.1Z" fill="black"/>
<path d="M263.502 145.721C271.425 146.317 273.623 150.344 273.524 157.767C273.4 167.046 270.534 173.428 260.808 170.713C247.599 167.024 250.343 144.73 263.502 145.721Z" fill="#EEC1BB"/>
<path d="M268.439 156.982C268.439 156.982 269.364 158.934 270.471 160.125C270.471 160.125 269.704 161.048 268.308 160.778L268.439 156.982Z" fill="#D4827D"/>
<path d="M263.643 156.031C263.604 156.62 263.22 157.078 262.785 157.056C262.351 157.032 262.029 156.536 262.068 155.945C262.107 155.356 262.491 154.898 262.926 154.92C263.361 154.944 263.682 155.441 263.643 156.031Z" fill="#263238"/>
<path d="M262.743 154.94L264.195 154.514C264.195 154.514 263.417 155.554 262.743 154.94Z" fill="#263238"/>
<path d="M271.758 156.346C271.719 156.935 271.335 157.394 270.899 157.371C270.464 157.347 270.144 156.85 270.183 156.261C270.222 155.672 270.606 155.212 271.041 155.236C271.476 155.26 271.797 155.757 271.758 156.346Z" fill="#263238"/>
<path d="M270.858 155.255L272.31 154.828C272.31 154.828 271.532 155.869 270.858 155.255Z" fill="#263238"/>
<path d="M264.019 151.079C264.019 151.079 261.817 150.65 260.483 151.903" stroke="#263238" stroke-width="0.5382" stroke-miterlimit="10" stroke-linecap="round" stroke-linejoin="round"/>
<path d="M269.806 151.21C269.806 151.21 271.25 150.847 272.91 152.037" stroke="#263238" stroke-width="0.5382" stroke-miterlimit="10" stroke-linecap="round" stroke-linejoin="round"/>
<path d="M253.731 157.14C253.731 157.14 257.977 151.535 257.835 146.95C257.835 146.95 274.072 142.334 273.519 156.797C273.519 156.797 276.232 144.121 262.636 142.812C249.064 141.504 247.441 159.517 253.981 165.413C253.981 165.413 251.101 160.648 253.731 157.14Z" fill="#263238"/>
<path d="M254.886 158.748C254.939 157.591 253.802 155.541 251.408 155.596C248.93 155.654 247.34 160.121 253.348 161.676C254.209 161.9 254.775 161.163 254.886 158.748Z" fill="#EEC1BB"/>
<path d="M259.286 140.795C263.633 139.895 275.085 140.228 277.243 151.045L275.617 151.697C275.617 151.697 271.896 149.671 267.15 149.041C267.15 149.041 266.276 147.421 265.071 146.075C265.071 146.075 265.142 147.805 264.932 148.805C264.932 148.805 257.416 149.482 253.933 152.09C248.468 156.183 248.011 158.899 248.011 158.899C248.011 158.899 245.137 143.72 259.286 140.795Z" fill="#263238"/>
<path d="M266.591 163.942C266.972 164.014 267.38 164.059 267.817 164.069C267.935 164.073 268.027 163.985 268.022 163.875C268.017 163.766 267.92 163.675 267.798 163.671C264.603 163.596 263.01 161.483 262.995 161.463C262.926 161.368 262.793 161.339 262.696 161.397C262.6 161.455 262.577 161.577 262.646 161.67C262.708 161.753 263.989 163.455 266.591 163.942Z" fill="#263238"/>
<path d="M267.205 193.84C267.205 193.84 270.392 197.301 267.726 197.464C265.062 197.629 267.205 193.84 267.205 193.84Z" fill="#407BFF"/>
<path opacity="0.5" d="M411.712 87.0365C413.685 87.0365 415.285 85.5905 415.285 83.8067C415.285 82.023 413.685 80.577 411.712 80.577C409.738 80.577 408.138 82.023 408.138 83.8067C408.138 85.5905 409.738 87.0365 411.712 87.0365Z" fill="white"/>
<path opacity="0.5" d="M401.067 87.0365C403.041 87.0365 404.641 85.5905 404.641 83.8067C404.641 82.023 403.041 80.577 401.067 80.577C399.094 80.577 397.494 82.023 397.494 83.8067C397.494 85.5905 399.094 87.0365 401.067 87.0365Z" fill="white"/>
<path opacity="0.5" d="M390.424 87.0365C392.397 87.0365 393.997 85.5905 393.997 83.8067C393.997 82.023 392.397 80.577 390.424 80.577C388.45 80.577 386.851 82.023 386.851 83.8067C386.851 85.5905 388.45 87.0365 390.424 87.0365Z" fill="white"/>
<path d="M193.703 259.274H242.148" stroke="#263238" stroke-miterlimit="10"/>
<path d="M193.703 263.54H242.148" stroke="#263238" stroke-miterlimit="10"/>
<path d="M193.703 267.806H242.148" stroke="#263238" stroke-miterlimit="10"/>
<path d="M193.703 272.072H242.148" stroke="#263238" stroke-miterlimit="10"/>
<path d="M193.703 276.34H242.148" stroke="#263238" stroke-miterlimit="10"/>
<path d="M193.703 280.606H227.067" stroke="#263238" stroke-miterlimit="10"/>
<path opacity="0.6" d="M248.732 253.548H187.119V286.332H248.732V253.548Z" fill="white"/>
<path d="M122.216 333.499C122.216 333.499 130.188 327.491 137.024 333.499C143.861 339.506 145.18 376.724 145.18 376.724" stroke="#407BFF" stroke-miterlimit="10"/>
<path d="M145.745 383.91C145.745 383.91 141.045 340.233 158.739 321.879" stroke="#407BFF" stroke-miterlimit="10"/>
<path d="M144.062 379.307C144.062 379.307 147.682 329.585 134.411 318.552" stroke="#407BFF" stroke-miterlimit="10"/>
<path d="M145.745 379.307C145.745 379.307 146.054 346.451 155.915 341.342C165.776 336.235 170.803 352.893 170.803 352.893" stroke="#407BFF" stroke-miterlimit="10"/>
<path d="M141.85 379.307C141.85 379.307 143.459 354.083 135.817 345.068C128.176 336.053 120.135 348.93 120.135 348.93" stroke="#407BFF" stroke-miterlimit="10"/>
<path d="M144.513 382.686C144.513 382.686 139.572 323.696 147.748 313.7" stroke="#407BFF" stroke-miterlimit="10"/>
<path d="M164.36 346.13C164.36 346.13 159.443 347.768 160.905 351.635C162.367 355.503 177.916 361.87 177.916 361.87C177.916 361.87 184.428 356.475 178.447 347.701C172.466 338.929 164.493 343.362 164.36 346.13Z" fill="#407BFF"/>
<path opacity="0.5" d="M164.36 346.13C164.36 346.13 159.443 347.768 160.905 351.635C162.367 355.503 177.916 361.87 177.916 361.87C177.916 361.87 184.428 356.475 178.447 347.701C172.466 338.929 164.493 343.362 164.36 346.13Z" fill="white"/>
<path d="M142.984 338.766C142.984 338.766 148.22 338.569 148.518 342.647C148.816 346.726 137.175 358.01 137.175 358.01C137.175 358.01 128.868 355.295 130.653 345.117C132.435 334.939 141.683 336.257 142.984 338.766Z" fill="#407BFF"/>
<path opacity="0.5" d="M142.984 338.766C142.984 338.766 148.22 338.569 148.518 342.647C148.816 346.726 137.175 358.01 137.175 358.01C137.175 358.01 128.868 355.295 130.653 345.117C132.435 334.939 141.683 336.257 142.984 338.766Z" fill="white"/>
<path d="M138.551 319.243C138.551 319.243 142.041 318.904 141.761 316.982C141.48 315.06 128.19 310.114 120.35 318.113C120.35 318.113 125.37 325.908 132.629 326.01C139.884 326.111 138.551 319.243 138.551 319.243Z" fill="#407BFF"/>
<path opacity="0.5" d="M138.551 319.243C138.551 319.243 142.041 318.904 141.761 316.982C141.48 315.06 128.19 310.114 120.35 318.113C120.35 318.113 125.37 325.908 132.629 326.01C139.884 326.111 138.551 319.243 138.551 319.243Z" fill="white"/>
<path d="M145.057 314.574C145.057 314.574 141.895 315.956 141.01 314.191C140.123 312.425 148.508 301.875 159.842 304.915C159.842 304.915 160.142 313.931 154.043 317.486C147.943 321.042 145.057 314.574 145.057 314.574Z" fill="#407BFF"/>
<path opacity="0.5" d="M145.057 314.574C145.057 314.574 141.895 315.956 141.01 314.191C140.123 312.425 148.508 301.875 159.842 304.915C159.842 304.915 160.142 313.931 154.043 317.486C147.943 321.042 145.057 314.574 145.057 314.574Z" fill="white"/>
<path d="M128.528 344.575C128.528 344.575 130.937 342.817 128.337 341.959C125.737 341.1 112.978 341.345 112.845 352.767C112.845 352.767 127.704 354.999 129.544 350.648C131.384 346.296 128.528 344.575 128.528 344.575Z" fill="#407BFF"/>
<path opacity="0.5" d="M128.528 344.575C128.528 344.575 130.937 342.817 128.337 341.959C125.737 341.1 112.978 341.345 112.845 352.767C112.845 352.767 127.704 354.999 129.544 350.648C131.384 346.296 128.528 344.575 128.528 344.575Z" fill="white"/>
<path d="M158.827 318.955C158.827 318.955 156.418 317.197 159.018 316.339C161.618 315.48 174.377 315.724 174.51 327.147C174.51 327.147 159.651 329.379 157.811 325.028C155.973 320.678 158.827 318.955 158.827 318.955Z" fill="#407BFF"/>
<path opacity="0.5" d="M158.827 318.955C158.827 318.955 156.418 317.197 159.018 316.339C161.618 315.48 174.377 315.724 174.51 327.147C174.51 327.147 159.651 329.379 157.811 325.028C155.973 320.678 158.827 318.955 158.827 318.955Z" fill="white"/>
<path d="M150.972 328.158C150.972 328.158 150.76 326.02 152.669 326.858C154.578 327.696 161.229 334.181 154.335 340.335C154.335 340.335 145.054 334.123 146.727 330.888C148.401 327.652 150.972 328.158 150.972 328.158Z" fill="#407BFF"/>
<path opacity="0.5" d="M150.972 328.158C150.972 328.158 150.76 326.02 152.669 326.858C154.578 327.696 161.229 334.181 154.335 340.335C154.335 340.335 145.054 334.123 146.727 330.888C148.401 327.652 150.972 328.158 150.972 328.158Z" fill="white"/>
<path d="M126.374 331.204C126.374 331.204 127.814 329.497 125.704 329.286C123.595 329.075 114.143 331.356 116.343 339.885C116.343 339.885 127.859 339.103 128.353 335.559C128.848 332.015 126.374 331.204 126.374 331.204Z" fill="#407BFF"/>
<path opacity="0.5" d="M126.374 331.204C126.374 331.204 127.814 329.497 125.704 329.286C123.595 329.075 114.143 331.356 116.343 339.885C116.343 339.885 127.859 339.103 128.353 335.559C128.848 332.015 126.374 331.204 126.374 331.204Z" fill="white"/>
<path d="M165.279 410.971H125.767L121.504 371.87H169.542L165.279 410.971Z" fill="#263238"/>
<path opacity="0.2" d="M165.279 410.971H125.767L121.504 371.87H169.542L165.279 410.971Z" fill="white"/>
<path d="M171.651 367.555H119.394V376.183H171.651V367.555Z" fill="#263238"/>
<path opacity="0.4" d="M171.651 367.555H119.394V376.183H171.651V367.555Z" fill="white"/>
<path d="M435.798 157.232C426.881 158.924 417.379 191.3 417.379 191.3L425.348 199.07L439.585 175.447L435.798 157.232Z" fill="#407BFF"/>
<path opacity="0.7" d="M439.587 175.447L439.286 175.946L427.379 195.688L425.344 199.071L417.381 191.294C417.381 191.294 426.877 158.929 435.794 157.226L439.587 175.447Z" fill="white"/>
<path opacity="0.1" d="M439.286 175.946L427.379 195.688C427.379 195.359 427.392 194.995 427.417 194.609C428.484 179.602 437.754 171.678 437.754 171.678C438.506 173.017 439.01 174.459 439.286 175.946Z" fill="black"/>
<path d="M502.16 239.835C502.16 239.835 474.823 233.272 441.695 242.897C441.695 242.897 436.362 180.159 436.998 171.541C437.633 162.924 488.146 165.446 488.146 165.446C488.146 165.446 489.449 190.555 492.699 205.705C495.949 220.857 503.826 236.922 502.16 239.835Z" fill="#407BFF"/>
<path opacity="0.5" d="M502.16 239.835C502.16 239.835 474.823 233.272 441.695 242.897C441.695 242.897 436.362 180.159 436.998 171.541C437.633 162.924 488.146 165.446 488.146 165.446C488.146 165.446 489.449 190.555 492.699 205.705C495.949 220.857 503.826 236.922 502.16 239.835Z" fill="white"/>
<path d="M425.712 402.909L434.63 405.19L436.753 392.646L437.896 385.937L428.978 383.655L427.458 392.646L425.712 402.909Z" fill="#FFB573"/>
<path d="M476.982 403.567L486.176 404.668L486.264 392.646L486.327 385.176L477.121 384.086L477.058 392.646L476.982 403.567Z" fill="#FFB573"/>
<path opacity="0.2" d="M477.121 384.086L477.058 392.646H486.264L486.327 385.176L477.121 384.086Z" fill="black"/>
<path opacity="0.2" d="M427.458 392.646H436.753L437.896 385.937L428.978 383.655L427.458 392.646Z" fill="black"/>
<path d="M425.822 401.651L435.949 401.404C436.328 401.395 436.666 401.625 436.761 401.955L438.889 409.326C439.11 410.09 438.49 410.835 437.614 410.843C433.959 410.876 428.673 410.812 424.081 410.923C418.712 411.054 415.298 410.815 409.003 410.969C405.196 411.062 404.001 407.624 405.583 407.272C412.781 405.668 417.486 405.985 423.616 402.355C424.279 401.961 425.02 401.67 425.822 401.651Z" fill="#263238"/>
<path d="M424.954 402.826C424.945 402.829 424.935 402.831 424.925 402.834C423.443 403.138 420.798 403.531 419.748 402.746C419.431 402.509 419.28 402.19 419.298 401.795C419.309 401.56 419.427 401.375 419.64 401.26C420.747 400.658 424.539 402.278 424.968 402.463C425.052 402.5 425.102 402.58 425.092 402.663C425.084 402.737 425.03 402.799 424.954 402.826ZM419.947 401.565C419.918 401.576 419.892 401.586 419.868 401.598C419.782 401.645 419.743 401.709 419.738 401.813C419.726 402.081 419.82 402.286 420.028 402.442C420.617 402.882 422.145 402.925 424.181 402.569C422.685 401.975 420.637 401.332 419.947 401.565Z" fill="#407BFF"/>
<path d="M424.954 402.826C424.902 402.844 424.845 402.844 424.792 402.823C423.655 402.399 421.366 400.648 421.497 399.701C421.529 399.478 421.692 399.201 422.294 399.129C422.741 399.077 423.154 399.182 423.526 399.438C424.74 400.28 425.08 402.521 425.093 402.617C425.103 402.686 425.072 402.755 425.009 402.798C424.993 402.81 424.974 402.819 424.954 402.826ZM422.132 399.566C421.952 399.628 421.94 399.717 421.934 399.753C421.855 400.321 423.419 401.702 424.586 402.292C424.44 401.638 424.057 400.302 423.26 399.749C422.982 399.556 422.686 399.481 422.354 399.52C422.26 399.531 422.188 399.548 422.132 399.566Z" fill="#407BFF"/>
<path d="M477.351 401.651L487.478 401.404C487.857 401.395 488.195 401.625 488.29 401.955L490.418 409.326C490.639 410.09 490.019 410.835 489.143 410.843C485.488 410.876 480.202 410.812 475.61 410.923C470.24 411.054 466.828 410.815 460.531 410.969C456.725 411.062 455.53 407.624 457.111 407.272C464.309 405.668 469.014 405.985 475.145 402.355C475.808 401.961 476.549 401.67 477.351 401.651Z" fill="#263238"/>
<path d="M476.483 402.826C476.474 402.829 476.464 402.831 476.454 402.834C474.97 403.138 472.326 403.531 471.276 402.746C470.96 402.509 470.809 402.19 470.827 401.795C470.838 401.56 470.956 401.375 471.168 401.26C472.276 400.658 476.068 402.278 476.496 402.463C476.581 402.5 476.631 402.58 476.621 402.663C476.613 402.737 476.559 402.799 476.483 402.826ZM471.476 401.565C471.447 401.576 471.421 401.586 471.397 401.598C471.31 401.645 471.271 401.709 471.268 401.813C471.256 402.081 471.351 402.286 471.558 402.442C472.147 402.882 473.675 402.925 475.711 402.569C474.214 401.975 472.166 401.332 471.476 401.565Z" fill="#407BFF"/>
<path d="M476.483 402.826C476.431 402.844 476.373 402.844 476.321 402.823C475.184 402.399 472.894 400.648 473.026 399.701C473.058 399.478 473.221 399.201 473.823 399.129C474.27 399.077 474.684 399.182 475.055 399.438C476.269 400.28 476.608 402.521 476.622 402.617C476.632 402.686 476.601 402.755 476.538 402.798C476.522 402.81 476.503 402.819 476.483 402.826ZM473.66 399.566C473.481 399.628 473.468 399.717 473.463 399.753C473.384 400.321 474.948 401.702 476.115 402.292C475.969 401.638 475.586 400.302 474.788 399.749C474.511 399.556 474.214 399.481 473.884 399.52C473.789 399.531 473.717 399.548 473.66 399.566Z" fill="#407BFF"/>
<path d="M495.949 220.857C500.82 239.947 492.461 390.081 492.461 390.081H476.307L469.4 264.961L443.96 390.081L426.695 388.945C437.981 292.022 447.959 234.155 447.959 234.155L447.935 226.843L495.949 220.857Z" fill="#263238"/>
<path d="M487.248 150.169C486.664 159.519 487.107 168.845 488.016 177.53C488.686 183.882 489.622 189.889 490.614 195.309C492.936 208.013 495.574 217.534 495.949 220.857C488.913 221.737 462.395 225.045 447.935 226.843C430.426 182.594 437.02 159.11 437.02 159.11L448.019 153.44C448.019 153.44 449.632 153.055 450.456 152.884C455.787 151.767 464.695 150.838 470.87 150.337C472.168 150.233 473.488 150.158 474.777 150.103C481.336 149.833 487.248 150.169 487.248 150.169Z" fill="#407BFF"/>
<path d="M469.179 150.131C469.179 150.131 458.164 157.987 454.848 157.952C452.524 157.93 449.158 154.49 449.158 154.49C450.854 153.707 452.034 152.821 452.788 151.868C455.087 149.018 453.755 145.556 451.884 142.388L461.542 130.253C461.681 132.682 462.045 135.895 462.786 139.051C462.786 139.062 462.786 139.062 462.786 139.062C463.877 143.785 465.837 148.394 469.179 150.131Z" fill="#FFB573"/>
<path opacity="0.2" d="M462.786 139.051C462.786 139.062 462.786 139.062 462.786 139.062C461.781 144.364 459.219 150.483 452.788 151.868C455.087 149.018 453.755 145.556 451.884 142.388L461.542 130.253C461.679 132.682 462.045 135.895 462.786 139.051Z" fill="black"/>
<path d="M433.992 125.423C433.6 128.708 435.595 134.947 439.914 132.02C444.232 129.094 434.665 119.779 433.992 125.423Z" fill="#263238"/>
<path d="M459.545 125.143C461.829 132.989 463.608 137.478 460.73 142.673C456.4 150.487 444.557 150.007 439.713 142.915C435.353 136.532 432.352 124.774 439.606 119.299C446.753 113.905 457.262 117.298 459.545 125.143Z" fill="#FFB573"/>
<path d="M452.43 121.94L450.466 113.07C450.466 113.07 460.757 110.479 461.363 115.395C467.723 116.942 468.066 128.939 461.178 134.335C456.237 132.025 453.804 121.148 453.804 121.148C453.385 121.416 452.918 121.679 452.43 121.94Z" fill="#263238"/>
<path d="M465.168 130.574C465.211 132.757 464.126 134.746 462.715 136.006C460.593 137.903 458.058 136.502 457.415 134.008C456.836 131.763 457.243 128.071 459.967 127.114C462.65 126.17 465.119 128.079 465.168 130.574Z" fill="#FFB573"/>
<path d="M447.357 131.034C447.586 131.66 447.402 132.274 446.946 132.405C446.492 132.537 445.937 132.135 445.708 131.508C445.479 130.882 445.663 130.267 446.119 130.137C446.575 130.006 447.128 130.407 447.357 131.034Z" fill="#263238"/>
<path d="M439.486 133.303C439.714 133.93 439.531 134.544 439.075 134.674C438.619 134.806 438.065 134.404 437.837 133.778C437.608 133.151 437.791 132.537 438.247 132.406C438.703 132.276 439.257 132.676 439.486 133.303Z" fill="#263238"/>
<path d="M442.102 132.893C442.102 132.893 441.749 136.84 440.606 139.037C442.179 139.665 444.1 138.588 444.1 138.588L442.102 132.893Z" fill="#ED893E"/>
<path d="M448.706 139.908C448.434 140.025 448.138 140.132 447.819 140.222C447.706 140.255 447.585 140.2 447.548 140.097C447.51 139.995 447.576 139.886 447.685 139.855C450.743 138.969 451.468 136.641 451.474 136.618C451.504 136.515 451.624 136.454 451.737 136.483C451.852 136.511 451.92 136.618 451.89 136.72C451.862 136.814 451.238 138.823 448.706 139.908Z" fill="#263238"/>
<path d="M448.95 128.047C448.814 128.105 448.649 128.097 448.516 128.014C446.938 127.023 445.463 127.536 445.448 127.541C445.228 127.62 444.977 127.524 444.886 127.326C444.797 127.128 444.904 126.904 445.123 126.824C445.2 126.796 447.049 126.153 449.006 127.383C449.202 127.505 449.25 127.746 449.115 127.921C449.071 127.978 449.014 128.02 448.95 128.047Z" fill="#263238"/>
<path d="M435.205 131.845C435.131 131.877 435.047 131.89 434.961 131.878C434.724 131.848 434.56 131.652 434.591 131.441C434.912 129.322 436.699 128.566 436.774 128.523C436.989 128.433 437.245 128.517 437.347 128.71C437.449 128.903 437.358 129.131 437.146 129.222C437.071 129.25 435.702 129.85 435.444 131.55C435.424 131.684 435.331 131.792 435.205 131.845Z" fill="#263238"/>
<path d="M453.804 121.148C453.804 121.148 437.646 129.282 430.566 125.464C423.486 121.646 430.566 118.391 430.566 118.391C430.566 118.391 428.33 120.636 430.441 121.759C430.441 121.759 430.903 115.472 436.945 113.45C436.945 113.45 435.323 115.246 435.988 117.268C435.988 117.268 440.004 114.128 447.023 112.385C454.043 110.645 472.736 111.828 453.804 121.148Z" fill="#263238"/>
<path d="M454.844 157.955C454.844 157.955 457.526 160.161 460.598 162.295C464.284 160.075 472.835 154.28 471.794 149.898C471.081 148.666 467.238 148.255 467.238 148.255C467.238 148.255 463.803 153.469 454.844 157.955Z" fill="#407BFF"/>
<path d="M454.844 157.955C454.844 157.955 452.062 160.44 450.433 163.391C447.318 162.014 447.685 153.608 448.624 152.581C450.746 151.09 453.441 150.865 453.441 150.865C453.441 150.865 451.885 154.841 454.844 157.955Z" fill="#407BFF"/>
<g opacity="0.2">
<path d="M454.844 157.955C454.844 157.955 457.526 160.161 460.598 162.295C464.284 160.075 472.835 154.28 471.794 149.898C471.081 148.666 467.238 148.255 467.238 148.255C467.238 148.255 463.803 153.469 454.844 157.955Z" fill="white"/>
<path d="M454.844 157.955C454.844 157.955 452.062 160.44 450.433 163.391C447.318 162.014 447.685 153.608 448.624 152.581C450.746 151.09 453.441 150.865 453.441 150.865C453.441 150.865 451.885 154.841 454.844 157.955Z" fill="white"/>
</g>
<path d="M471.795 149.898C471.795 149.898 472.209 164.679 476.492 181.969C476.505 182.003 476.505 182.014 476.505 182.014C480.047 196.318 486.251 212.336 497.091 223.087C497.091 223.087 502.14 233.565 500.494 242.749C500.494 242.749 503.798 241.523 504.463 239.832C505.129 238.152 495.521 217.331 493.197 201.54C490.886 185.76 489.555 149.898 489.555 149.898C489.555 149.898 485.146 149.16 477.572 149.478C475.814 149.558 473.88 149.682 471.795 149.898Z" fill="#407BFF"/>
<path opacity="0.7" d="M504.459 239.826C503.793 241.517 500.49 242.743 500.49 242.743C502.135 233.559 497.086 223.081 497.086 223.081C496.395 222.4 495.729 221.696 495.064 220.97C488.985 214.204 484.488 205.746 481.172 197.039C479.238 192.01 477.718 186.912 476.5 182.008C476.5 182.008 476.5 181.997 476.487 181.963C476.349 181.407 476.224 180.862 476.086 180.317C472.556 165.354 471.903 152.606 471.803 150.267C471.79 150.017 471.79 149.892 471.79 149.892C473.875 149.677 475.809 149.552 477.568 149.472C485.141 149.154 489.55 149.892 489.55 149.892C489.55 149.892 489.864 158.225 490.429 168.612C490.442 168.771 490.442 168.919 490.454 169.078C490.63 172.064 490.818 175.197 491.019 178.353L491.032 178.364C491.421 184.256 491.886 190.193 492.426 195.245C492.665 197.55 492.929 199.684 493.192 201.534C495.517 217.325 505.126 238.146 504.459 239.826Z" fill="white"/>
<path opacity="0.4" d="M471.795 149.898C471.795 149.898 472.209 164.679 476.492 181.968C476.505 182.003 476.505 182.014 476.505 182.014L482.848 159.127L476.14 158.549L482.848 154.984L477.572 149.478C475.814 149.557 473.88 149.682 471.795 149.898Z" fill="white"/>
<path d="M441.375 245.11L443.095 246.234C443.095 246.234 440.609 222.213 441.613 190.199C441.664 188.655 441.726 187.168 441.789 185.749C443.07 158.662 447.718 153.735 448.019 153.44L443.673 154.78L435.798 157.232C433.475 180.345 441.375 245.11 441.375 245.11Z" fill="#407BFF"/>
<path opacity="0.7" d="M441.375 245.11L443.095 246.234C443.095 246.234 440.609 222.213 441.613 190.199C441.664 188.655 441.726 187.168 441.789 185.749C443.07 158.662 447.718 153.735 448.019 153.44L443.673 154.78L435.798 157.232C433.475 180.345 441.375 245.11 441.375 245.11Z" fill="white"/>
<path opacity="0.4" d="M443.347 162.931L438.373 165.746C438.373 165.746 439.667 178.994 441.789 185.749C443.07 158.662 447.718 153.735 448.019 153.44L443.673 154.78C441.94 156.289 439.277 158.878 437.758 161.727L443.347 162.931Z" fill="white"/>
<path opacity="0.2" d="M488.148 169.47C488.148 169.47 488.525 174.487 491.024 178.358C490.823 175.202 490.635 172.069 490.459 169.084C489.743 169.049 488.965 169.174 488.148 169.47Z" fill="black"/>
<path opacity="0.2" d="M463.983 291.587L469.396 264.966L468.354 250.877C468.354 250.877 460.931 275.308 463.983 291.587Z" fill="black"/>
<path d="M421.618 165.223C424.683 165.039 424.847 168.448 423.433 169.698C422.019 170.947 417.315 170.054 417.38 168.152C417.446 166.249 418.883 165.386 421.618 165.223Z" fill="#407BFF"/>
<path opacity="0.5" d="M421.618 165.223C424.683 165.039 424.847 168.448 423.433 169.698C422.019 170.947 417.315 170.054 417.38 168.152C417.446 166.249 418.883 165.386 421.618 165.223Z" fill="white"/>
<path d="M424.748 167.884C424.748 167.884 440.394 197.556 448.525 203.741H421.525L401.553 171.663L424.748 167.884Z" fill="white"/>
<path d="M395.772 168.029L420.965 166.031C422.608 165.9 424.169 166.703 424.886 168.046L445.966 207.544C446.285 208.144 445.834 208.844 445.1 208.89L420.033 210.419C418.428 210.516 416.917 209.73 416.206 208.424L394.932 169.38C394.609 168.787 395.045 168.087 395.772 168.029Z" fill="#263238"/>
<path opacity="0.2" d="M395.772 168.029L420.965 166.031C422.608 165.9 424.169 166.703 424.886 168.046L445.966 207.544C446.285 208.144 445.834 208.844 445.1 208.89L420.033 210.419C418.428 210.516 416.917 209.73 416.206 208.424L394.932 169.38C394.609 168.787 395.045 168.087 395.772 168.029Z" fill="white"/>
<path d="M401.64 191.027L404.086 195.837C408.331 200.498 412.464 196.937 412.464 196.937L415.682 196.303C416.774 196.089 417.081 194.949 416.412 193.609L414.729 190.245C413.961 188.712 412.201 187.477 410.825 187.505L407.734 187.571C406.835 187.59 406.056 187.824 405.466 188.251L401.64 191.027Z" fill="#FFB573"/>
<path d="M421.737 190.81C421.678 191.08 421.608 191.351 421.528 191.612L395.604 193.398C395.604 193.398 396.851 181.854 395.144 173.746C393.927 168.001 396.72 167.523 396.72 167.523L421.657 165.204C421.647 165.204 421.627 165.213 421.617 165.223C418.924 166.152 424.042 181.015 421.737 190.81Z" fill="white"/>
<path d="M445.172 391.322H424.956L425.712 386.594H445.928L445.172 391.322Z" fill="#407BFF"/>
<path d="M494.29 386.594H474.822V391.322H494.29V386.594Z" fill="#407BFF"/>
<path opacity="0.1" d="M492.428 195.245C491.862 195.449 491.285 195.62 490.707 195.779C487.529 196.641 484.151 196.982 481.174 197.039C478.524 197.096 476.187 196.925 474.58 196.71C451.168 193.485 450.465 189.149 450.465 189.149C450.465 189.149 465.135 188.263 472.093 184.472C473.575 183.666 474.906 182.167 476.087 180.317C480.496 173.46 482.844 161.687 482.844 161.687C482.844 161.687 484.653 163.129 487.127 165.422C488.145 166.353 489.275 167.432 490.431 168.612C490.443 168.771 490.443 168.919 490.456 169.078C490.631 172.064 490.82 175.197 491.021 178.353L491.033 178.364C491.423 184.256 491.886 190.193 492.428 195.245Z" fill="black"/>
<path d="M441.232 175.863L429.844 191.294" stroke="#263238" stroke-width="1.1217" stroke-miterlimit="10" stroke-linecap="round" stroke-linejoin="round"/>
<path d="M449.065 182.206L449.325 187.574C447.37 192.936 440.177 189.471 440.177 189.471L435.974 189.067C434.55 188.93 433.442 187.734 433.358 186.24L433.144 182.488C433.048 180.779 434.314 179.302 435.952 179.215L439.633 179.021C440.704 178.965 441.774 179.15 442.748 179.557L449.065 182.206Z" fill="#FFB573"/>
<path d="M489.555 149.898C503.566 153.44 491.973 192.358 486.837 193.657C477.111 196.115 448.019 191.3 448.019 191.3L447.959 181.036C447.959 181.036 475.965 183.52 478.323 182.567C481.378 181.33 482.862 166.639 483.524 159.701C484.187 152.761 489.555 149.898 489.555 149.898Z" fill="#407BFF"/>
<path opacity="0.7" d="M489.555 149.898C503.566 153.44 491.973 192.358 486.837 193.657C477.111 196.115 448.019 191.3 448.019 191.3L447.959 181.036C447.959 181.036 475.965 183.52 478.323 182.567C481.378 181.33 482.862 166.639 483.524 159.701C484.187 152.761 489.555 149.898 489.555 149.898Z" fill="white"/>
</svg>
