<svg width="658" height="442" viewBox="0 0 658 442" fill="none" xmlns="http://www.w3.org/2000/svg">
<path opacity="0.1" d="M323.497 409.575C468.592 409.575 586.214 402.067 586.214 392.805C586.214 383.543 468.592 376.035 323.497 376.035C178.402 376.035 60.7795 383.543 60.7795 392.805C60.7795 402.067 178.402 409.575 323.497 409.575Z" fill="#001433"/>
<path d="M505.086 375.333C505.086 379.183 501.965 382.303 498.115 382.303H157.953C154.104 382.303 150.983 379.182 150.983 375.333V129.97C150.983 126.12 154.104 122.999 157.953 122.999H498.115C501.966 122.999 505.086 126.12 505.086 129.97V375.333Z" fill="#001433" stroke="#22689E" stroke-width="2.1388" stroke-miterlimit="10"/>
<path d="M492.19 136.667H163.894V356.228H492.19V136.667Z" fill="#FAEEE8"/>
<path d="M563.463 370.472H556.493H99.5771H92.606C90.6809 370.472 89.1205 372.032 89.1205 373.957V381.624C89.1205 381.943 89.1772 382.246 89.2574 382.539C90.0347 387.546 94.3513 391.383 99.5762 391.383H556.492C561.717 391.383 566.033 387.546 566.811 382.539C566.891 382.246 566.948 381.943 566.948 381.624V373.957C566.949 372.032 565.388 370.472 563.463 370.472Z" fill="#22689E"/>
<path opacity="0.6" d="M268.168 370.472C268.931 377.636 274.991 383.218 282.359 383.218H373.711C381.078 383.218 387.139 377.636 387.902 370.472H268.168Z" fill="#003154"/>
<path d="M220.561 311.288C220.561 314.381 223.069 316.89 226.163 316.89H469.93C473.023 316.89 475.532 314.382 475.532 311.288V161.151C475.532 158.058 473.024 155.549 469.93 155.549H226.163C223.07 155.549 220.561 158.057 220.561 161.151V311.288Z" fill="white" stroke="#22689E" stroke-width="1.754" stroke-miterlimit="10"/>
<path d="M475.532 173.571V161.908C475.532 158.813 473.024 156.305 469.93 156.305H226.163C223.07 156.305 220.561 158.813 220.561 161.908V173.571H475.532Z" fill="#22689E"/>
<path d="M468.624 165.847C470.443 165.847 471.918 164.373 471.918 162.553C471.918 160.734 470.443 159.26 468.624 159.26C466.805 159.26 465.33 160.734 465.33 162.553C465.33 164.373 466.805 165.847 468.624 165.847Z" fill="white"/>
<path d="M454.831 162.553C454.831 164.373 456.305 165.847 458.125 165.847C459.945 165.847 461.419 164.373 461.419 162.553C461.419 160.734 459.945 159.26 458.125 159.26C456.306 159.26 454.831 160.734 454.831 162.553Z" fill="white"/>
<path d="M444.333 162.553C444.333 164.373 445.807 165.847 447.627 165.847C449.446 165.847 450.921 164.373 450.921 162.553C450.921 160.734 449.446 159.26 447.627 159.26C445.807 159.26 444.333 160.734 444.333 162.553Z" fill="white"/>
<path d="M340.486 186.419H319.336V293.176H340.486V186.419Z" fill="#FF8255"/>
<path d="M419.875 145.264H396.357V293.176H419.875V145.264Z" fill="#FFA94D"/>
<path d="M302.567 222.43H279.049V293.176H302.567V222.43Z" fill="#FFA94D"/>
<path d="M380.772 212.14H357.255V293.176H380.772V212.14Z" fill="#22689E"/>
<path d="M263.464 249.437H239.946V293.175H263.464V249.437Z" fill="#22689E"/>
<path d="M457.794 66.8117H436.644V293.177H457.794V66.8117Z" fill="#FF8255"/>
<path d="M428.242 71.6704L447.219 38.8016L466.195 71.6704H428.242Z" fill="#FF8255"/>
<path d="M242.599 297.178H467.82" stroke="#001433" stroke-width="1.754" stroke-miterlimit="10" stroke-linecap="round"/>
<path d="M313.155 132.685C327.697 118.143 327.697 94.5649 313.155 80.0226C298.612 65.4804 275.035 65.4804 260.492 80.0226C245.95 94.5649 245.95 118.143 260.492 132.685C275.035 147.227 298.612 147.227 313.155 132.685Z" fill="#FF8255"/>
<path d="M284.045 124.422C279.984 124.236 276.07 123.328 272.305 121.695V112.458C274.457 113.552 276.793 114.466 279.316 115.199C281.838 115.931 284.055 116.298 285.965 116.298C287.542 116.298 288.696 116.108 289.429 115.728C290.163 115.348 290.528 114.712 290.528 113.822C290.528 113.21 290.264 112.691 289.735 112.265C289.206 111.839 288.326 111.356 287.093 110.818C285.86 110.28 284.195 109.631 282.098 108.87C279.743 107.998 277.842 107.02 276.396 105.935C274.949 104.85 273.896 103.636 273.237 102.29C272.579 100.946 272.25 99.272 272.25 97.2686C272.25 94.2084 273.233 91.8159 275.199 90.0913C277.165 88.3666 280.114 87.2999 284.046 86.8922V83.0811H289.805V86.8364C293.496 87.0408 297.215 87.9491 300.961 89.5633L297.65 97.4925C293.773 95.7493 290.277 94.8772 287.161 94.8772C285.677 94.8772 284.634 95.058 284.031 95.4198C283.429 95.7815 283.127 96.3144 283.127 97.0193C283.127 97.6314 283.345 98.1369 283.781 98.5358C284.217 98.9347 284.973 99.3795 286.048 99.8713C287.124 100.363 288.617 100.933 290.527 101.582C294.404 102.955 297.186 104.517 298.873 106.27C300.561 108.023 301.404 110.281 301.404 113.045C301.404 116.161 300.417 118.692 298.442 120.64C296.467 122.587 293.588 123.793 289.804 124.256V129.626H284.045V124.422Z" fill="white"/>
<path d="M385.957 53.5745C385.415 43.11 377.463 34.602 366.985 34.602C356.506 34.602 348.012 43.0964 348.012 53.5745C348.012 69.2492 366.985 88.3977 366.985 88.3977C366.985 88.3977 386.66 67.1412 385.957 53.5745ZM366.985 61.4998C362.607 61.4998 359.059 57.9517 359.059 53.5745C359.059 49.1973 362.607 45.6492 366.985 45.6492C371.362 45.6492 374.91 49.1973 374.91 53.5745C374.91 57.9517 371.362 61.4998 366.985 61.4998Z" fill="#22689E"/>
<path d="M209.987 102.227C221.691 102.227 231.179 92.7389 231.179 81.0349C231.179 69.331 221.691 59.843 209.987 59.843C198.283 59.843 188.795 69.331 188.795 81.0349C188.795 92.7389 198.283 102.227 209.987 102.227Z" stroke="#FFA94D" stroke-width="15.8953" stroke-miterlimit="10" stroke-dasharray="8.51 8.51"/>
<path d="M209.987 97.9881C219.35 97.9881 226.941 90.3977 226.941 81.0345C226.941 71.6714 219.35 64.081 209.987 64.081C200.624 64.081 193.034 71.6714 193.034 81.0345C193.034 90.3977 200.624 97.9881 209.987 97.9881Z" stroke="#FFA94D" stroke-width="11.5602" stroke-miterlimit="10"/>
<path opacity="0.1" d="M583.42 440.531C624.582 440.531 657.95 434.484 657.95 427.023C657.95 419.563 624.582 413.515 583.42 413.515C542.258 413.515 508.89 419.563 508.89 427.023C508.89 434.484 542.258 440.531 583.42 440.531Z" fill="#001433"/>
<path d="M587.385 33.3848C587.385 33.3848 571.589 25.6159 560.453 44.0027C549.318 62.3896 547.764 89.8398 558.641 94.7596L557.863 90.6161C557.863 90.6161 559.935 97.8668 574.696 99.1623C589.457 100.457 587.385 33.3848 587.385 33.3848Z" fill="#000A19"/>
<path d="M597.486 84.9189C597.486 84.9189 588.68 111.075 593.86 112.628C599.039 114.182 571.589 109.003 571.589 109.003L574.955 86.7316L597.486 84.9189Z" fill="#FF927D"/>
<path d="M584.537 42.1902C584.537 42.1902 564.597 38.8239 561.749 64.2024C558.32 94.749 584.743 108.944 601.371 83.6246C612.764 66.2732 606.549 45.2973 584.537 42.1902Z" fill="#FFB199"/>
<path d="M564.525 60.253C564.525 60.253 564.581 60.0252 564.764 59.6615C564.851 59.4758 564.977 59.2646 565.135 59.026C565.307 58.8031 565.484 58.5215 565.746 58.282C565.988 58.018 566.283 57.7599 566.627 57.5174C566.973 57.2847 567.368 57.051 567.811 56.8897C568.034 56.8086 568.266 56.7352 568.502 56.6629C568.744 56.6179 568.993 56.5827 569.247 56.5534C569.75 56.4722 570.272 56.5622 570.781 56.6101C571.261 56.7626 571.791 56.833 572.208 57.0862C572.637 57.3131 573.085 57.5115 573.418 57.8146C573.762 58.1021 574.119 58.3573 574.381 58.6623C574.646 58.9664 574.879 59.2656 575.088 59.5393C575.316 59.7984 575.454 60.0898 575.588 60.3362C575.725 60.5796 575.827 60.8035 575.912 60.9834C576.079 61.3481 576.155 61.5632 576.155 61.5632C576.155 61.5632 575.943 61.4527 575.606 61.2454C575.259 61.0509 574.832 60.7077 574.284 60.3801C574.007 60.2188 573.715 60.0458 573.421 59.8502C573.128 59.6537 572.784 59.5276 572.466 59.3408C572.152 59.1355 571.789 59.0593 571.453 58.9028C571.117 58.7337 570.753 58.721 570.409 58.6027C570.235 58.5655 570.058 58.5665 569.883 58.5421C569.708 58.5215 569.533 58.4883 569.359 58.5137C569.185 58.5254 569.011 58.5235 568.836 58.5244C568.665 58.5567 568.495 58.587 568.323 58.6076C567.982 58.6623 567.65 58.763 567.332 58.8637C567.017 58.9771 566.706 59.0817 566.429 59.2167C565.87 59.4728 565.392 59.7329 565.059 59.9304C564.721 60.123 564.525 60.253 564.525 60.253Z" fill="#000A19"/>
<path d="M583.411 62.0859C583.411 62.0859 583.49 61.8464 583.717 61.4709C583.941 61.0965 584.307 60.5754 584.883 60.0709C585.16 59.803 585.499 59.5566 585.882 59.32C586.272 59.1078 586.69 58.8507 587.173 58.7216C587.415 58.6502 587.66 58.5779 587.909 58.5046C588.166 58.4625 588.428 58.4244 588.694 58.399C589.224 58.3188 589.769 58.4146 590.308 58.4488C590.821 58.5945 591.371 58.6678 591.836 58.9005C592.074 59.0051 592.305 59.1176 592.53 59.2339C592.762 59.3395 592.973 59.4656 593.165 59.6133C593.56 59.888 593.939 60.1608 594.256 60.4551C594.565 60.7582 594.838 61.0623 595.083 61.3429C595.345 61.6068 595.526 61.9002 595.685 62.1583C595.85 62.4095 595.978 62.6413 596.085 62.828C596.296 63.2034 596.395 63.4293 596.395 63.4293C596.395 63.4293 596.162 63.3188 595.794 63.1067C595.411 62.9111 594.944 62.5503 594.329 62.2287C594.023 62.0654 593.698 61.8904 593.375 61.6851C593.038 61.5022 592.657 61.3732 592.304 61.1766C591.955 60.9586 591.535 60.9195 591.162 60.7465C590.779 60.5939 590.372 60.5626 589.981 60.4483C589.583 60.4258 589.184 60.3319 588.79 60.3603C588.594 60.371 588.396 60.37 588.199 60.3642C588.003 60.3915 587.811 60.4179 587.621 60.4453C587.24 60.4981 586.87 60.6018 586.512 60.6897C586.167 60.8139 585.819 60.9078 585.513 61.0447C584.89 61.2949 584.366 61.5599 584 61.7584C583.624 61.952 583.411 62.0859 583.411 62.0859Z" fill="#000A19"/>
<path d="M569.454 65.6521C569.227 67.458 568.517 68.8551 567.868 68.773C567.22 68.6918 566.879 67.1617 567.107 65.3559C567.335 63.55 568.044 62.1529 568.693 62.235C569.34 62.3162 569.681 63.8463 569.454 65.6521Z" fill="#000A19"/>
<path d="M586.463 68.1133C586.236 69.9191 585.526 71.3163 584.877 71.2341C584.229 71.152 583.888 69.6229 584.116 67.817C584.344 66.0112 585.053 64.614 585.702 64.6952C586.35 64.7773 586.691 66.3074 586.463 68.1133Z" fill="#000A19"/>
<path d="M574.312 69.4031C574.564 69.98 574.595 70.638 574.47 71.2725C574.352 71.9119 574.06 72.5484 573.615 73.0686C573.173 73.5848 572.617 74.0228 572.006 74.2927C571.708 74.455 571.39 74.5293 571.078 74.6359C570.765 74.719 570.446 74.7561 570.132 74.8128L570.73 73.2524C571.126 73.8312 571.494 74.4325 571.811 75.0758C572.123 75.7211 572.413 76.386 572.595 77.1359C571.902 76.7937 571.319 76.3645 570.757 75.9176C570.2 75.4669 569.695 74.9761 569.217 74.4628L568.192 73.3599L569.815 72.9024L570.521 72.7029C570.736 72.6081 570.977 72.5602 571.181 72.4585C571.391 72.3646 571.606 72.2835 571.795 72.1622C571.9 72.1163 571.998 72.0606 572.087 71.9931C572.176 71.9256 572.286 71.8797 572.372 71.8064C572.554 71.6705 572.735 71.5277 572.907 71.3625C573.075 71.1953 573.253 71.0203 573.414 70.8198C573.565 70.6175 573.736 70.4053 573.877 70.1677C574.027 69.9321 574.175 69.6818 574.312 69.4031Z" fill="#DB6363"/>
<path d="M571.212 81.8205C571.212 81.8205 571.468 81.8753 571.902 81.9985C572.116 82.063 572.38 82.1363 572.671 82.2409C572.963 82.3407 573.297 82.4678 573.65 82.5274C574.005 82.6037 574.38 82.6829 574.759 82.7924C575.127 82.9253 575.579 82.9165 576.002 83.0075C576.434 83.0681 576.871 83.1805 577.328 83.1678C577.782 83.1795 578.238 83.2147 578.696 83.246C579.152 83.2108 579.608 83.1746 580.061 83.1619C580.517 83.1717 580.949 83.0524 581.381 82.9908C581.803 82.898 582.245 82.9019 582.623 82.7572C583.008 82.6369 583.387 82.546 583.743 82.4629C584.104 82.3925 584.409 82.2595 584.692 82.1588C584.971 82.0513 585.228 81.9721 585.439 81.9026C585.865 81.7677 586.127 81.7012 586.127 81.7012C586.127 81.7012 585.967 81.8987 585.654 82.2272C585.496 82.3886 585.304 82.5909 585.068 82.806C584.835 83.0241 584.578 83.292 584.232 83.4738C583.9 83.6831 583.533 83.9099 583.131 84.126C582.743 84.3792 582.275 84.5063 581.799 84.6617C581.318 84.7918 580.833 85.0264 580.3 85.045C579.775 85.1115 579.237 85.1565 578.701 85.2024C578.165 85.1594 577.627 85.1135 577.103 85.0499C576.571 85.0294 576.086 84.8084 575.605 84.6793C575.128 84.5268 574.669 84.4075 574.262 84.1602C573.847 83.949 573.473 83.7241 573.135 83.5198C572.777 83.3369 572.53 83.0945 572.299 82.8862C572.065 82.6848 571.871 82.4912 571.709 82.3358C571.386 82.017 571.212 81.8205 571.212 81.8205Z" fill="#DB6363"/>
<path d="M585.372 348.089C585.372 348.089 607.503 409.544 611.319 416.611C614.183 421.917 641.644 435.126 618.473 414.519C618.473 414.519 613.309 353.586 606.088 333.9C598.868 314.214 585.372 348.089 585.372 348.089Z" fill="#FFB199"/>
<path d="M617.467 403.827C615.628 385.447 611.419 348.436 606.088 333.901C598.867 314.215 585.372 348.089 585.372 348.089C585.372 348.089 600.356 389.696 607.79 408.375C611.026 406.884 614.247 405.356 617.467 403.827Z" fill="#FF927D"/>
<path d="M609.786 414.454L610.692 419.245C610.692 419.245 650.4 442.034 620.36 416.137C620.36 416.137 626.36 423.086 609.786 414.454Z" fill="#001433"/>
<path d="M565.46 329.47C565.46 329.47 565.115 415.447 562.698 417.864C560.282 420.281 533.521 433.229 553.721 414.324C553.721 414.324 536.802 340.174 538.528 327.743C540.254 315.312 565.46 329.47 565.46 329.47Z" fill="#FF927D"/>
<path d="M563.691 413.288L563.432 417.949C563.432 417.949 522.917 440.911 552.957 415.014C552.957 415.014 547.117 421.92 563.691 413.288Z" fill="#001433"/>
<path d="M559.245 161.315C559.245 161.315 528.169 187.557 522.644 222.776C517.119 257.995 543.361 398.182 543.361 398.182C543.361 398.182 550.266 403.707 568.221 400.254L571.674 246.947C571.674 246.947 573.152 309.482 577.199 325.672C586.281 362.002 585.442 355.115 599.298 400.945C599.298 400.945 611.037 405.089 624.849 397.492C624.849 397.492 616.562 342.937 607.585 314.623C607.585 314.623 640.042 226.229 597.917 173.055C555.791 119.879 559.245 161.315 559.245 161.315Z" fill="#001433"/>
<path d="M559.106 243.618C548.688 239.922 539.085 234.74 531.308 226.776C528.559 223.96 526.024 220.968 523.588 217.895C523.224 219.502 522.901 221.127 522.643 222.776C517.118 257.995 543.36 398.182 543.36 398.182C543.36 398.182 550.265 403.707 568.22 400.254L571.665 247.311C567.414 246.256 563.206 245.072 559.106 243.618Z" fill="#000A19"/>
<path d="M545.399 175.848C549.617 178.506 554.232 180.58 559.674 181.73C568.478 183.59 577.754 183.98 586.726 183.63C591.798 183.432 597.919 182.98 604.026 181.834C602.191 178.832 600.169 175.896 597.917 173.054C555.792 119.88 559.244 161.315 559.244 161.315C559.244 161.315 552.878 166.701 545.399 175.848Z" fill="#000A19"/>
<path d="M494.331 97.0911C494.331 97.0911 487.996 74.6194 494.244 79.2723C494.244 79.2723 494.244 73.4236 496.747 77.0646C496.747 77.0646 499.164 70.8493 500.546 75.6831C500.546 75.6831 497.439 41.4994 504.689 76.3734C511.94 111.247 511.94 111.247 511.94 111.247L494.331 97.0911Z" fill="#FFB199"/>
<path d="M492.92 91.4385C493.627 94.5926 494.33 97.0907 494.33 97.0907L511.94 111.248C511.94 111.248 511.937 111.232 506.96 87.2999C502.259 88.6071 497.561 89.9319 492.92 91.4385Z" fill="#FF927D"/>
<path d="M570.294 104.342C570.294 104.342 554.066 97.7814 547.851 101.58C541.635 105.378 518.847 130.584 518.847 130.584L508.488 88.804L492.26 94.6742C492.26 94.6742 499.856 156.48 509.179 159.588C518.502 162.696 551.304 131.965 551.304 131.965L570.294 104.342Z" fill="#FFA94D"/>
<path d="M546.41 126.638C543.824 121.207 540.894 115.615 538.501 109.859C529.726 118.55 518.846 130.583 518.846 130.583L508.487 88.803L492.259 94.6732C492.259 94.6732 499.855 156.479 509.178 159.587C517.294 162.293 543.196 139.361 549.768 133.377C548.61 131.148 547.487 128.901 546.41 126.638Z" fill="#ED863A"/>
<path d="M568.567 103.651L569.257 96.7458L598.606 99.5078L596.535 107.45C596.535 107.45 611.727 107.105 618.978 114.01C626.229 120.916 604.13 175.471 604.13 175.471C604.13 175.471 574.435 177.543 544.396 163.386C544.396 163.386 537.491 138.525 541.289 129.202C545.087 119.879 556.482 101.233 556.482 101.233L568.567 103.651Z" fill="#FFA94D"/>
<path d="M586.843 147.42C571.453 151.471 555.595 151.298 540.925 146.594C542.15 155.282 544.398 163.386 544.398 163.386C574.439 177.542 604.133 175.471 604.133 175.471C604.133 175.471 618.652 139.617 620.282 122.367C614.594 135.111 599.621 144.056 586.843 147.42Z" fill="#ED863A"/>
<path d="M620.016 172.364L605.859 179.96C605.859 179.96 598.954 173.399 596.192 173.745C593.43 174.09 576.51 177.543 595.847 176.852C595.847 176.852 569.26 189.973 597.918 179.959C597.918 179.959 577.201 194.116 599.99 183.066C599.99 183.066 603.097 191.353 607.932 189.281C612.766 187.21 627.268 179.614 627.268 179.614L620.016 172.364Z" fill="#FFB199"/>
<path d="M596.536 107.449C596.536 107.449 614.145 103.306 625.194 115.391C636.243 127.477 659.378 153.719 655.58 163.386C651.781 173.055 613.8 191.01 613.8 191.01L605.513 178.579L630.028 157.171C630.028 157.171 584.105 127.131 596.536 107.449Z" fill="#FFA94D"/>
<path d="M576.51 39.6001C576.51 39.6001 566.151 59.5405 593.084 67.8276C593.084 67.8276 585.056 61.6123 582.984 54.8797C582.984 54.8797 590.235 66.0149 598.781 68.6049C598.781 68.6049 596.968 91.1353 590.753 102.011C590.753 102.011 605.255 104.601 609.399 85.9554C609.399 85.9554 609.658 92.947 606.55 97.3496C606.55 97.3496 620.275 97.3496 620.016 63.9431C619.757 30.5367 588.939 21.4723 576.51 39.6001Z" fill="#001433"/>
<path opacity="0.1" d="M82.8396 441.563C128.591 441.563 165.679 435.056 165.679 427.03C165.679 419.003 128.591 412.496 82.8396 412.496C37.0886 412.496 0 419.003 0 427.03C0 435.056 37.0886 441.563 82.8396 441.563Z" fill="#352C38"/>
<path d="M61.2323 56.447C61.2323 56.447 63.3979 80.5476 62.4427 82.459C61.4874 84.3694 33.0614 91.7746 33.0614 91.7746C33.0614 91.7746 83.4635 112.795 99.4687 104.674C115.473 96.5517 109.979 85.3247 107.591 85.5632C105.202 85.8018 85.1364 84.1299 85.1364 84.1299L85.6145 70.7528L61.2323 56.447Z" fill="#DD938A"/>
<path d="M62.4347 63.9964C62.4347 63.9964 48.2657 37.8973 66.1148 20.6768C83.9649 3.45638 100.613 17.7662 102.07 30.4637C103.527 43.1613 109.432 81.123 86.9225 79.7141C64.4146 78.3042 62.4347 63.9964 62.4347 63.9964Z" fill="#FFAC9D"/>
<path d="M112.166 4.88465L109.45 9.45643C109.45 9.45643 108.468 2.71608 103.897 0C103.897 0 104.775 7.47852 97.0224 6.27104C89.2701 5.06455 74.6543 -5.06357 63.2727 9.54345C61.855 11.363 60.6407 13.0681 59.5994 14.6608C57.074 13.8982 53.2277 13.9402 49.7988 18.951C46.3446 23.9979 42.2626 44.8134 62.7496 67.0711L61.2332 56.4463C61.2332 56.4463 58.4457 57.7153 56.2165 53.3547C52.3546 45.799 56.0171 42.4122 59.048 44.0176C62.0779 45.623 61.9655 52.8698 61.9655 52.8698L66.0543 52.3184L65.5615 39.1261C71.2733 35.7491 69.5017 27.0073 69.5017 27.0073C69.5017 27.0073 84.802 29.0781 99.3102 27.9948C120.649 26.4031 112.166 4.88465 112.166 4.88465Z" fill="#001433"/>
<path d="M62.0936 61.7506C62.0936 61.7506 54.8038 61.1249 54.1605 51.0476C53.5171 40.9703 59.9163 40.8442 61.2743 47.1387C62.6323 53.4342 62.0936 61.7506 62.0936 61.7506Z" fill="#FFAC9D"/>
<path d="M90.9927 42.6469C91.5745 43.9961 92.0477 45.3678 92.4808 46.7474C92.913 48.1279 93.2933 49.5182 93.6423 50.9163C94.3453 53.7106 94.8899 56.5382 95.3025 59.3931L95.4423 60.361L94.5682 60.3405C93.5035 60.3161 92.4378 60.274 91.3701 60.1987C90.3025 60.1127 89.2348 60.0267 88.1623 59.8458C89.2133 59.5671 90.2692 59.3843 91.3242 59.2005C92.3801 59.0284 93.438 58.8886 94.4959 58.7674L93.7616 59.7148C92.9941 56.9342 92.3596 54.1252 91.8825 51.284C91.641 49.8633 91.4327 48.4369 91.2743 46.9996C91.1179 45.5614 91.0015 44.1154 90.9927 42.6469Z" fill="#DB6363"/>
<path d="M76.3779 60.8011C76.3779 60.8011 76.6214 61.0201 77.0613 61.3672C77.4935 61.7221 78.1241 62.2031 78.8887 62.7399C79.2729 63.0068 79.6924 63.2825 80.1431 63.5592C80.5782 63.8584 81.0905 64.0833 81.5745 64.3805C82.0868 64.6259 82.6118 64.8869 83.1593 65.105C83.7078 65.323 84.2612 65.5518 84.8449 65.6818C85.4081 65.8842 85.9937 65.9898 86.5725 66.0886C87.1464 66.2225 87.7262 66.2284 88.2865 66.2919C88.5671 66.3349 88.8438 66.3252 89.1156 66.3164C89.3893 66.3144 89.6572 66.3125 89.9183 66.3105C90.4452 66.331 90.9351 66.2391 91.3985 66.1981C91.8541 66.1267 92.3009 66.1462 92.6686 66.0426C93.0411 65.9595 93.3745 65.9038 93.6512 65.8539C94.2046 65.7581 94.535 65.716 94.535 65.716C94.535 65.716 94.2681 65.894 93.7763 66.1834C93.5299 66.3261 93.2288 66.5041 92.8729 66.6898C92.5278 66.9069 92.0898 67.0174 91.6244 67.1904C91.1551 67.3478 90.6476 67.562 90.0757 67.6245C89.5096 67.6979 88.9112 67.8866 88.2777 67.8533C87.649 67.8338 86.9822 67.9276 86.3271 67.7829C85.6652 67.693 84.9935 67.5923 84.3473 67.383C83.6893 67.21 83.0723 66.9343 82.4642 66.6683C81.8521 66.4122 81.3144 66.0328 80.7757 65.718C80.2653 65.3553 79.7696 65.0092 79.3541 64.6171C78.9151 64.2544 78.5445 63.8643 78.2141 63.4966C77.5482 62.7673 77.0848 62.0878 76.7944 61.594C76.4992 61.1061 76.3779 60.8011 76.3779 60.8011Z" fill="#DB6363"/>
<path d="M60.4531 58.5715C59.9926 58.4512 59.5448 58.2772 59.1205 58.0347C58.9103 57.9086 58.6991 57.7785 58.4977 57.6065C58.393 57.5292 58.3011 57.4305 58.2082 57.32C58.1124 57.2212 58.0235 57.101 57.9482 56.9524C57.8612 56.8243 57.8025 56.6503 57.7673 56.4547C57.7067 56.2748 57.7556 56.049 57.7976 55.8407C57.8485 55.6354 57.9707 55.4819 58.0772 55.3078C58.1916 55.1573 58.3158 55.0703 58.4439 54.952C58.5769 54.8268 58.6951 54.774 58.8203 54.6978C58.9445 54.6293 59.0725 54.5482 59.2006 54.4934L59.9417 54.2314L59.2837 54.9608L59.3228 53.6457L59.3463 52.3229C59.359 51.4439 59.3424 50.5718 59.2984 49.7192C59.27 49.292 59.2124 48.8784 59.1557 48.4697C59.1253 48.2644 59.0784 48.0698 59.0276 47.8763C58.9699 47.6876 58.92 47.4998 58.8477 47.3219C58.7724 47.1498 58.6824 46.9904 58.5768 46.8428C58.4693 46.701 58.3442 46.5651 58.1848 46.4644C57.87 46.2542 57.4271 46.1565 56.949 46.1496C57.1543 46.0411 57.3713 45.912 57.6206 45.8612C57.8641 45.8035 58.1369 45.7761 58.4097 45.8289C58.6834 45.8759 58.9474 45.9883 59.1928 46.1359C59.4275 46.2943 59.6289 46.4879 59.8107 46.6942C59.9789 46.9044 60.1431 47.1205 60.2634 47.3532C60.3837 47.5829 60.4961 47.8166 60.587 48.0522C60.7816 48.5215 60.9087 49.0045 61.0006 49.4826C61.2059 50.4398 61.2577 51.398 61.2558 52.3444C61.2362 53.2967 61.1649 54.2197 60.984 55.1739L60.8676 55.7908L60.326 55.9033L59.7511 56.0226C59.6044 56.0812 59.3923 56.1135 59.2876 56.1741C59.2417 56.2025 59.1576 56.2269 59.1273 56.2504C59.1205 56.2709 59.0598 56.2817 59.053 56.2963C59.0628 56.311 58.9963 56.3051 59.007 56.353C58.9943 56.3863 58.9738 56.4371 59.0002 56.5114C59.0041 56.5789 59.0256 56.6571 59.0696 56.7402C59.0999 56.8233 59.1439 56.9074 59.1987 56.9944C59.2906 57.1733 59.4196 57.3493 59.5526 57.5233C59.8254 57.8743 60.1295 58.2234 60.4531 58.5715Z" fill="#DB6363"/>
<path d="M91.6656 40.7358C91.6656 40.7358 91.6539 40.4923 91.734 40.0875C91.8025 39.6779 91.9765 39.1235 92.2903 38.4841C92.4722 38.183 92.6511 37.8349 92.9278 37.5201C93.1801 37.1876 93.5027 36.8718 93.8752 36.5736C94.0453 36.4074 94.2731 36.295 94.4882 36.162C94.7092 36.0359 94.9204 35.8893 95.1824 35.8149C95.4347 35.727 95.6908 35.6311 95.9528 35.5588C96.2227 35.5089 96.5033 35.4855 96.78 35.4561C97.0596 35.4199 97.3353 35.4366 97.6071 35.4825C97.8809 35.5128 98.1507 35.5676 98.4147 35.6165C98.9007 35.8003 99.3973 35.9851 99.7972 36.2402C100.18 36.515 100.542 36.7917 100.849 37.0723C101.119 37.3861 101.359 37.6892 101.566 37.9737C101.786 38.2475 101.922 38.5428 102.034 38.8048C102.157 39.058 102.24 39.2956 102.31 39.4853C102.448 39.8666 102.494 40.0993 102.494 40.0993C102.494 40.0993 102.252 40.024 101.888 39.8685C101.707 39.7893 101.484 39.7004 101.257 39.5791C101.026 39.4599 100.767 39.3318 100.478 39.2291C100.196 39.1147 99.9048 38.9866 99.6144 38.8429C99.3093 38.7422 98.9984 38.6562 98.7002 38.534C98.3962 38.4401 98.0911 38.4274 97.8017 38.3286C97.655 38.3286 97.5104 38.3335 97.3686 38.314C97.2258 38.2866 97.0831 38.2837 96.9433 38.3169L96.518 38.3423C96.3782 38.3883 96.2335 38.4098 96.0888 38.4391C95.8013 38.5076 95.506 38.6132 95.2108 38.7275C94.9184 38.8556 94.6192 38.9788 94.3396 39.1401C94.0444 39.2721 93.7872 39.4569 93.5154 39.5938C93.268 39.759 93.0031 39.89 92.7899 40.0338C92.5651 40.1755 92.3686 40.2987 92.2072 40.4004C91.8621 40.6145 91.6656 40.7358 91.6656 40.7358Z" fill="#000A19"/>
<path d="M86.8883 40.7353C86.8883 40.7353 86.6185 40.5701 86.1453 40.2797C85.9165 40.1408 85.6378 39.9727 85.3191 39.7791C85.0082 39.5855 84.6357 39.3988 84.2632 39.1739C83.8662 38.9803 83.4742 38.7261 83.0264 38.5335C82.8103 38.4279 82.5883 38.3203 82.3625 38.2099C82.1269 38.1238 81.8981 38.0212 81.6625 37.9234C81.1971 37.719 80.6975 37.5959 80.2135 37.4316C79.7129 37.3485 79.225 37.1676 78.7215 37.1666C78.4722 37.149 78.2238 37.0806 77.9745 37.0943C77.7262 37.1148 77.4788 37.1138 77.2315 37.1178C76.7318 37.0874 76.2577 37.2713 75.7668 37.3045C75.2858 37.3935 74.8341 37.5861 74.3726 37.6946C73.9082 37.8041 73.5152 38.0544 73.1055 38.1971C72.7027 38.3585 72.3067 38.4895 71.9978 38.6792C71.681 38.8551 71.3808 38.991 71.1354 39.1093C70.6407 39.343 70.3249 39.4613 70.3249 39.4613C70.3249 39.4613 70.4569 39.1729 70.7453 38.6928C70.891 38.4543 71.066 38.1571 71.2948 37.8364C71.5011 37.4922 71.8061 37.1705 72.1601 36.8303C72.5248 36.5047 72.8767 36.0784 73.3724 35.7812C73.8691 35.4899 74.3785 35.1222 74.9808 34.8856C75.2858 34.7732 75.6036 34.6735 75.9272 34.5708L76.416 34.4183C76.5842 34.3841 76.7582 34.3743 76.9303 34.3518C77.2764 34.3146 77.6284 34.2716 77.9814 34.2511C78.3343 34.2306 78.6863 34.2941 79.0393 34.3176C79.7549 34.3596 80.4178 34.5894 81.0739 34.7908C81.3995 34.8964 81.6908 35.0636 81.99 35.2034C82.2882 35.3461 82.5815 35.4859 82.8347 35.6766C83.0958 35.8536 83.3549 36.0217 83.5964 36.2007C83.83 36.3894 84.049 36.582 84.2583 36.7726C84.6904 37.1383 85.0199 37.5607 85.3416 37.9214C85.9351 38.6958 86.3418 39.387 86.5696 39.9062C86.8121 40.4175 86.8883 40.7353 86.8883 40.7353Z" fill="#000A19"/>
<path d="M77.2412 46.4982C77.1953 48.3177 76.6282 49.7784 75.9751 49.7628C75.322 49.7461 74.8302 48.2581 74.8762 46.4385C74.9221 44.619 75.4892 43.1583 76.1423 43.174C76.7954 43.1916 77.2872 44.6796 77.2412 46.4982Z" fill="#000A19"/>
<path d="M97.307 46.4982C97.2611 48.3177 96.694 49.7784 96.0409 49.7628C95.3878 49.7461 94.896 48.2581 94.9419 46.4385C94.9879 44.619 95.5549 43.1583 96.208 43.174C96.8612 43.1916 97.353 44.6796 97.307 46.4982Z" fill="#000A19"/>
<path d="M103.748 398.952L104.934 425.106C104.934 425.106 174.027 444.685 119.34 417.857L118.828 382.68L103.748 398.952Z" fill="#22689E"/>
<path opacity="0.3" d="M109.965 418.101C108.219 418.094 106.558 418.047 104.599 417.711L103.748 398.951L118.828 382.679L119.321 416.575C116.302 417.71 113.172 418.114 109.965 418.101Z" fill="#161826"/>
<path d="M139.885 429.885C146.229 436.978 104.876 425.386 104.876 425.386L104.812 423.877C108.109 424.795 137.929 432.993 139.885 429.885Z" fill="white"/>
<path d="M120.408 417.747C120.408 417.747 116.947 417.669 115.406 419.855" stroke="white" stroke-width="1.0038" stroke-miterlimit="10" stroke-linecap="round"/>
<path d="M123.196 419.404C123.196 419.404 119.735 419.325 118.194 421.512" stroke="white" stroke-width="1.0038" stroke-miterlimit="10" stroke-linecap="round"/>
<path d="M126.327 421.137C126.327 421.137 122.866 421.059 121.325 423.245" stroke="white" stroke-width="1.0038" stroke-miterlimit="10" stroke-linecap="round"/>
<path d="M60.0868 397.961L57.4567 424.014C57.4567 424.014 -12.618 439.918 43.4725 416.015L45.9285 380.917L60.0868 397.961Z" fill="#22689E"/>
<path opacity="0.3" d="M52.817 416.754C54.5612 416.839 56.2224 416.88 58.1973 416.648L60.0843 397.961L45.9251 380.917L43.559 414.736C46.5117 416.029 49.614 416.598 52.817 416.754Z" fill="#161826"/>
<path d="M22.289 426.943C15.5623 433.691 57.4955 424.298 57.4955 424.298L57.6431 422.795C54.3023 423.537 24.0714 430.15 22.289 426.943Z" fill="white"/>
<path d="M42.4093 415.847C42.4093 415.847 45.8694 415.952 47.2881 418.216" stroke="white" stroke-width="1.0038" stroke-miterlimit="10" stroke-linecap="round"/>
<path d="M39.5348 417.355C39.5348 417.355 42.9959 417.46 44.4136 419.724" stroke="white" stroke-width="1.0038" stroke-miterlimit="10" stroke-linecap="round"/>
<path d="M36.3112 418.923C36.3112 418.923 39.7714 419.028 41.19 421.292" stroke="white" stroke-width="1.0038" stroke-miterlimit="10" stroke-linecap="round"/>
<path d="M116.746 188.378C116.746 188.378 127.555 313.267 121.975 413.931C121.975 413.931 107.704 418.587 103.312 414.697C100.119 390.706 100.678 344.401 95.8529 309.673C91.3105 276.974 86.2527 238.306 86.2527 238.306L83.436 238.697C83.436 238.697 63.6715 401.611 60.7716 413.487C45.8928 416.869 40.927 410.446 40.927 410.446C40.927 410.446 46.761 218.904 51.759 187.241C58.3087 145.754 116.746 188.378 116.746 188.378Z" fill="#FFA94D"/>
<path d="M86.7651 236.535C97.9091 238.39 109.111 239.812 120.325 241.136C118.565 209.399 116.746 188.378 116.746 188.378C116.746 188.378 58.3088 145.754 51.7591 187.24C50.6552 194.229 49.5113 209.014 48.3977 227.807C60.9818 231.735 74.0108 234.413 86.7651 236.535Z" fill="#ED863A"/>
<path d="M119.657 229.602C122.387 274.745 125.557 349.326 121.976 413.932C121.976 413.932 107.705 418.588 103.313 414.697C100.12 390.707 100.679 344.402 95.8539 309.673C91.6067 279.106 86.9108 243.324 86.3163 238.79C97.9677 237.395 109.276 234.658 119.657 229.602Z" fill="#ED863A"/>
<path d="M58.8603 83.1761C58.8603 83.1761 63.9043 97.9073 79.6425 97.5084C92.9893 97.1701 93.2582 84.1314 93.2582 84.1314C93.2582 84.1314 115.133 84.7336 118.42 92.0939C121.707 99.4541 113.537 113.722 113.537 113.722C113.537 113.722 122.953 197.852 122.56 215.991C122.56 215.991 74.4871 223.316 48.3499 217.264C48.3499 217.264 42.9451 123.74 35.4509 92.9699L58.8603 83.1761Z" fill="#22689E"/>
<path d="M97.08 83.6532C97.08 83.6532 127.019 84.4491 130.841 94.6417C134.663 104.833 172.883 185.732 172.883 185.732L148.677 185.095L120.649 139.231L97.08 83.6532Z" fill="#001433"/>
<path d="M134.259 102.639C128.043 110.381 121.314 117.703 114.651 125.087L120.649 139.232L148.677 185.097L172.883 185.734C172.883 185.732 144.595 125.855 134.259 102.639Z" fill="#000A19"/>
<path d="M97.08 83.6527C97.08 83.6527 106.157 165.347 103.769 221.722L128.611 218.856C128.611 218.856 128.133 104.195 122.878 93.2079C117.623 82.2194 97.08 83.6527 97.08 83.6527Z" fill="#001433"/>
<path d="M115.793 174.933C111.698 173.784 107.615 172.635 103.554 171.435C104.212 188.626 104.428 206.142 103.769 221.724L128.611 218.857C128.611 218.857 128.536 200.827 128.117 178.387C124.007 177.245 119.901 176.086 115.793 174.933Z" fill="#000A19"/>
<path d="M54.401 82.5388C54.401 82.5388 69.052 105.471 77.3332 166.623C85.6145 227.775 81.7926 223.953 81.7926 223.953L41.0249 225.227L23.8259 95.2794L54.401 82.5388Z" fill="#001433"/>
<path d="M76.7115 162.195C60.6721 152.625 44.8644 142.648 28.8279 133.072L41.0249 225.227L84.979 231.158C84.979 231.158 85.6145 227.774 77.3333 166.623C77.1299 165.122 76.9217 163.65 76.7115 162.195Z" fill="#000A19"/>
<path d="M70.6681 318.927C70.6681 321.666 72.8875 323.885 75.6261 323.885H235.524C238.263 323.885 240.482 321.665 240.482 318.927V186.047C240.482 183.308 238.263 181.089 235.524 181.089H75.6271C72.8885 181.089 70.6691 183.309 70.6691 186.047L70.6681 318.927Z" fill="white" stroke="#FF8255" stroke-width="2.011" stroke-miterlimit="10"/>
<path d="M240.483 197.04V186.717C240.483 183.978 238.264 181.759 235.525 181.759H75.6271C72.8885 181.759 70.6691 183.978 70.6691 186.717V197.04H240.483Z" fill="#FF8255"/>
<path d="M234.369 190.204C235.979 190.204 237.284 188.899 237.284 187.289C237.284 185.679 235.979 184.373 234.369 184.373C232.758 184.373 231.453 185.679 231.453 187.289C231.453 188.899 232.758 190.204 234.369 190.204Z" fill="white"/>
<path d="M222.161 187.289C222.161 188.899 223.466 190.204 225.077 190.204C226.687 190.204 227.992 188.899 227.992 187.289C227.992 185.679 226.687 184.373 225.077 184.373C223.466 184.373 222.161 185.679 222.161 187.289Z" fill="white"/>
<path d="M215.784 190.204C217.394 190.204 218.7 188.899 218.7 187.289C218.7 185.679 217.394 184.373 215.784 184.373C214.174 184.373 212.868 185.679 212.868 187.289C212.868 188.899 214.174 190.204 215.784 190.204Z" fill="white"/>
<path d="M155.576 308.29C183.628 308.29 206.37 285.548 206.37 257.495C206.37 229.443 183.628 206.701 155.576 206.701C127.523 206.701 104.781 229.443 104.781 257.495C104.781 285.548 127.523 308.29 155.576 308.29Z" fill="#FFA94D" stroke="white" stroke-width="2.011" stroke-miterlimit="10"/>
<path d="M154.316 256.372L152.013 256.513H104.806C104.8 256.841 104.781 257.166 104.781 257.495C104.781 285.548 127.523 308.289 155.576 308.289C172.558 308.289 187.583 299.948 196.805 287.146L154.316 256.372Z" fill="#FF8255" stroke="white" stroke-width="2.011" stroke-miterlimit="10"/>
<path d="M154.176 206.737C126.772 207.481 104.781 229.913 104.781 257.496C104.781 285.08 126.772 307.511 154.176 308.255V206.737Z" fill="#22689E" stroke="white" stroke-width="2.011" stroke-miterlimit="10"/>
<path d="M155.576 279.123C167.52 279.123 177.204 269.44 177.204 257.495C177.204 245.55 167.52 235.867 155.576 235.867C143.631 235.867 133.948 245.55 133.948 257.495C133.948 269.44 143.631 279.123 155.576 279.123Z" fill="white"/>
<path d="M74.9446 199.944C74.9446 199.944 104.227 197.582 73.0195 197.056C73.0195 197.056 93.9269 188.863 69.7129 196.111L64.5926 202.612L57.1424 192.583C54.4439 197.666 50.9085 202.383 47.1258 206.959C54.8868 213.138 61.5715 217.606 63.6374 216.945C69.0871 215.201 74.9994 207.937 74.9994 207.937C74.9994 207.937 102.175 217.763 75.0356 204.921C75.0356 204.921 109.023 212.568 74.9446 199.944Z" fill="#FFB199"/>
<path d="M54.401 82.5388C54.401 82.5388 23.1884 88.2721 19.3656 94.6419C15.5437 101.012 0.892661 162.164 6.62597 172.355C12.3593 182.547 51.853 216.308 51.853 216.308L63.3187 198.473L35.2906 163.438L44.2083 115.025L54.401 82.5388Z" fill="#001433"/>
<path d="M45.0051 85.0862L45.3502 94.1427L45.6474 103.2C45.8234 109.24 46.0229 115.278 46.1441 121.318L45.709 120.904L59.8018 120.442L61.2429 120.395L60.1127 121.289L50.7491 128.69L50.8009 128.083C54.5847 132.337 58.301 136.651 62.0485 140.937L67.6372 147.395L73.1925 153.883L67.3947 147.611L61.6301 141.309C57.8092 137.088 53.957 132.895 50.1723 128.642L49.879 128.313L50.2241 128.035L59.5182 120.548L59.8282 121.394L45.7325 121.752L45.3052 121.763L45.2974 121.337C45.1801 115.296 45.1409 109.255 45.0784 103.214L45.0178 94.1515L45.0051 85.0862Z" fill="#22689E"/>
<path d="M106.99 84.7927L111.481 101.198L115.88 117.626L115.952 117.897L115.678 117.964L105.473 120.483L105.553 119.935C108.668 121.726 111.75 123.575 114.847 125.396L115.041 125.509L114.974 125.722L109.785 142.261C108.057 147.775 106.261 153.267 104.494 158.769C106.132 153.228 107.739 147.677 109.415 142.147L114.436 125.556L114.564 125.882C111.458 124.073 108.338 122.291 105.251 120.452L104.619 120.075L105.332 119.903L115.549 117.43L115.348 117.768L111.124 101.294L106.99 84.7927Z" fill="#22689E"/>
</svg>
