<svg width="543" height="389" viewBox="0 0 543 389" fill="none" xmlns="http://www.w3.org/2000/svg">
<path d="M320.967 75.4675C322.432 78.9663 324.371 82.1913 326.692 85.0793L323.288 92.1831L330.161 97.3136L337.035 102.444L342.936 97.2035C346.373 98.6127 350.027 99.5628 353.812 99.9823L356.451 107.395L364.957 106.186L373.463 104.978L373.912 97.1269C377.428 95.6697 380.669 93.7402 383.572 91.4303L390.711 94.8181L395.867 87.9786L401.023 81.1389L395.756 75.267C397.173 71.8477 398.127 68.2117 398.549 64.4452L405.998 61.8194L404.784 53.3557L403.57 44.8917L395.679 44.4452C394.215 40.9465 392.276 37.7217 389.954 34.8335L393.359 27.7297L386.485 22.5994L379.611 17.4688L373.71 22.7092C370.274 21.2998 366.62 20.35 362.835 19.9304L360.196 12.5179L351.689 13.7263L343.183 14.9349L342.735 22.7861C339.219 24.2433 335.978 26.1726 333.075 28.4824L325.936 25.0947L320.78 31.9342L315.624 38.7739L320.89 44.6458C319.474 48.065 318.52 51.7011 318.098 55.4676L310.648 58.0934L311.863 66.5574L313.077 75.0213L320.967 75.4675ZM354.068 30.2978C370.529 27.9589 385.779 39.3416 388.13 55.7212C390.48 72.1011 379.041 87.2756 362.58 89.6145C346.118 91.9534 330.868 80.5709 328.517 64.191C326.167 47.8111 337.606 32.6367 354.068 30.2978Z" fill="url(#paint0_linear_1049_1709)"/>
<path d="M400.798 23.8854C401.346 25.1956 402.072 26.4035 402.942 27.485L401.667 30.1457L404.241 32.0671L406.816 33.9884L409.026 32.0258C410.312 32.5538 411.681 32.9095 413.099 33.0667L414.087 35.8425L417.272 35.39L420.458 34.9375L420.626 31.9972C421.943 31.4514 423.157 30.729 424.244 29.8637L426.918 31.1322L428.848 28.5707L430.78 26.0092L428.807 23.8102C429.338 22.5298 429.695 21.1677 429.853 19.7573L432.643 18.7737L432.188 15.604L431.733 12.4343L428.778 12.2672C428.23 10.957 427.504 9.74906 426.634 8.66751L427.909 6.00705L425.335 4.08548L422.76 2.16415L420.55 4.1267C419.264 3.59878 417.895 3.24328 416.477 3.08589L415.489 0.309998L412.303 0.762502L409.118 1.21525L408.95 4.15556C407.633 4.70119 406.419 5.42384 405.332 6.28883L402.658 5.02032L400.727 7.58184L398.796 10.1434L400.769 12.3426C400.238 13.623 399.881 14.9849 399.723 16.3955L396.933 17.3788L397.388 20.5486L397.843 23.7183L400.798 23.8854ZM413.194 6.96905C419.359 6.09314 425.07 10.3558 425.951 16.4903C426.831 22.6248 422.547 28.3078 416.382 29.1837C410.217 30.0594 404.505 25.7967 403.625 19.6622C402.745 13.5279 407.029 7.84471 413.194 6.96905Z" fill="url(#paint1_linear_1049_1709)"/>
<path d="M257.012 149.115H255.385V318.902H257.012V149.115Z" fill="#F3F3F3"/>
<path d="M273.731 128.193H256.199V132.618H273.731V128.193Z" fill="white"/>
<path d="M270.228 136.374H256.199V140.8H270.228V136.374Z" fill="white"/>
<path d="M275.41 328.961H257.012V334.862H275.41V328.961Z" fill="white"/>
<path d="M323.736 89.9164C323.736 89.9164 359.321 131.901 336.748 159.088C314.174 186.274 307.963 159.618 307.963 159.618C307.963 159.618 294.453 162.114 317.854 128.109C328.884 112.081 323.736 89.9164 323.736 89.9164Z" fill="url(#paint2_linear_1049_1709)"/>
<path d="M401.735 57.1569C401.735 57.1569 428.172 95.9828 382.144 140.708C336.116 185.432 339.538 212.107 339.538 212.107C339.538 212.107 292.479 120.445 401.735 57.1569Z" fill="url(#paint3_linear_1049_1709)"/>
<path d="M330.947 195.236C311.636 196.97 334.041 145.016 364.21 131.453C394.379 117.89 419.902 119.041 437.542 104.73C437.542 104.73 426.036 186.698 330.947 195.236Z" fill="url(#paint4_linear_1049_1709)"/>
<path d="M95.4058 149.115H93.7795V318.902H95.4058V149.115Z" fill="url(#paint5_linear_1049_1709)"/>
<path d="M211.047 149.115H209.421V318.902H211.047V149.115Z" fill="#F3F3F3"/>
<path d="M326.688 149.115H325.061V318.902H326.688V149.115Z" fill="#F3F3F3"/>
<path d="M122.291 128.193H94.593V132.618H122.291V128.193Z" fill="#E0E0E0"/>
<path d="M133.883 136.374H94.593V140.8H133.883V136.374Z" fill="#E0E0E0"/>
<path d="M241.507 128.193H208.987V132.618H241.507V128.193Z" fill="white"/>
<path d="M229.78 136.374H208.987V140.8H229.78V136.374Z" fill="white"/>
<path d="M346.839 128.193H326.688V132.618H346.839V128.193Z" fill="white"/>
<path d="M350.175 136.374H326.688V140.8H350.175V136.374Z" fill="white"/>
<path d="M228.632 328.961H210.234V334.862H228.632V328.961Z" fill="white"/>
<path d="M345.086 328.961H326.688V334.862H345.086V328.961Z" fill="white"/>
<path d="M542.547 191.498V201.639C533.987 194.854 525.563 189.719 517.223 186.054C463.094 162.242 412.576 200.007 352.526 245.696C348.118 249.052 343.847 251.943 339.704 254.414C325.288 263.023 312.392 266.534 300.578 266.534C289.259 266.534 278.94 263.315 269.225 258.272C256.082 251.45 244.048 241.3 232.161 231.278C216.488 218.054 200.23 204.53 181.459 197.864C124.168 177.508 94.8579 214.671 94.592 214.999V203.7C94.9035 203.308 100.128 196.559 115.259 190.103C129.025 184.23 152.131 179.551 183.998 190.577C204.189 197.563 220.961 211.716 237.174 225.396C254.688 240.169 270.92 253.858 289.718 257.788H289.727C298.159 259.549 307.113 259.339 316.929 256.366C326.332 253.53 336.533 248.167 347.824 239.568C385.19 211.142 420.412 184.038 455.074 174.143C477.373 167.769 500.296 168.662 522.787 179.387C529.422 182.542 536.021 186.564 542.547 191.498Z" fill="url(#paint6_linear_1049_1709)"/>
<path d="M33.1667 212.277H27.6099V236.152H33.1667V212.277Z" fill="#E0E0E0"/>
<path d="M46.965 202.577H41.408V236.152H46.965V202.577Z" fill="#E0E0E0"/>
<path d="M60.7631 197.516H55.2061V236.152H60.7631V197.516Z" fill="#E0E0E0"/>
<path d="M74.5612 195.408H69.0044V236.152H74.5612V195.408Z" fill="#E0E0E0"/>
<path d="M33.1667 221.173H27.6099V236.152H33.1667V221.173Z" fill="url(#paint7_linear_1049_1709)"/>
<path d="M46.965 215.088H41.408V236.152H46.965V215.088Z" fill="url(#paint8_linear_1049_1709)"/>
<path d="M60.7631 211.913H55.2061V236.152H60.7631V211.913Z" fill="url(#paint9_linear_1049_1709)"/>
<path d="M74.5612 210.59H69.0044V236.152H74.5612V210.59Z" fill="url(#paint10_linear_1049_1709)"/>
<path d="M175.999 343.558H349.956C358.024 343.558 364.565 337.05 364.565 329.022V90.6189C364.565 82.5907 358.024 76.0823 349.956 76.0823H175.999C167.931 76.0823 161.39 82.5907 161.39 90.6189V329.022C161.39 337.05 167.931 343.558 175.999 343.558Z" fill="url(#paint11_linear_1049_1709)"/>
<path d="M352.543 46.6489H183.222C177.804 46.6489 173.412 51.0192 173.412 56.4105V332.256H352.543V46.6489Z" fill="#F5F5F5"/>
<path d="M335.851 100.12H283.033V106.767H335.851V100.12Z" fill="url(#paint12_linear_1049_1709)"/>
<path d="M331.517 127.985H283.033V134.632H331.517V127.985Z" fill="url(#paint13_linear_1049_1709)"/>
<path d="M324.983 114.052H283.033V120.7H324.983V114.052Z" fill="url(#paint14_linear_1049_1709)"/>
<path d="M226.364 142.749C220.364 142.749 214.579 141.508 209.169 139.059C194.342 132.354 184.761 117.553 184.761 101.353C184.761 78.5264 203.424 59.9562 226.364 59.9562C249.304 59.9562 267.967 78.5264 267.967 101.353C267.967 117.553 258.385 132.354 243.558 139.059C238.148 141.508 232.363 142.749 226.364 142.749ZM226.364 62.1416C204.635 62.1416 186.957 79.7316 186.957 101.353C186.957 116.698 196.033 130.718 210.078 137.07C215.201 139.388 220.68 140.563 226.364 140.563C232.048 140.563 237.527 139.388 242.649 137.07C256.695 130.718 265.77 116.698 265.77 101.353C265.77 79.7316 248.093 62.1416 226.364 62.1416Z" fill="url(#paint15_linear_1049_1709)"/>
<path d="M245.45 159.413H184.761V165.34H245.45V159.413Z" fill="#E0E0E0"/>
<path d="M245.45 175.359H184.761V181.286H245.45V175.359Z" fill="#E0E0E0"/>
<path d="M245.45 191.305H184.761V197.232H245.45V191.305Z" fill="#E0E0E0"/>
<path d="M267.966 159.413H257.836V165.34H267.966V159.413Z" fill="#4E7ED6"/>
<path d="M267.966 175.359H257.836V181.286H267.966V175.359Z" fill="#4E7ED6"/>
<path d="M267.966 191.305H257.836V197.232H267.966V191.305Z" fill="#4E7ED6"/>
<path d="M542.547 257.898V266.115C533.84 267.893 525.765 268.459 517.086 268.459C482.854 268.459 452.875 254.479 421.97 239.239C420.311 238.419 418.643 237.598 416.975 236.768C376.621 216.796 334.892 196.149 279.297 201.803C243.791 205.415 221.51 219.806 201.851 232.491C184.044 243.991 167.216 254.095 144.423 254.953C107.588 256.348 94.8026 240.717 94.5918 239.759V229.728C94.6376 229.901 102.593 247.247 143.68 247.247H144.386C164.925 247.137 180.075 237.352 197.626 226.025C218.028 212.856 241.142 197.937 278.508 194.134C336.331 188.252 379.077 209.4 420.421 229.864C424.555 231.907 428.67 233.941 432.785 235.929C467.585 252.782 501.89 266.498 542.547 257.898Z" fill="url(#paint16_radial_1049_1709)"/>
<path d="M385.464 336.651H300.636C290.578 336.651 282.424 328.537 282.424 318.529V171.564C282.424 161.556 290.578 153.442 300.636 153.442H385.464C395.522 153.442 403.676 161.556 403.676 171.564V318.529C403.676 328.537 395.522 336.651 385.464 336.651Z" fill="#F5F5F5"/>
<path d="M389.501 180.692C386.529 172.424 378.589 167.346 370.219 167.597C368.193 167.657 366.142 168.03 364.129 168.746C358.033 170.916 353.661 175.748 351.865 181.456C350.621 185.412 350.613 189.789 352.124 193.993C352.274 194.411 352.437 194.823 352.613 195.224C353.408 197.045 354.451 198.692 355.69 200.14C360.883 206.216 369.502 208.784 377.497 205.939C387.818 202.266 393.192 190.962 389.501 180.692ZM375.823 201.285C369.829 203.418 363.368 201.492 359.474 196.938C358.545 195.852 357.763 194.617 357.167 193.252C357.036 192.95 356.913 192.642 356.8 192.328C355.668 189.176 355.674 185.895 356.607 182.929C357.953 178.649 361.23 175.026 365.801 173.4C367.31 172.863 368.848 172.584 370.367 172.538C376.641 172.349 382.596 176.157 384.824 182.356C387.592 190.056 383.562 198.53 375.823 201.285Z" fill="#E0E0E0"/>
<path d="M356.607 182.93L351.865 181.456C353.661 175.748 358.033 170.916 364.128 168.747C366.141 168.03 368.193 167.658 370.219 167.597L370.367 172.538C368.848 172.584 367.31 172.864 365.801 173.401C361.231 175.026 357.953 178.649 356.607 182.93Z" fill="#537FFD"/>
<path d="M357.168 193.251L352.613 195.224C352.437 194.823 352.274 194.411 352.124 193.993C350.613 189.789 350.621 185.412 351.865 181.456L356.607 182.929C355.674 185.895 355.668 189.177 356.801 192.329C356.914 192.642 357.036 192.95 357.168 193.251Z" fill="#4BA6F3"/>
<path d="M355.689 200.14C354.45 198.692 353.407 197.045 352.612 195.225L357.167 193.252C357.763 194.617 358.545 195.853 359.474 196.938L355.689 200.14Z" fill="#46BBED"/>
<path d="M370.637 295.291H359.938V330.197H370.637V295.291Z" fill="#46BBED"/>
<path d="M354.732 305.081H344.033V330.197H354.732V305.081Z" fill="#46BBED"/>
<path d="M386.067 279.113H375.368V330.197H386.067V279.113Z" fill="#46BBED"/>
<path d="M298.623 291.694L297.693 290.983L315.127 268.411L336.644 269.573L352.87 243.863L370.35 242.068L380.853 221.396L381.9 221.922L371.107 243.163L353.559 244.965L337.27 270.775L315.68 269.61L298.623 291.694Z" fill="#46BBED"/>
<path d="M331.596 179.453H301.171C299.25 179.453 297.693 177.903 297.693 175.992C297.693 174.081 299.25 172.531 301.171 172.531H331.596C333.517 172.531 335.074 174.081 335.074 175.992C335.074 177.903 333.517 179.453 331.596 179.453Z" fill="#4E7ED6"/>
<path d="M331.596 191.527H301.171C299.25 191.527 297.693 189.977 297.693 188.066C297.693 186.155 299.25 184.605 301.171 184.605H331.596C333.517 184.605 335.074 186.155 335.074 188.066C335.074 189.977 333.517 191.527 331.596 191.527Z" fill="#E0E0E0"/>
<path d="M331.596 203.601H301.171C299.25 203.601 297.693 202.052 297.693 200.14C297.693 198.229 299.25 196.679 301.171 196.679H331.596C333.517 196.679 335.074 198.229 335.074 200.14C335.074 202.052 333.517 203.601 331.596 203.601Z" fill="#E0E0E0"/>
<path d="M52.7229 276.192H64.9712L61.2222 268.455H48.9739L52.7229 276.192Z" fill="url(#paint17_linear_1049_1709)"/>
<path d="M46.9914 276.192H49.9101L46.1611 268.455H43.2422L46.9914 276.192Z" fill="url(#paint18_linear_1049_1709)"/>
<path d="M260.628 27.3943H284.877V23.0235H260.628V27.3943Z" fill="url(#paint19_linear_1049_1709)"/>
<path d="M260.628 21.8061H284.877V20.9836H260.628V21.8061Z" fill="url(#paint20_linear_1049_1709)"/>
<path d="M231.785 78.6703H220.943V124.035H231.785V78.6703Z" fill="url(#paint21_linear_1049_1709)"/>
<path d="M203.568 106.746V95.9588H249.159V106.746H203.568Z" fill="url(#paint22_linear_1049_1709)"/>
<path d="M67.6606 121.734C57.2644 116.839 45.2427 119.442 37.7611 127.347C35.9498 129.262 34.4049 131.486 33.213 133.992C29.6043 141.582 30.0506 150.044 33.6823 156.952C36.1994 161.739 40.2462 165.78 45.533 168.269C46.0584 168.516 46.5902 168.746 47.1234 168.955C49.5427 169.905 52.0298 170.466 54.5125 170.665C64.9264 171.501 75.2475 165.964 79.9811 156.011C86.0914 143.16 80.5753 127.814 67.6606 121.734ZM74.1287 153.255C70.5803 160.718 62.8422 164.869 55.0345 164.243C53.1735 164.093 51.3082 163.673 49.4945 162.96C49.0943 162.803 48.6958 162.631 48.3013 162.446C44.3378 160.58 41.3044 157.55 39.4176 153.961C36.6939 148.782 36.3588 142.438 39.0652 136.748C39.9581 134.869 41.117 133.201 42.4742 131.766C48.0822 125.838 57.0965 123.887 64.8913 127.557C74.5744 132.115 78.7092 143.62 74.1287 153.255Z" fill="#E0E0E0"/>
<path d="M39.4176 153.961L33.6826 156.951C30.0508 150.044 29.6046 141.582 33.2132 133.992C34.4049 131.486 35.9498 129.261 37.7613 127.347L42.4744 131.765C41.1172 133.201 39.9584 134.869 39.0654 136.748C36.3588 142.438 36.6939 148.781 39.4176 153.961Z" fill="#2D5BAD"/>
<path d="M49.4945 162.96L47.1237 168.955C46.5905 168.746 46.0587 168.516 45.5333 168.269C40.2465 165.78 36.1997 161.739 33.6826 156.952L39.4176 153.961C41.3044 157.55 44.3381 160.58 48.3013 162.446C48.6959 162.631 49.0943 162.802 49.4945 162.96Z" fill="#5D96FF"/>
<path d="M54.5128 170.665C52.0299 170.466 49.5428 169.905 47.1238 168.955L49.4946 162.96C51.3083 163.672 53.1736 164.093 55.0346 164.242L54.5128 170.665Z" fill="#5D96FF"/>
<path d="M48.649 187.63H0.343506V186.675H47.6888V166.312H48.649V187.63Z" fill="#5D96FF"/>
<path d="M25.7702 176.732H0.343262V182.464H25.7702V176.732Z" fill="#E0E0E0"/>
<path d="M181.564 270.768H142.082V273.1H181.564V270.768Z" fill="#E2D2CA"/>
<path d="M147.373 385.229H150.832V279.169H147.373V385.229Z" fill="#706865"/>
<path d="M202.829 270.107H175.385V273.437H202.829V270.107Z" fill="#CCBDB7"/>
<path d="M194.303 241.691H183.911V273.1H194.303V241.691Z" fill="#998E89"/>
<path d="M279.976 273.139H127.918V279.169H279.976V273.139Z" fill="#B59074"/>
<path d="M98.7346 236.639C98.7346 236.639 97.0716 259.846 101.628 262.623C104.483 264.363 115.865 270.231 115.528 271.332C115.19 272.432 109.101 281.123 109.101 281.123C109.101 281.123 87.2379 266.797 86.5331 262.283C85.8443 257.872 87.6093 228.304 90.6137 226.942C92.8646 225.922 94.0527 226.765 96.8893 228.861C100.871 231.802 98.7346 236.639 98.7346 236.639Z" fill="#F5F5F5"/>
<path d="M125.634 370.748C125.634 370.748 124.954 375.443 124.869 376.149C124.784 376.854 117.306 375.733 117.306 375.733L116.701 370.143C116.701 370.143 124.699 370.086 125.634 370.748Z" fill="#424773"/>
<path d="M124.949 375.552C124.949 375.552 127.318 378.381 129.609 379.615C131.901 380.848 135.502 381.336 136.857 382.613C137.835 383.534 140.42 387.501 130.902 387.421C121.385 387.341 116.796 387.982 115.776 386.461C114.757 384.94 117.252 375.234 117.252 375.234C117.252 375.234 119.506 376.041 124.949 375.552Z" fill="#292C47"/>
<path d="M173.544 370.792C173.544 370.792 172.865 375.488 172.78 376.193C172.695 376.899 165.217 375.778 165.217 375.778L164.611 370.188C164.611 370.188 172.61 370.13 173.544 370.792Z" fill="#424773"/>
<path d="M172.859 375.596C172.859 375.596 175.229 378.426 177.52 379.659C179.812 380.892 188.245 381.905 189.6 383.182C190.578 384.103 192.204 387.813 178.813 387.466C169.299 387.219 164.707 388.026 163.687 386.505C162.668 384.984 165.163 375.278 165.163 375.278C165.163 375.278 167.286 376.14 172.859 375.596Z" fill="#292C47"/>
<path d="M101.515 289.637C101.515 289.637 128.702 294.215 134.842 295.174C140.982 296.134 174.277 304.378 178.441 306.89C181.756 308.889 176.703 356.912 175.522 375.234H162.408L161.458 320.273C145.721 320.665 134.491 316.61 123.031 318.342C111.572 320.074 102.018 322.536 94.736 312.817C94.736 312.817 94.466 291.76 101.515 289.637Z" fill="#292C47"/>
<path d="M128.312 375.278L115.532 374.492L114.286 320.274C107.511 320.442 105.189 320.015 99.7069 319.353L89.3884 295.488C98.4315 297.287 127.405 304.558 131.269 306.889C134.582 308.89 129.492 356.955 128.312 375.278Z" fill="#292C47"/>
<path d="M114.029 188.236C114.029 188.236 123.996 185.495 127.798 193.193C131.6 200.891 129.876 215.486 124.854 216.859C119.831 218.232 112.608 216.651 110.522 211.859C108.437 207.068 106.774 200.26 107.273 195.851C107.772 191.442 111.383 189.289 114.029 188.236Z" fill="#EEA886"/>
<path d="M122.25 215.323C122.25 215.323 122.14 221.177 122.789 222.425C123.437 223.673 108.911 223.36 108.911 223.36C108.911 223.36 111.2 216.33 109.902 210.34C108.616 204.412 122.25 215.323 122.25 215.323Z" fill="#EEA886"/>
<path d="M109.119 208.123C109.119 208.123 109.895 209.694 113.655 209.441C117.416 209.187 122.375 204.674 123.971 204.27C125.568 203.867 125.662 202.963 125.662 202.963L126.507 204.457L128.143 204.705C128.143 204.705 127.032 200.181 129.453 198.588C131.875 196.995 128.362 184.166 116.102 187.261C116.102 187.261 106.744 188.966 106.619 194.165C106.493 199.364 107.303 205.369 109.119 208.123Z" fill="#3A3F47"/>
<path d="M123.552 222.275C123.552 222.275 123.512 219.89 122.425 219.662C121.339 219.433 111.006 218.019 109.673 218.541L109.101 221.689C109.101 221.689 111.671 223.263 123.552 222.275Z" fill="#E2D2CA"/>
<path d="M126.542 201.897C126.263 199.942 124.03 197.697 122.751 200.741C121.472 203.786 123.614 208.219 125.049 207.981C126.484 207.744 126.921 204.549 126.542 201.897Z" fill="#EEA886"/>
<path d="M166.831 250.452C166.825 250.449 166.82 250.449 166.812 250.45C166.89 250.483 166.9 250.485 166.831 250.452Z" fill="#323657"/>
<path d="M111.123 189.631C111.123 189.631 98.9712 189.062 109.002 207.938L111.123 189.631Z" fill="#3A3F47"/>
<path d="M84.0479 381.71L84.9518 384.24L123.146 372.464L121.315 367.341L84.0479 381.71Z" fill="#918783"/>
<path d="M124.456 329.343H120.115V370.662H124.456V329.343Z" fill="#918783"/>
<path d="M135.088 327.147H109.483V329.582H135.088V327.147Z" fill="#5E5854"/>
<path d="M160.859 381.71L159.955 384.24L121.761 372.464L123.439 367.019L160.859 381.71Z" fill="#918783"/>
<path d="M133.949 383.969V386.912L121.761 372.464L123.439 367.019L133.949 383.969Z" fill="#918783"/>
<path d="M160.859 388.781C162.83 388.781 164.429 387.191 164.429 385.229C164.429 383.267 162.83 381.677 160.859 381.677C158.888 381.677 157.29 383.267 157.29 385.229C157.29 387.191 158.888 388.781 160.859 388.781Z" fill="#BFB2AC"/>
<path d="M130.682 388.781C132.653 388.781 134.252 387.191 134.252 385.229C134.252 383.267 132.653 381.677 130.682 381.677C128.711 381.677 127.113 383.267 127.113 385.229C127.113 387.191 128.711 388.781 130.682 388.781Z" fill="#BFB2AC"/>
<path d="M84.0479 388.781C86.0192 388.781 87.6173 387.191 87.6173 385.229C87.6173 383.267 86.0192 381.677 84.0479 381.677C82.0766 381.677 80.4785 383.267 80.4785 385.229C80.4785 387.191 82.0766 388.781 84.0479 388.781Z" fill="#BFB2AC"/>
<path d="M148.607 327.147H96.3C93.9935 327.147 92.1238 325.287 92.1238 322.992V322.08C92.1238 319.785 93.9935 317.925 96.3 317.925H148.607C150.913 317.925 152.783 319.785 152.783 322.08V322.992C152.783 325.287 150.913 327.147 148.607 327.147Z" fill="#E2D2CA"/>
<path d="M260.521 279.169H257.062V385.229H260.521V279.169Z" fill="#706865"/>
<path d="M229.81 256.821H148.403C146.102 256.821 144.237 254.965 144.237 252.676V197.974C144.237 195.685 146.102 193.829 148.403 193.829H229.81C232.111 193.829 233.976 195.685 233.976 197.974V252.676C233.976 254.965 232.111 256.821 229.81 256.821Z" fill="#B8ABA5"/>
<path d="M230.462 197.234H147.752V246.95H230.462V197.234Z" fill="#F5F7FF"/>
<path d="M226.787 251.64C226.787 253.053 225.294 254.199 223.453 254.199C221.612 254.199 220.119 253.053 220.119 251.64C220.119 250.226 221.612 249.08 223.453 249.08C225.294 249.08 226.787 250.226 226.787 251.64Z" fill="#918681"/>
<path d="M207.684 273.219V272.098C207.684 272.098 206.101 265.126 194.898 265.126C183.695 265.126 183.922 273.219 183.922 273.219H207.684Z" fill="#998E89"/>
<path d="M183.786 266.162C183.786 266.162 186.22 265.974 187.112 265.439C188.003 264.903 193.338 261.334 194.591 261.905C195.844 262.477 204.183 265.018 203.893 266.232C203.604 267.445 202.832 267.328 202.244 267.114C201.655 266.899 195.6 265.634 195.066 265.847C195.066 265.847 201.014 268.006 201.038 269.581C201.062 271.157 199.793 271.541 199.229 272.136C198.665 272.732 197.988 274.211 196.455 274.325C194.922 274.438 187.444 271.849 185.904 271.731C184.364 271.613 181.514 271.826 181.321 271.576C181.127 271.327 183.786 266.162 183.786 266.162Z" fill="#EEA886"/>
<path d="M139.48 225.58C131.72 224.223 123.553 222.275 123.553 222.275L109.101 221.689C109.101 221.689 95.8376 224.594 90.6139 226.942C90.1185 227.164 90.1162 238.715 88.7566 241.744L93.0873 250.835C93.0873 250.835 95.5893 268.844 96.1081 276.853C96.3467 280.529 95.4342 312.386 95.4342 312.386C95.4342 312.386 96.7325 313.023 106.596 314.105C116.459 315.187 141.102 313.714 141.258 312.555C141.414 311.396 136.485 269.393 136.267 267.217C135.932 263.879 137.236 248.453 137.236 248.453C139.094 250.936 143.832 262.154 148.77 267.49C151.675 270.63 166.058 272.555 168.769 272.645C174.67 272.84 185.436 274.009 185.751 273.438C186.002 273.095 186.689 263.93 186.014 263.706C185.423 263.51 165.432 262.365 160.31 259.661C158.436 258.671 152.835 246.518 152.835 246.518C152.835 246.518 143.76 227.494 139.48 225.58Z" fill="#DBDFF0"/>
<path d="M111.766 311.465H85.9719C81.5435 311.465 77.9534 307.893 77.9534 303.487V261.795C77.9534 257.389 81.5435 253.816 85.9719 253.816H111.766C116.195 253.816 119.785 257.389 119.785 261.795V303.487C119.785 307.893 116.195 311.465 111.766 311.465Z" fill="#E2D2CA"/>
<path d="M112.373 324.852C106.206 324.852 101.204 322.791 97.5036 318.726C89.1414 309.539 90.6439 293.39 90.7121 292.707C90.8394 291.435 91.9809 290.504 93.2577 290.631C94.5362 290.758 95.4701 291.891 95.3443 293.162C95.3265 293.347 93.9942 307.985 100.963 315.626C103.782 318.717 107.514 320.22 112.373 320.22C113.658 320.22 114.7 321.257 114.7 322.535C114.7 323.814 113.658 324.852 112.373 324.852Z" fill="#E2D2CA"/>
<path d="M177.246 203.82H154.213C153.883 203.82 153.616 203.554 153.616 203.226V201.788C153.616 201.46 153.883 201.194 154.213 201.194H177.246C177.576 201.194 177.844 201.46 177.844 201.788V203.226C177.844 203.554 177.576 203.82 177.246 203.82Z" fill="#DFE1E8"/>
<path d="M177.246 209.454H154.213C153.883 209.454 153.616 209.188 153.616 208.86V207.422C153.616 207.093 153.883 206.828 154.213 206.828H177.246C177.576 206.828 177.844 207.094 177.844 207.422V208.86C177.844 209.188 177.576 209.454 177.246 209.454Z" fill="#DFE1E8"/>
<path d="M175.835 242.99H155.624C154.515 242.99 153.616 242.095 153.616 240.992V215.287C153.616 214.184 154.515 213.289 155.624 213.289H175.835C176.945 213.289 177.844 214.184 177.844 215.287V240.992C177.844 242.095 176.945 242.99 175.835 242.99Z" fill="#DFE1E8"/>
<path d="M222.701 242.99H185.914C184.158 242.99 182.735 241.573 182.735 239.827V204.357C182.735 202.61 184.158 201.194 185.914 201.194H222.701C224.457 201.194 225.88 202.61 225.88 204.357V239.827C225.88 241.573 224.457 242.99 222.701 242.99Z" fill="#DFE1E8"/>
<path d="M331.866 226.13C331.866 226.13 333.475 222.668 333.738 222.146C334 221.625 335.538 220.797 337.366 220.339C339.141 219.894 341.556 219.002 341.832 219.173C342.107 219.345 342.43 219.369 342.758 220.132C343.087 220.895 342.943 221.719 342.943 221.719C342.943 221.719 343.792 222.47 343.537 223.473C343.537 223.473 344.304 224.216 343.828 225.308C343.828 225.308 344.556 226.053 344.143 226.817C344.143 226.817 342.717 227.622 342.277 228.072C341.836 228.521 338.756 229.993 335.584 230.953C335.584 230.953 332.279 230.85 331.866 226.13Z" fill="#8E4F3A"/>
<path d="M335.583 230.953C335.583 230.953 331.649 231.636 330.314 230.872C328.98 230.108 330.533 226.119 330.533 226.119L333.025 224.621L335.583 230.953Z" fill="#8E4F3A"/>
<path d="M337.044 224.453C337.044 224.453 336.984 226.368 336.694 226.897C336.404 227.427 340.323 228.251 340.323 228.251C340.323 228.251 339.382 224.587 337.044 224.453Z" fill="#5E3527"/>
<path d="M341.338 219.339C341.338 219.339 337.04 221.416 337.291 222.147C337.541 222.877 338.079 222.994 338.079 222.994L336.699 224.647C336.699 224.647 336.408 226.255 338.253 226.102C338.253 226.102 337.823 227.575 339.587 227.216C339.587 227.216 339.74 228.314 340.587 228.291C341.433 228.268 344.143 226.818 344.143 226.818C344.143 226.818 344.634 226.23 343.885 225.283C343.885 225.283 344.417 224.259 343.608 223.443C343.608 223.443 343.855 222.123 342.974 221.25C342.974 221.25 343.063 219.777 341.795 219.153C341.795 219.153 341.518 219.251 341.338 219.339Z" fill="#7A4432"/>
<path d="M333.865 222.067C333.865 222.067 337.143 222.136 338.917 222.956C339.318 223.142 339.672 223.394 339.65 223.835C339.629 224.275 338.96 224.803 337.538 224.845C336.116 224.887 334.298 225.588 334.298 225.588C334.298 225.588 332.825 225.206 333.865 222.067Z" fill="#8E4F3A"/>
<path d="M342.974 221.25C342.974 221.25 338.067 222.92 337.733 223.324C337.399 223.727 336.769 221.946 337.079 221.621C337.389 221.295 341.207 219.269 341.628 219.157C342.049 219.045 343.491 220.025 342.974 221.25Z" fill="#8E4F3A"/>
<path d="M340.714 219.361C340.714 219.361 348.354 217.803 348.51 218.729C348.666 219.655 347.925 219.811 341.665 221.629C335.577 223.396 340.714 219.361 340.714 219.361Z" fill="#8E4F3A"/>
<path d="M288.214 375.277C288.214 375.277 290.648 378.901 294.064 379.684C297.479 380.467 300.843 381.713 300.869 383.858C300.894 386.002 290.994 387.281 287.086 385.119C281.253 381.892 280.66 382.865 280.013 381.252C279.367 379.639 280.79 375.326 280.748 374.813C280.696 374.179 288.214 375.277 288.214 375.277Z" fill="#353A3D"/>
<path d="M287.835 373.489C287.835 373.489 288.279 375.239 288.213 375.277C288.147 375.313 280.517 376.218 280.748 374.813C280.935 373.674 281.202 372.435 281.202 372.435L287.835 373.489Z" fill="#81807E"/>
<path d="M262.535 375.036C262.535 375.036 264.271 378.503 267.239 379.684C270.411 380.947 272.954 382.398 272.896 384.487C272.839 386.577 265.143 388.695 259.544 384.684C256.006 382.15 254.885 382.138 254.318 380.543C253.75 378.947 255.303 374.801 255.282 374.3C255.256 373.68 262.535 375.036 262.535 375.036Z" fill="#353A3D"/>
<path d="M262.621 373.236C262.621 373.236 262.6 375.003 262.534 375.036C262.469 375.07 255.094 375.675 255.281 374.299C255.43 373.207 255.997 371.888 255.997 371.888L262.621 373.236Z" fill="#81807E"/>
<path d="M289.661 267.32C289.661 267.32 296.512 297.391 298.077 306.551C299.409 314.347 300.47 322.465 299.832 328.093C299.042 335.061 289.13 371.172 289.544 373.215C289.958 375.258 277.726 374.016 277.726 374.016C277.726 374.016 286.71 333.261 285.204 325.764C284.089 320.211 274.316 283.325 272.818 285.217C271.321 287.109 269.463 320.029 268.354 325.494C267.245 330.958 263.84 374.137 263.84 374.137C263.84 374.137 256.226 375.255 254.193 373.542C254.193 373.542 253.267 336.673 253.974 326.428C254.243 322.523 249.376 279.613 255.617 262.337C258.915 253.208 289.661 267.32 289.661 267.32Z" fill="#2D3133"/>
<path d="M334.405 232.435C334.405 232.435 310.669 237.672 305.946 236.515C303.763 235.981 300.887 232.982 298.154 229.457C297.253 228.295 296.37 227.077 295.529 225.871C295.527 225.868 295.527 225.866 295.527 225.866C292.174 221.049 289.547 216.432 289.547 216.432C289.547 216.432 279.637 204.876 287.589 199.724C287.589 199.724 290.475 198.648 293.126 201.474C295.778 204.301 298.89 210.214 299.585 211.723C300.28 213.228 310.015 227.199 310.519 227.514C311.023 227.829 315.277 226.715 318.688 226.433C324.248 225.971 332.582 223.816 332.582 223.816L334.405 232.435Z" fill="#DBDFF0"/>
<path d="M280.151 197.146C280.151 197.146 290.353 199.245 291.563 200.312C292.877 201.447 295.195 212.565 295.333 215.663C295.472 218.76 294.103 231.697 292.789 236.515C291.475 241.332 291.717 265.061 292.547 271.737C292.547 271.737 272.005 277.542 251.808 274.927C251.808 274.927 255.194 249.963 254.386 243.361C253.35 234.904 250.858 215.418 250.858 215.418C250.858 215.418 252.646 201.845 254.445 200.331C256.243 198.817 268.634 197.146 268.634 197.146H280.151V197.146Z" fill="#BCC0CF"/>
<path d="M275.933 165.757C275.933 165.757 288.205 161.238 287.438 177.466C286.671 193.693 283.795 195.342 275.722 193.076C267.649 190.81 266.973 180.568 265.922 175.641C264.87 170.714 271.92 166.465 275.933 165.757Z" fill="#8E4F3A"/>
<path d="M281.756 199.343C281.756 199.343 279.23 201.005 269.654 196.807C269.654 196.807 269.925 190.275 268.046 184.173C266.168 178.072 280.897 192.308 280.897 192.308C280.742 192.417 280.713 193.027 280.801 193.878C280.876 194.599 281.034 195.492 281.274 196.399C281.811 198.439 281.756 197.562 281.756 199.343Z" fill="#8E4F3A"/>
<path d="M267.627 183.69C267.627 183.69 267.592 179.355 269.404 178.956C271.216 178.557 271.455 177.115 271.455 177.115L272.494 177.355C272.494 177.355 272.304 176.592 274.031 175.584C275.758 174.577 286.09 175.462 287.387 173.983C288.684 172.504 286.803 163.72 283.984 162.858C281.166 161.996 274.617 162.075 268.635 163.747C268.635 163.747 264.092 164.887 263.749 170.207C263.526 173.651 266.153 181.339 267.627 183.69Z" fill="#2D3133"/>
<path d="M281.274 196.399C271.762 194.808 270.34 189.425 270.319 189.341C274.016 194.086 280.801 193.877 280.801 193.877C280.876 194.598 281.034 195.492 281.274 196.399Z" fill="#633029"/>
<path d="M280.854 201.474C280.854 201.474 282.586 204.017 283.632 210.543C284.677 217.07 284.5 228.314 284.5 228.314L282.091 228.606C282.091 228.606 278.446 205.674 279.073 201.679L280.854 201.474Z" fill="#434343"/>
<path d="M271.455 177.115C270.912 175.685 267.852 175.866 268.165 178.132C268.478 180.4 271.008 183.891 272.024 183.236C273.04 182.581 272.202 179.087 271.455 177.115Z" fill="#8E4F3A"/>
<path d="M291.694 200.301C291.694 200.301 297.49 207.932 295.343 227.898C291.463 263.977 301.625 321.894 301.625 321.894L291.141 325.159C291.141 325.159 281.122 251.121 283.674 224.251C284.836 212.006 288.287 207.932 282.843 197.73C282.843 197.73 288.144 197.997 291.694 200.301Z" fill="#DBDFF0"/>
<path d="M265.816 197.562C265.816 197.562 282.41 214.241 283.709 226.885C285.009 239.529 287.126 325.159 287.126 325.159L247.62 322.87C247.62 322.87 251.251 277.668 252.137 272.013C253.023 266.359 254.857 233.891 250.858 218.826C248.71 210.732 251.266 200.464 256.174 199.343C261.081 198.222 265.816 197.562 265.816 197.562Z" fill="#DBDFF0"/>
<path d="M260.208 199.723C260.208 199.723 266.599 201.474 263.082 213.146C260.329 222.287 259.957 224.251 259.957 224.251L245.21 220.585C245.21 220.585 249.534 200.505 256.59 199.425C256.59 199.425 258.837 199.107 260.208 199.723Z" fill="#DBDFF0"/>
<path d="M308.552 261.497L279.646 291.261L260.447 272.801L288.603 242.315L308.552 261.497Z" fill="#616161"/>
<path d="M305.819 262.089L280.147 288.524L263.096 272.128L288.102 245.053L305.819 262.089Z" fill="#E0CEC7"/>
<path d="M299.904 257.671L301.706 255.816L294.812 249.188L292.741 250.784L299.904 257.671Z" fill="#616161"/>
<path d="M269.658 195.001C269.658 195.001 274.663 198.006 279.617 198.683L276.981 202.865L268.634 197.146L269.658 195.001Z" fill="#A7AAB8"/>
<path d="M281.274 196.399C281.274 196.399 280.746 198.121 279.617 198.683L282.091 202.116L282.001 197.562L281.274 196.399Z" fill="#A7AAB8"/>
<path d="M279.617 198.683L281.576 201.401C281.576 201.401 280.337 202.962 277.666 201.779L279.617 198.683Z" fill="#434343"/>
<path d="M298.155 229.454V229.457C297.254 228.295 296.37 227.077 295.53 225.871C295.527 225.868 295.527 225.866 295.527 225.866C295.527 225.866 295.843 217.068 295.567 214.541C295.567 214.541 298.456 224.018 298.155 229.454Z" fill="#A7AAB8"/>
<path d="M257.433 223.623C257.433 223.623 255.506 236.099 255.641 236.899C255.776 237.699 246.919 234.393 257.433 223.623Z" fill="#A7AAB8"/>
<path d="M292.234 219.159H287.577V226.234H292.234V219.159Z" fill="#C6CAD9"/>
<path d="M271.534 253.078C271.534 253.078 271.96 253.917 272.669 254.2C273.892 254.689 275.848 253.913 276.605 255.656C277.362 257.398 272.482 261.489 271.259 261.701C270.035 261.914 268.303 259.922 267.173 256.08C266.044 252.238 271.534 253.078 271.534 253.078Z" fill="#8E4F3A"/>
<path d="M276.265 255.108C276.265 255.108 278.366 256.977 280.443 259.353C282.265 261.437 284.019 264.238 283.705 264.766C283.008 265.94 281.313 263.317 279.365 261.377C277.572 259.591 277.868 259.903 277.868 259.903C277.868 259.903 277.866 259.713 279.431 262.055C281.115 264.573 282.582 267.334 282.184 267.947C281.99 268.246 281.206 268.976 280.83 267.772C281.166 268.335 281.226 268.197 281.001 268.368C279.837 269.252 276.777 265.958 275.562 264.65C276.489 265.661 277.058 266.506 276.008 266.592C274.807 266.69 270.695 261.83 269.052 260.237C267.26 258.499 276.265 255.108 276.265 255.108Z" fill="#8E4F3A"/>
<path d="M260.972 200.505C262.309 201.02 262.816 203.383 262.266 210.231C261.717 217.078 259.294 220.229 258.39 221.812C257.486 223.396 252.515 233.161 253.409 234.445C254.302 235.73 262.742 244.015 263.23 244.689C263.719 245.364 273.142 253.851 273.142 253.851L268.344 260.522C268.344 260.522 247.997 244.707 246.41 243.128C244.822 241.55 240.077 238.232 241.832 232.716C243.616 227.111 246.822 213.987 247.391 212.961C247.96 211.935 252.127 197.097 260.972 200.505Z" fill="#DBDFF0"/>
<path d="M436.574 361.924C436.574 361.924 435.864 363.594 434.523 365.334C433.541 366.611 430.484 371.851 429.137 372.217C427.791 372.582 423.628 373.313 423.261 375.627C422.894 377.941 422.71 379.586 426.811 379.769C430.912 379.951 433.605 380.195 435.564 377.332C437.523 374.47 440.644 372.399 440.644 372.399V379.868H442.236C442.236 379.868 442.97 372.095 443.398 371.547C443.827 370.999 444.929 365.03 441.134 361.924C437.339 358.818 436.574 361.924 436.574 361.924Z" fill="#163342"/>
<path d="M429.137 372.217C429.137 372.217 432.809 373.131 434.218 372.217C435.625 371.303 440.411 363.254 441.997 362.772C441.997 362.772 440.461 359.671 436.574 361.924C436.574 361.924 430.178 370.877 429.137 372.217Z" fill="#EEA886"/>
<path d="M437.538 181.795C437.538 181.795 429.62 198.407 435.071 199.4C442.555 200.764 445.583 187.005 445.583 187.005L437.538 181.795Z" fill="#163342"/>
<path d="M394.299 223.064C394.299 223.064 391.824 222.291 391.624 220.832C391.455 219.59 390.335 218.108 389.991 217.651C389.531 217.04 388.821 214.64 388.04 215.21C387.26 215.78 389.019 219.222 389.243 220.017C389.467 220.812 386.082 219.299 385.244 219.507C384.406 219.715 382.205 225.438 384.65 226.208C387.094 226.979 390.217 226.198 390.62 226.418C391.023 226.638 392.376 227.049 392.376 227.049L394.299 223.064Z" fill="#EEA886"/>
<path d="M385.857 219.553C385.857 219.553 378.216 217.688 377.602 217.987C376.989 218.287 376.911 218.705 377.618 218.909C378.325 219.113 384.949 220.925 384.949 220.925C384.949 220.925 375.532 220.228 374.975 220.364C374.649 220.444 374.452 221.245 374.82 221.389C375.188 221.533 384.482 222.754 384.482 222.754C384.482 222.754 375.689 222.12 375.257 222.372C374.879 222.593 374.883 223.372 375.532 223.464C376.18 223.555 384.309 224.603 384.309 224.603C384.309 224.603 377.879 224.542 377.641 224.969C377.495 225.231 377.292 225.915 378.951 225.879C380.611 225.843 384.535 226.168 384.535 226.168L385.857 219.553Z" fill="#EEA886"/>
<path d="M457.103 366.766C457.103 366.766 453.002 372.826 451.349 374.288C451.349 374.288 447.677 375.628 447.31 378.185C446.943 380.744 447.004 382.45 451.349 382.572C455.695 382.694 458.544 381.917 459.34 379.298C460.136 376.679 461.877 374.897 461.877 374.897V380.378H462.857C462.857 380.378 463.102 375.079 463.163 374.105C463.224 373.131 463.866 369.384 461.8 367.725C459.735 366.066 457.103 366.766 457.103 366.766Z" fill="#163342"/>
<path d="M459.857 249.8C459.857 249.8 465.036 256.5 466.44 264.447C467.845 272.395 465.611 299.071 465.672 303C465.733 306.928 469.406 316.703 468.672 324.103C467.937 331.503 465.038 368.333 465.038 368.333L457.103 366.766C457.103 366.766 457.562 329.219 457.103 326.112C456.644 323.006 455.723 311.684 455.539 310.405C455.355 309.127 443.882 275.543 443.882 269.812C443.882 264.082 447.371 240.451 459.857 249.8Z" fill="#2D3133"/>
<path d="M433.844 252.419C433.844 252.419 425.336 284.728 424.326 289.205C423.316 293.681 421.853 297.373 421.853 299.274C421.853 303.684 423.5 310.765 423.5 310.765L434.303 362.179H444.593C444.593 362.179 438.86 331.334 438.706 325.302C438.551 319.258 433.875 310.674 434.793 308.116C435.711 305.558 449.574 276.05 449.574 276.05C449.574 276.05 460.071 243.04 433.844 252.419Z" fill="#2D3133"/>
<path d="M451.349 374.288C451.349 374.288 455.548 376.624 458.253 373.624C460.536 371.092 461.8 367.725 461.8 367.725L457.103 366.766L451.349 374.288Z" fill="#EEA886"/>
<path d="M437.358 197.513C437.358 197.513 433.85 197.842 431.2 200.668C428.549 203.493 426.062 207.999 425.368 209.506C424.673 211.013 414.943 224.98 414.438 225.293C413.933 225.608 409.681 224.495 406.273 224.212C400.713 223.751 392.394 220.933 392.394 220.933L391.159 227.185C391.159 227.185 411.617 233.754 416.338 232.596C422.111 231.181 435.402 214.216 435.402 214.216C435.402 214.216 445.309 202.662 437.358 197.513Z" fill="#DBDFF0"/>
<path d="M443.479 195.064C443.479 195.064 438.935 197.199 437.358 197.513C435.78 197.827 429.659 205.739 428.586 208.627C427.514 211.516 428.586 215.848 430.795 220.935C433.004 226.021 430.921 227.716 431.931 232.802C432.941 237.888 432.616 256.916 432.427 259.741C432.237 262.567 461.964 266.85 467.833 261.701C467.833 261.701 463.86 244.553 459.155 239.659C458.138 238.6 458.246 231.546 458.94 229.788C459.634 228.03 467.459 214.906 467.459 214.906C467.459 214.906 468.034 201.596 464.619 198.957C461.653 196.665 453.57 195.848 452.119 195.346C450.667 194.843 446.445 194.624 443.479 195.064Z" fill="#2F4563"/>
<path d="M441.311 189.847C441.311 189.847 442.217 198.141 442.028 200.841C442.028 200.841 446.748 205.549 452.118 195.346C452.118 195.346 449.859 191.14 451.56 185.41C453.261 179.68 441.311 189.847 441.311 189.847Z" fill="#EEA886"/>
<path d="M428.095 222.81C428.095 222.81 426.958 215.288 428.167 210.714C428.167 210.714 428.167 214.648 430.334 220.233L428.095 222.81Z" fill="#AAADBA"/>
<path d="M455.259 174.287C455.259 174.287 456.301 173.042 456.689 174.295C457.078 175.549 455.805 179.276 455.665 179.815C455.665 179.815 455.034 181.907 454.782 181.64C454.53 181.373 455.259 174.287 455.259 174.287Z" fill="#EEA987"/>
<path d="M437.061 174.442C437.061 174.442 436.02 173.197 435.631 174.451C435.243 175.704 436.515 179.431 436.655 179.97C436.655 179.97 437.286 182.062 437.538 181.795C437.791 181.528 437.061 174.442 437.061 174.442Z" fill="#EEA987"/>
<path d="M444.525 162.372C444.525 162.372 434.964 163.836 436.364 178.823C437.763 193.81 446.202 192.62 446.766 192.608C447.33 192.595 455.232 192.919 455.916 174.632C455.916 174.632 456.234 161.109 444.525 162.372Z" fill="#EEA987"/>
<path d="M454.081 173.736C454.081 173.736 443.469 176.876 438.388 175.872C438.388 175.872 438.064 177.737 437.335 177.852C436.605 177.967 436.232 174.287 436.232 174.287C436.232 174.287 435.984 162.1 447.063 161.985C458.143 161.871 455.892 175.186 455.892 175.186L455.742 177.462C455.741 177.461 454.155 178.085 454.081 173.736Z" fill="#163342"/>
<path d="M450.526 191.177C450.526 191.177 447.178 194.334 442.028 191.437C442.028 191.437 443.549 193.966 446.436 193.902C449.323 193.838 450.526 191.177 450.526 191.177Z" fill="#A77860"/>
<path d="M455.746 196.071C455.746 196.071 452.498 205.615 443.581 204.913C434.664 204.211 439.354 196.854 439.354 196.854C439.354 196.854 441.576 195.586 442.202 195.466C442.828 195.346 452.061 195.23 452.061 195.23L455.746 196.071Z" fill="#EEA886"/>
<path d="M439.354 196.854C439.354 196.854 434.684 209.709 434.684 222.81C434.684 235.911 434.308 257.254 432.677 263.993C431.047 270.733 426.406 291.576 426.406 291.576L422.768 289.703C422.768 289.703 431.515 256.439 432.176 254.04C432.836 251.642 431.674 226.301 431.047 224.179C430.42 222.058 427.752 212.613 428.167 209.993C428.69 206.69 431.796 201.802 436.813 197.6L439.354 196.854Z" fill="#DBDFF0"/>
<path d="M453.984 195.668C453.984 195.668 451.081 204.917 449.61 216.762C448.139 228.607 454.126 283.588 458.139 296.069L473.693 293.572C473.693 293.572 470.345 254.709 465.8 247.636C461.255 240.564 459.808 234.307 464.715 219.545C469.621 204.783 462.564 197.473 462.564 197.473C462.564 197.473 455.348 195.822 453.984 195.668Z" fill="#DBDFF0"/>
<path d="M437.204 234.889L456.063 267.391L477.027 255.347L458.988 222.375L437.204 234.889Z" fill="#616161"/>
<path d="M439.478 236.007L456.226 264.873L474.845 254.176L458.824 224.893L439.478 236.007Z" fill="#E0CEC7"/>
<path d="M445.656 233.414L444.481 231.388L452.008 227.063L453.478 228.921L445.656 233.414Z" fill="#616161"/>
<path d="M446.555 256.475C446.555 256.475 447.412 256.478 447.788 256.298C447.788 256.298 448.447 255.918 448.931 255.676C449.085 255.599 449.221 255.536 449.313 255.505C449.698 255.372 450.582 255.196 451.416 254.62C452.249 254.045 455.202 250.643 455.202 250.643L453.807 248.533L452.785 246.372C452.785 246.372 446.584 246.77 445.745 247.217C445.664 247.261 445.585 247.308 445.514 247.357C444.84 247.804 444.528 248.418 444.201 248.692C444.082 248.794 442.964 249.883 443.003 250.346C443.057 250.99 443.356 251.414 443.746 251.626C443.746 251.626 443.906 252.881 444.528 253.467C444.528 253.467 444.638 254.629 445.62 255.139C445.62 255.139 445.866 256.305 446.555 256.475Z" fill="#EEA886"/>
<path d="M459.334 197.513C459.334 197.513 465.061 195.881 468.343 202.16C471.624 208.439 471.608 211.118 472.046 214.184C472.461 217.08 474.33 224.984 474.519 225.8C474.709 226.617 478.942 236.351 477.001 239.753C475.049 243.173 455.228 253.239 455.354 253.992C455.48 254.746 451.921 246.382 451.921 246.382C451.921 246.382 459.941 241.933 461.255 240.564C463.389 238.339 467.89 235.942 466.966 233.182C465.879 229.94 462.616 219.003 461.859 217.402C461.101 215.8 454.507 199.554 459.334 197.513Z" fill="#DBDFF0"/>
<defs>
<linearGradient id="paint0_linear_1049_1709" x1="310.648" y1="59.9561" x2="405.999" y2="59.9561" gradientUnits="userSpaceOnUse">
<stop stop-color="#FF9F55"/>
<stop offset="1" stop-color="#FFD255"/>
</linearGradient>
<linearGradient id="paint1_linear_1049_1709" x1="396.933" y1="18.0762" x2="432.643" y2="18.0762" gradientUnits="userSpaceOnUse">
<stop stop-color="#FF9F55"/>
<stop offset="1" stop-color="#FFD255"/>
</linearGradient>
<linearGradient id="paint2_linear_1049_1709" x1="309.113" y1="94.3334" x2="331.378" y2="168.041" gradientUnits="userSpaceOnUse">
<stop stop-color="#40D5E6"/>
<stop offset="1" stop-color="#5577FF"/>
</linearGradient>
<linearGradient id="paint3_linear_1049_1709" x1="351.774" y1="148.171" x2="398.733" y2="69.8295" gradientUnits="userSpaceOnUse">
<stop stop-color="#602F80"/>
<stop offset="1" stop-color="#5770FF"/>
</linearGradient>
<linearGradient id="paint4_linear_1049_1709" x1="-744.624" y1="1012.17" x2="-726.658" y2="998.269" gradientUnits="userSpaceOnUse">
<stop stop-color="#602F80"/>
<stop offset="1" stop-color="#5770FF"/>
</linearGradient>
<linearGradient id="paint5_linear_1049_1709" x1="94.5928" y1="311.594" x2="94.5928" y2="222.622" gradientUnits="userSpaceOnUse">
<stop stop-color="#602F80"/>
<stop offset="1" stop-color="#5770FF"/>
</linearGradient>
<linearGradient id="paint6_linear_1049_1709" x1="94.5919" y1="218.34" x2="542.547" y2="218.34" gradientUnits="userSpaceOnUse">
<stop stop-color="#FF9F55"/>
<stop offset="1" stop-color="#FFD255"/>
</linearGradient>
<linearGradient id="paint7_linear_1049_1709" x1="30.3882" y1="256.803" x2="30.3882" y2="201.1" gradientUnits="userSpaceOnUse">
<stop stop-color="#FF9F55"/>
<stop offset="1" stop-color="#FFD255"/>
</linearGradient>
<linearGradient id="paint8_linear_1049_1709" x1="44.1864" y1="256.802" x2="44.1864" y2="201.1" gradientUnits="userSpaceOnUse">
<stop stop-color="#FF9F55"/>
<stop offset="1" stop-color="#FFD255"/>
</linearGradient>
<linearGradient id="paint9_linear_1049_1709" x1="57.9846" y1="256.802" x2="57.9846" y2="201.1" gradientUnits="userSpaceOnUse">
<stop stop-color="#FF9F55"/>
<stop offset="1" stop-color="#FFD255"/>
</linearGradient>
<linearGradient id="paint10_linear_1049_1709" x1="71.7828" y1="256.802" x2="71.7828" y2="201.1" gradientUnits="userSpaceOnUse">
<stop stop-color="#FF9F55"/>
<stop offset="1" stop-color="#FFD255"/>
</linearGradient>
<linearGradient id="paint11_linear_1049_1709" x1="258.88" y1="441.388" x2="265.905" y2="40.3582" gradientUnits="userSpaceOnUse">
<stop stop-color="#40D5E6"/>
<stop offset="1" stop-color="#5577FF"/>
</linearGradient>
<linearGradient id="paint12_linear_1049_1709" x1="283.033" y1="103.444" x2="335.851" y2="103.444" gradientUnits="userSpaceOnUse">
<stop stop-color="#40D5E6"/>
<stop offset="1" stop-color="#5577FF"/>
</linearGradient>
<linearGradient id="paint13_linear_1049_1709" x1="283.033" y1="131.308" x2="331.517" y2="131.308" gradientUnits="userSpaceOnUse">
<stop stop-color="#40D5E6"/>
<stop offset="1" stop-color="#5577FF"/>
</linearGradient>
<linearGradient id="paint14_linear_1049_1709" x1="283.033" y1="117.376" x2="324.983" y2="117.376" gradientUnits="userSpaceOnUse">
<stop stop-color="#40D5E6"/>
<stop offset="1" stop-color="#5577FF"/>
</linearGradient>
<linearGradient id="paint15_linear_1049_1709" x1="226.364" y1="157.752" x2="226.364" y2="100.038" gradientUnits="userSpaceOnUse">
<stop stop-color="#7DB3E0"/>
<stop offset="1" stop-color="white"/>
</linearGradient>
<radialGradient id="paint16_radial_1049_1709" cx="0" cy="0" r="1" gradientUnits="userSpaceOnUse" gradientTransform="translate(318.569 230.797) scale(160.621 159.824)">
<stop offset="0.1602" stop-color="#90C2E8"/>
<stop offset="0.5806" stop-color="#47AFFF"/>
<stop offset="1" stop-color="#6783F5"/>
</radialGradient>
<linearGradient id="paint17_linear_1049_1709" x1="57.8887" y1="308.94" x2="55.781" y2="223.863" gradientUnits="userSpaceOnUse">
<stop stop-color="#FF9F55"/>
<stop offset="1" stop-color="#FFD255"/>
</linearGradient>
<linearGradient id="paint18_linear_1049_1709" x1="47.4987" y1="309.197" x2="45.3911" y2="224.12" gradientUnits="userSpaceOnUse">
<stop stop-color="#FF9F55"/>
<stop offset="1" stop-color="#FFD255"/>
</linearGradient>
<linearGradient id="paint19_linear_1049_1709" x1="281.921" y1="-8.91727" x2="262.94" y2="62.4383" gradientUnits="userSpaceOnUse">
<stop stop-color="#FF9F55"/>
<stop offset="1" stop-color="#FFD255"/>
</linearGradient>
<linearGradient id="paint20_linear_1049_1709" x1="280.965" y1="-9.17253" x2="261.983" y2="62.1853" gradientUnits="userSpaceOnUse">
<stop stop-color="#FF9F55"/>
<stop offset="1" stop-color="#FFD255"/>
</linearGradient>
<linearGradient id="paint21_linear_1049_1709" x1="224.439" y1="72.0318" x2="229.005" y2="142.285" gradientUnits="userSpaceOnUse">
<stop stop-color="#40D5E6"/>
<stop offset="1" stop-color="#5577FF"/>
</linearGradient>
<linearGradient id="paint22_linear_1049_1709" x1="224.439" y1="72.032" x2="229.005" y2="142.285" gradientUnits="userSpaceOnUse">
<stop stop-color="#40D5E6"/>
<stop offset="1" stop-color="#5577FF"/>
</linearGradient>
</defs>
</svg>
