<svg width="657" height="441" viewBox="0 0 657 441" fill="none" xmlns="http://www.w3.org/2000/svg">
<path d="M120.616 236.227C5.80788 280.719 5.81182 352.856 120.623 397.348C235.433 441.841 421.576 441.841 536.384 397.348C651.192 352.856 651.189 280.719 536.377 236.227C421.567 191.734 235.424 191.734 120.616 236.227Z" fill="#FAFAFA"/>
<path d="M590.95 147.757L588.905 148.549L537.781 128.701L539.827 127.909L590.95 147.757Z" fill="#F5F5F5"/>
<path d="M539.827 127.909L588.906 146.963L588.939 118.397L539.86 99.3431L539.827 127.909Z" fill="#FAFAFA"/>
<path d="M535.732 129.493L590.946 150.929L590.985 117.605L535.77 96.1688L535.732 129.493ZM537.815 98.5493L588.939 118.397L588.905 148.549L537.781 128.701L537.815 98.5493Z" fill="#EBEBEB"/>
<path d="M537.781 128.701L539.827 127.909L539.86 99.3431L537.815 98.5493L537.781 128.701Z" fill="#E0E0E0"/>
<path d="M535.772 96.1688L537.818 95.3777L593.033 116.814L590.986 117.605L535.772 96.1688Z" fill="#F5F5F5"/>
<path d="M593.033 116.814L590.986 117.605L590.947 150.929L592.994 150.137L593.033 116.814Z" fill="#E0E0E0"/>
<path d="M575.988 134.547C577.895 135.287 579.439 137.086 579.437 138.564C579.436 140.042 577.889 140.641 575.983 139.9C574.076 139.16 572.532 137.362 572.533 135.883C572.535 134.405 574.081 133.807 575.988 134.547Z" fill="#EBEBEB"/>
<path opacity="0.2" d="M550.621 107.075L576.611 117.156C577.334 117.436 577.918 118.117 577.918 118.678V118.729C577.918 119.289 577.331 119.516 576.61 119.237L550.62 109.163C549.897 108.884 549.312 108.202 549.312 107.642V107.583C549.312 107.021 549.899 106.794 550.621 107.075Z" fill="black"/>
<g opacity="0.2">
<path d="M546.499 111.823L580.706 125.104C581.429 125.384 582.014 125.967 582.014 126.405C582.014 126.843 581.426 126.971 580.705 126.69L546.471 113.399C545.749 113.118 545.169 112.538 545.177 112.102C545.185 111.668 545.776 111.543 546.499 111.823Z" fill="black"/>
<path d="M546.495 114.992L580.702 128.272C581.425 128.552 582.011 129.135 582.01 129.573C582.01 130.011 581.424 130.139 580.701 129.858L546.468 116.567C545.745 116.286 545.165 115.706 545.172 115.271C545.181 114.836 545.772 114.711 546.495 114.992Z" fill="black"/>
<path d="M546.493 118.16L580.7 131.44C581.423 131.72 582.009 132.303 582.007 132.741C582.007 133.179 581.42 133.306 580.697 133.026L546.464 119.735C545.741 119.454 545.161 118.874 545.168 118.439C545.177 118.004 545.769 117.879 546.493 118.16Z" fill="black"/>
</g>
<path opacity="0.3" d="M569.842 136.564C569.572 136.446 569.294 136.288 568.988 136.053C568.258 135.494 568.326 135.039 568.348 134.711C568.359 134.563 568.036 134.074 567.867 134.148C567.425 134.342 566.861 134.402 566.383 134.555C566.092 134.649 565.536 134.942 564.833 134.292C564.542 134.023 564.446 133.739 564.446 133.475C564.777 133.286 564.983 132.972 564.904 132.397C564.881 132.23 564.504 131.753 564.387 131.864C564.209 132.032 563.977 132.375 563.94 132.837C563.631 132.997 563.211 133.042 562.836 133.086C562.597 133.113 562.388 133.187 562.125 133.183C562.063 133.182 561.941 133.209 561.839 133.141C561.6 132.984 561.622 132.905 561.59 132.773C561.55 132.602 561.648 132.483 561.707 132.392V132.391C561.711 132.381 561.72 132.375 561.724 132.365C561.72 132.361 561.717 132.356 561.713 132.351C561.71 132.192 561.418 131.736 561.296 131.835C560.816 132.221 560.186 132.64 559.287 132.524C559.245 132.519 559.199 132.505 559.153 132.493C559.145 132.396 559.116 132.281 559.103 132.18C559.073 131.945 559.054 131.718 558.941 131.429C558.886 131.287 558.623 130.928 558.485 130.956C557.76 131.099 557.178 131.483 556.208 131.303C556.139 131.291 555.747 131.175 555.73 131.154C555.575 130.974 555.817 130.605 555.848 130.545C555.941 130.368 556.064 130.218 556.186 130.069C556.307 129.968 556.408 129.846 556.461 129.673C556.507 129.52 556.022 128.852 555.932 129.037C555.897 129.112 555.763 129.262 555.618 129.459C555.153 129.789 554.327 130.023 553.696 130.151C552.963 130.302 552.203 130.299 551.025 129.808C550.72 129.681 550.152 129.401 549.818 128.98C549.544 128.634 549.521 128.305 549.508 128.088C549.473 127.53 549.634 127.11 549.829 126.746C550.889 127.21 551.873 127.474 552.794 127.642C553.613 127.791 554.499 127.945 555.037 127.714C555.344 127.582 555.525 127.116 554.788 126.334C554.279 125.795 553.621 125.524 553.19 125.352C552.592 125.113 552.032 124.972 551.561 124.939C550.582 124.869 549.93 125.275 549.52 125.862C549.456 125.954 549.37 126.077 549.286 126.227C548.149 125.716 546.91 124.943 545.521 123.73C545.451 123.668 545.422 123.752 545.493 123.816C546.826 125.046 548.044 125.865 549.177 126.44C548.846 127.145 548.658 128.269 549.992 129.552C551.411 130.916 552.931 130.96 553.645 130.87C554.195 130.801 554.652 130.666 555.077 130.431C555.108 130.413 555.158 130.418 555.2 130.412C555.161 130.826 555.33 131.282 555.978 131.713C556.66 132.165 557.236 131.987 557.6 131.93C557.944 131.876 558.254 131.781 558.572 131.694C558.63 132.14 558.738 132.68 559.307 133.044C559.855 133.396 560.349 133.111 560.618 133.048C560.849 132.994 561.075 132.932 561.267 132.832C561.3 132.904 561.341 132.979 561.396 133.062C561.87 133.773 562.433 133.843 562.739 133.811C563.174 133.764 563.665 133.739 564.074 133.626C564.182 133.896 564.358 134.186 564.639 134.493C565.368 135.29 566.055 135.417 566.478 135.383C567.009 135.338 567.44 135.158 567.856 134.965C567.915 135.192 568.051 135.462 568.357 135.824C568.891 136.456 569.573 136.901 570.079 137.086C570.302 137.169 570.083 136.669 569.842 136.564ZM553.84 126.063C554.181 126.212 554.888 126.566 554.924 126.979C554.945 127.219 554.639 127.258 554.461 127.292C553.91 127.398 553.186 127.294 552.471 127.17C551.685 127.034 550.862 126.841 549.979 126.51C550.605 125.567 551.809 125.177 553.84 126.063Z" fill="black"/>
<path d="M590.95 199.064L588.905 199.855L537.781 180.007L539.827 179.215L590.95 199.064Z" fill="#F5F5F5"/>
<path d="M539.827 179.215L588.906 198.27L588.939 169.703L539.86 150.649L539.827 179.215Z" fill="#FAFAFA"/>
<path d="M535.732 180.799L590.946 202.235L590.985 168.912L535.77 147.476L535.732 180.799ZM537.815 149.855L588.939 169.703L588.905 199.855L537.781 180.007L537.815 149.855Z" fill="#EBEBEB"/>
<path d="M537.781 180.007L539.827 179.215L539.86 150.649L537.815 149.855L537.781 180.007Z" fill="#E0E0E0"/>
<path d="M535.772 147.476L537.818 146.684L593.033 168.12L590.986 168.912L535.772 147.476Z" fill="#F5F5F5"/>
<path d="M593.033 168.12L590.986 168.912L590.947 202.235L592.994 201.443L593.033 168.12Z" fill="#E0E0E0"/>
<path d="M575.988 185.854C577.895 186.594 579.439 188.393 579.437 189.871C579.436 191.349 577.889 191.948 575.983 191.207C574.076 190.467 572.532 188.669 572.533 187.19C572.535 185.712 574.081 185.113 575.988 185.854Z" fill="#EBEBEB"/>
<path opacity="0.2" d="M550.621 158.381L576.611 168.462C577.334 168.742 577.918 169.423 577.918 169.984V170.035C577.918 170.595 577.331 170.822 576.61 170.543L550.62 160.469C549.897 160.19 549.312 159.508 549.312 158.948V158.889C549.312 158.328 549.899 158.1 550.621 158.381Z" fill="black"/>
<g opacity="0.2">
<path d="M546.499 163.129L580.706 176.41C581.429 176.69 582.014 177.273 582.014 177.711C582.014 178.149 581.426 178.277 580.705 177.996L546.471 164.705C545.749 164.424 545.169 163.844 545.177 163.409C545.185 162.974 545.776 162.849 546.499 163.129Z" fill="black"/>
<path d="M546.495 166.298L580.702 179.578C581.425 179.858 582.011 180.441 582.01 180.879C582.01 181.317 581.424 181.445 580.701 181.164L546.468 167.873C545.745 167.592 545.165 167.012 545.172 166.577C545.181 166.142 545.772 166.017 546.495 166.298Z" fill="black"/>
<path d="M546.493 169.466L580.7 182.746C581.423 183.026 582.009 183.609 582.007 184.047C582.007 184.485 581.42 184.613 580.697 184.332L546.464 171.041C545.741 170.76 545.161 170.18 545.168 169.745C545.177 169.31 545.769 169.185 546.493 169.466Z" fill="black"/>
</g>
<path opacity="0.3" d="M569.842 187.87C569.572 187.752 569.294 187.593 568.988 187.359C568.258 186.8 568.326 186.344 568.348 186.017C568.359 185.869 568.036 185.38 567.867 185.454C567.425 185.648 566.861 185.708 566.383 185.861C566.092 185.955 565.536 186.247 564.833 185.598C564.542 185.328 564.446 185.044 564.446 184.781C564.777 184.591 564.983 184.278 564.904 183.703C564.881 183.536 564.504 183.059 564.387 183.17C564.209 183.339 563.977 183.681 563.94 184.143C563.631 184.303 563.211 184.348 562.836 184.392C562.597 184.419 562.388 184.493 562.125 184.489C562.063 184.488 561.941 184.515 561.839 184.447C561.6 184.289 561.622 184.211 561.59 184.079C561.55 183.908 561.648 183.788 561.707 183.698V183.697C561.711 183.687 561.72 183.682 561.724 183.671C561.72 183.667 561.717 183.661 561.713 183.657C561.71 183.498 561.418 183.042 561.296 183.141C560.816 183.526 560.186 183.946 559.287 183.83C559.245 183.825 559.199 183.811 559.153 183.799C559.145 183.702 559.116 183.586 559.103 183.486C559.073 183.25 559.054 183.024 558.941 182.735C558.886 182.593 558.623 182.234 558.485 182.262C557.76 182.405 557.178 182.789 556.208 182.609C556.139 182.597 555.747 182.481 555.73 182.46C555.575 182.28 555.817 181.911 555.848 181.851C555.941 181.673 556.064 181.524 556.186 181.374C556.307 181.274 556.408 181.152 556.461 180.978C556.507 180.826 556.022 180.158 555.932 180.343C555.897 180.418 555.763 180.568 555.618 180.765C555.153 181.095 554.327 181.328 553.696 181.457C552.963 181.608 552.203 181.605 551.025 181.114C550.72 180.987 550.152 180.707 549.818 180.286C549.544 179.94 549.521 179.611 549.508 179.394C549.473 178.836 549.634 178.416 549.829 178.052C550.889 178.516 551.873 178.78 552.794 178.948C553.613 179.097 554.499 179.251 555.037 179.019C555.344 178.889 555.525 178.422 554.788 177.64C554.279 177.101 553.621 176.829 553.19 176.657C552.592 176.419 552.032 176.278 551.561 176.244C550.582 176.174 549.93 176.58 549.52 177.167C549.456 177.259 549.37 177.382 549.286 177.532C548.149 177.021 546.91 176.248 545.521 175.035C545.451 174.973 545.422 175.057 545.493 175.121C546.826 176.35 548.044 177.169 549.177 177.745C548.846 178.45 548.658 179.574 549.992 180.857C551.411 182.221 552.931 182.265 553.645 182.175C554.195 182.106 554.652 181.971 555.077 181.736C555.108 181.718 555.158 181.723 555.2 181.717C555.161 182.131 555.33 182.588 555.978 183.018C556.66 183.47 557.236 183.292 557.6 183.234C557.944 183.181 558.254 183.085 558.572 182.999C558.63 183.445 558.738 183.985 559.307 184.349C559.855 184.7 560.349 184.415 560.618 184.353C560.849 184.299 561.075 184.236 561.267 184.137C561.3 184.209 561.341 184.285 561.396 184.367C561.87 185.078 562.433 185.148 562.739 185.116C563.174 185.069 563.665 185.044 564.074 184.93C564.182 185.2 564.358 185.49 564.639 185.797C565.368 186.594 566.055 186.721 566.478 186.687C567.009 186.643 567.44 186.462 567.856 186.269C567.915 186.496 568.051 186.766 568.357 187.129C568.891 187.76 569.573 188.205 570.079 188.39C570.302 188.475 570.083 187.975 569.842 187.87ZM553.84 177.369C554.181 177.517 554.888 177.872 554.924 178.285C554.945 178.525 554.639 178.563 554.461 178.598C553.91 178.704 553.186 178.6 552.471 178.476C551.685 178.34 550.862 178.147 549.979 177.815C550.605 176.873 551.809 176.483 553.84 177.369Z" fill="black"/>
<path d="M140.224 331.23L115.808 340.691C116.134 334.842 116.892 326.142 115.69 320.286C108.317 284.465 87.5283 272.654 77.6417 255.221C67.2322 236.86 79.9281 230.952 96.4201 234.254C111.126 237.198 132.408 251.807 139.111 278.537C143.565 296.321 142.777 315.634 140.224 331.23Z" fill="#BA68C8"/>
<path opacity="0.65" d="M140.224 331.23L115.808 340.691C116.134 334.842 116.892 326.142 115.69 320.286C108.317 284.465 87.5283 272.654 77.6417 255.221C67.2322 236.86 79.9281 230.952 96.4201 234.254C111.126 237.198 132.408 251.807 139.111 278.537C143.565 296.321 142.777 315.634 140.224 331.23Z" fill="white"/>
<path d="M127.281 336.245L124.837 337.191C133.569 295.429 112.298 259.211 91.3033 244.251C90.8999 243.967 90.9196 243.511 91.3427 243.239C91.7869 242.967 92.457 242.981 92.8604 243.265C113.846 258.231 135.107 294.694 127.281 336.245Z" fill="white"/>
<path d="M122.667 338.031L108.927 343.357H108.918C101.613 328.921 94.1127 323.137 84.7978 313.643C76.3106 305.002 66.4438 299.649 61.1997 293.575C56.5573 288.196 53.0673 281.441 59.9671 277.352C70.9482 270.841 85.28 277.729 95.1376 285.173C103.654 291.61 120.786 308.733 122.667 338.031Z" fill="#BA68C8"/>
<path opacity="0.3" d="M122.667 338.031L108.927 343.357H108.918C101.613 328.921 94.1127 323.137 84.7978 313.643C76.3106 305.002 66.4438 299.649 61.1997 293.575C56.5573 288.196 53.0673 281.441 59.9671 277.352C70.9482 270.841 85.28 277.729 95.1376 285.173C103.654 291.61 120.786 308.733 122.667 338.031Z" fill="white"/>
<path d="M117.03 340.215L115.029 340.995C109.262 318.162 86.1577 291.743 71.7957 285.504C71.2924 285.286 71.1453 284.83 71.4803 284.486C71.8062 284.142 72.4764 284.042 72.9888 284.268C87.8528 290.737 110.908 317.03 117.03 340.215Z" fill="white"/>
<path d="M194.284 397.897C248.965 397.897 293.293 380.719 293.293 359.528C293.293 338.337 248.965 321.158 194.284 321.158C139.603 321.158 95.2756 338.337 95.2756 359.528C95.2756 380.719 139.603 397.897 194.284 397.897Z" fill="#E0E0E0"/>
<path d="M603.131 297.21L588.617 302.836C585.304 304.119 579.935 304.119 576.623 302.836L474.277 263.172C470.964 261.889 470.964 259.807 474.277 258.524L488.791 252.899C492.104 251.615 497.473 251.615 500.785 252.899L603.131 292.562C606.443 293.845 606.443 295.926 603.131 297.21Z" fill="#E0E0E0"/>
<path d="M598.497 236.831L598.76 288.89C598.773 291.414 596.121 292.879 592.876 294.171L584.734 297.354C582.486 298.234 581.232 298.531 578.368 298.209C577.114 298.075 575.008 297.394 574.006 297.021C573.939 297.01 573.888 296.988 573.837 296.965L573.395 296.796L489.868 264.679C483.765 262.332 479.991 257.978 479.967 253.257L479.724 205.854C479.719 204.774 480.847 203.453 482.25 202.903L496.143 197.483C497.529 196.935 499.798 196.929 501.19 197.472L595.941 233.905C596.653 234.165 597.283 234.64 597.743 235.162C598.204 235.695 598.494 236.297 598.497 236.831Z" fill="#37474F"/>
<path d="M598.497 236.831L598.76 288.89C598.773 291.414 596.121 292.879 592.876 294.171L584.734 297.354C582.486 298.234 581.232 298.531 578.368 298.209C577.114 298.075 575.008 297.394 574.007 297.021V296.999C577.263 298.014 579.814 296.872 579.803 294.292L579.554 245.241C579.55 244.422 579.122 243.514 578.423 242.709L597.741 235.162C598.204 235.695 598.494 236.297 598.497 236.831Z" fill="#263238"/>
<path d="M579.559 245.241C579.552 243.609 577.82 241.612 575.709 240.8L486.156 206.366C482.616 205.005 479.732 206.131 479.745 208.87L479.962 253.25C479.986 257.973 483.76 262.327 489.863 264.674L573.395 296.795C576.935 298.156 579.82 297.029 579.806 294.291L579.559 245.241Z" fill="#455A64"/>
<path d="M491.641 199.24L586.559 236.1C589.276 237.156 590.973 239.119 590.983 241.226L591.254 294.804L589.814 295.367L589.54 241.229C589.531 239.466 588.112 237.822 585.838 236.937L490.205 199.799L491.641 199.24Z" fill="#BA68C8"/>
<path opacity="0.2" d="M589.786 238.27C590.551 239.156 590.978 240.174 590.984 241.227L591.254 294.805L589.814 295.368L589.541 241.23C589.537 240.349 589.179 239.498 588.541 238.757L589.786 238.27Z" fill="black"/>
<path opacity="0.2" d="M588.541 238.757C587.901 238.014 586.976 237.381 585.837 236.938L490.204 199.799L491.641 199.239L586.559 236.099C587.918 236.627 589.022 237.381 589.786 238.268" fill="black"/>
<path d="M525.324 205.816L525.365 213.878L520.678 215.709L520.624 205.004C520.621 204.45 521.193 204.229 521.908 204.502L525.324 205.816Z" fill="#BA68C8"/>
<path opacity="0.4" d="M525.324 205.816L525.365 213.878L520.678 215.709L520.624 205.004C520.621 204.45 521.193 204.229 521.908 204.502L525.324 205.816Z" fill="black"/>
<path d="M558.371 213.707L558.437 226.758L553.963 228.51L550.938 227.344L550.884 216.639C550.881 216.091 550.298 215.419 549.59 215.145L526.667 206.334L521.906 204.503C521.192 204.231 520.62 204.451 520.623 205.005L520.676 215.71L517.645 214.544L517.579 201.498C517.579 201.443 517.586 201.384 517.6 201.328C517.695 200.814 518.227 200.244 518.866 199.998L520.772 199.25C521.478 198.974 522.63 198.971 523.345 199.244L557.078 212.213C557.793 212.491 558.369 213.158 558.371 213.707Z" fill="#BA68C8"/>
<path opacity="0.2" d="M553.897 215.458L553.963 228.509L550.938 227.343L550.884 216.639C550.881 216.09 550.298 215.418 549.59 215.145L526.667 206.333L521.906 204.502C521.192 204.23 520.62 204.45 520.623 205.004L520.676 215.709L517.645 214.543L517.579 201.497C517.579 201.443 517.586 201.383 517.6 201.327C517.711 200.903 518.238 200.752 518.871 200.995L552.604 213.964C553.311 214.242 553.894 214.91 553.897 215.458Z" fill="black"/>
<path opacity="0.2" d="M181.48 290.474L395.364 373.362C398.69 374.651 404.081 374.651 407.406 373.362L564.807 312.363C568.133 311.074 568.133 308.985 564.807 307.696L350.923 224.809C347.598 223.52 342.208 223.52 338.882 224.809L181.482 285.808C178.155 287.095 178.155 289.186 181.48 290.474Z" fill="black"/>
<path d="M411.863 361.574L406.745 359.6C406.745 359.6 409.681 358.974 411.037 359.398C412.392 359.822 411.863 361.574 411.863 361.574Z" fill="black"/>
<path d="M415.373 359.412C415.373 359.412 411.231 356.349 406.26 359.412C401.289 362.476 401.032 365.512 398.974 365.462C396.916 365.412 396.946 340.995 396.946 340.995L416.542 353.229L415.373 359.412Z" fill="black"/>
<path d="M210.038 270.616L209.716 270.492L212.867 269.271L348.08 216.87L545.113 302.463C548.372 303.726 548.949 305.547 546.402 306.529L541.793 308.308L415.398 357.312L414.5 356.874L210.038 270.616Z" fill="#455A64"/>
<path d="M398.531 329.435L408.318 328.08V354.391C402.414 356.073 398.658 357.664 398.04 360.98L398.531 329.435Z" fill="#BA68C8"/>
<path d="M412.649 354.739L537.858 306.214C540.03 305.373 541.792 303.325 541.792 301.642V275.706L415.374 325.125C415.374 325.125 413.867 328.795 409.383 329.953C404.901 331.112 408.319 332.275 408.319 332.275V354.392C412.189 354.084 412.649 354.739 412.649 354.739Z" fill="#EBEBEB"/>
<path d="M401.102 328.536C402.397 328.033 403.419 328.003 403.419 328.475V329.298C403.419 330.213 405.486 330.167 408.052 329.176C410.595 328.185 412.691 326.648 412.691 325.733V324.907C412.691 324.435 414.433 323.383 416.591 322.545L212.871 244.195C211.624 244.679 209.716 245.424 209.716 245.424C209.19 245.77 208.942 246.357 208.942 246.557V247.38C208.942 248.294 206.875 249.833 204.332 250.824C201.766 251.815 199.699 251.861 199.699 250.946V250.123C199.699 249.65 198.678 249.681 197.383 250.184L401.102 328.536Z" fill="#37474F"/>
<path d="M210.038 245.55L209.716 245.425L212.867 244.205L348.08 191.804L545.113 268.176C548.372 269.439 548.949 271.26 546.402 272.242L541.793 274.021L415.374 325.125L210.038 245.55Z" fill="#455A64"/>
<path d="M199.658 249.323L403.218 328.21L396.091 331.951L193.189 253.319C194.069 251.919 194.979 251.181 195.904 250.777L199.658 249.323Z" fill="#455A64"/>
<path d="M193.987 288.649C193.862 288.6 193.74 288.541 193.621 288.471C193.53 288.441 193.462 288.395 193.393 288.334C193.234 288.227 193.098 288.105 192.985 287.968C192.894 287.907 192.848 287.846 192.781 287.769C192.577 287.541 192.395 287.281 192.258 287.007C192.099 286.733 191.962 286.428 191.849 286.123C191.736 285.788 191.646 285.452 191.555 285.087C191.487 284.889 191.464 284.676 191.441 284.462C191.418 284.294 191.396 284.142 191.372 283.958C191.326 283.577 191.304 283.181 191.304 282.769V260.196C191.304 257.673 192.046 255.146 193.19 253.316L396.091 331.95L396.946 367.315L194.054 288.672L193.987 288.649Z" fill="#455A64"/>
<path opacity="0.1" d="M396.091 331.951C396.091 331.951 236.298 281.75 221.755 277.151C212.16 274.116 213.277 281.721 219.978 287.6C225.337 292.3 272.384 319.034 272.384 319.034L220.18 298.8L194.054 288.673L193.987 288.649C193.862 288.6 193.74 288.541 193.621 288.471C193.53 288.441 193.462 288.395 193.393 288.334C193.234 288.227 193.098 288.105 192.985 287.968C192.894 287.907 192.848 287.846 192.781 287.769C192.577 287.541 192.395 287.282 192.258 287.007C192.099 286.733 191.962 286.428 191.849 286.123C191.736 285.788 191.646 285.452 191.555 285.087C191.487 284.889 191.464 284.676 191.441 284.462C191.418 284.294 191.396 284.142 191.372 283.958C191.326 283.577 191.304 283.181 191.304 282.769V260.196C191.304 257.673 192.046 255.146 193.19 253.316L396.091 331.951Z" fill="black"/>
<path d="M394.21 338.839H398.752C398.752 335.577 400.183 332.879 400.954 332.178C401.954 332.696 403.226 333.001 404.679 333.001C406.813 333.001 408.926 332.36 410.333 331.812C412.173 331.096 414.216 329.998 415.579 328.718C415.669 328.626 415.782 328.534 415.851 328.444C416.668 327.636 417.169 326.737 417.213 325.837L537.136 279.363L541.2 277.778L546.401 275.766C547.468 275.354 547.991 274.79 547.991 274.196V270.629C547.991 271.33 547.377 271.849 546.401 272.245L546.332 272.275L532.571 277.595L416.6 322.546C414.442 323.383 412.671 324.436 412.671 324.908V325.731C412.671 326.127 412.285 326.646 411.604 327.18C410.787 327.881 409.492 328.613 408.061 329.176C405.495 330.167 403.428 330.213 403.428 329.298V328.475C403.428 328.003 402.407 328.033 401.113 328.536L398.819 329.436C396.276 330.409 394.21 334.632 394.21 338.839Z" fill="#37474F"/>
<path d="M398.752 338.839V361.413C398.752 361.733 398.775 362.053 398.798 362.358L398.912 363.12C398.912 363.151 398.912 363.166 398.934 363.197C399.343 360.773 402.795 358.609 405.792 357.466C407.131 356.932 409.198 356.307 411.333 356.307C412.922 356.307 414.353 356.688 415.397 357.313L415.806 357.16C416.078 357.054 416.329 356.948 416.601 356.84L532.572 311.89C532.572 311.89 535.615 310.716 539.226 309.315C539.84 309.07 540.497 308.826 541.133 308.568C543.087 307.806 545.062 307.043 546.742 306.388C547.514 306.007 547.991 305.534 547.991 304.925V305.9V308.492C547.991 308.994 547.604 309.483 546.833 309.864C546.833 309.879 546.809 309.879 546.787 309.894C546.129 310.153 545.424 310.413 544.72 310.702C544.289 310.87 543.857 311.037 543.424 311.205C542.653 311.494 541.903 311.799 541.198 312.074C540.699 312.271 540.244 312.455 539.813 312.606C539.451 312.744 539.133 312.881 538.837 312.987C537.793 313.398 537.134 313.658 537.134 313.658L445.007 349.342L415.6 360.743C413.511 361.566 411.808 361.856 411.695 361.429C411.676 361.369 411.672 361.299 411.672 361.284V360.485C411.672 359.494 409.605 359.494 407.063 360.485C404.565 361.445 403.475 362.634 403.429 363.595V364.57C403.429 365.074 403.135 365.592 402.748 365.729C402.566 365.806 402.317 365.897 402.067 365.988C401.658 366.141 401.158 366.339 400.612 366.552C400.068 366.765 399.455 367.009 398.819 367.253C397.979 367.573 397.206 367.513 396.526 367.116C396.435 367.086 396.367 367.04 396.298 366.979C396.139 366.872 396.003 366.75 395.89 366.613V366.598C395.799 366.537 395.753 366.491 395.686 366.415C395.481 366.187 395.3 365.928 395.163 365.653C395.004 365.379 394.867 365.074 394.754 364.77C394.641 364.434 394.551 364.098 394.46 363.733C394.392 363.536 394.369 363.321 394.347 363.109C394.325 362.941 394.302 362.789 394.279 362.605C394.234 362.224 394.21 361.828 394.21 361.416V338.842H398.752V338.839Z" fill="#37474F"/>
<path opacity="0.1" d="M193.196 253.312L386.035 328.047L531.801 271.557C533.981 270.719 533.981 269.347 531.801 268.508L340.982 194.552L212.884 244.197H212.861C211.613 244.684 209.705 245.431 209.705 245.431C209.183 245.767 208.934 246.361 208.934 246.56V247.382C208.934 248.297 206.867 249.837 204.324 250.828C204.188 250.888 204.052 250.918 203.916 250.964L199.669 249.318L197.647 250.095C197.556 250.126 197.488 250.141 197.375 250.187L197.397 250.202L195.899 250.781C194.99 251.178 194.059 251.925 193.196 253.312Z" fill="black"/>
<path d="M520.947 272.123L515.145 270.042L520.428 269.194C521.506 270.016 521.573 271.01 520.947 272.123Z" fill="#BA68C8"/>
<path opacity="0.5" d="M520.947 272.123L515.145 270.042L520.428 269.194C521.506 270.016 521.573 271.01 520.947 272.123Z" fill="black"/>
<path d="M367.243 324.08C370.502 325.343 375.784 325.343 379.043 324.081L511.506 272.744L313.217 197.139L308.584 195.34L176.126 245.429C172.878 246.694 172.878 248.751 176.126 250.001L367.243 324.08Z" fill="#BA68C8"/>
<path d="M416.981 228.352L463.173 246.198L493.079 234.609L527.864 248.1C527.864 248.1 527.864 261.64 527.864 263.68C527.864 265.72 524.457 268.625 523.218 268.147C523.218 268.147 520.494 268.52 516.568 269.731C512.64 270.942 506.966 274.499 506.966 274.499L400.825 234.614L416.981 228.352Z" fill="#BA68C8"/>
<path opacity="0.15" d="M416.981 228.352L463.173 246.198L493.079 234.609L527.864 248.1C527.864 248.1 527.864 261.64 527.864 263.68C527.864 265.72 524.457 268.625 523.218 268.147C523.218 268.147 520.494 268.52 516.568 269.731C512.64 270.942 506.966 274.499 506.966 274.499L400.825 234.614L416.981 228.352Z" fill="black"/>
<path d="M508.777 249.974V266.885C508.916 266.817 509.057 266.765 509.183 266.714C510.594 266.168 512.704 265.529 514.84 265.529C516.301 265.529 517.573 265.605 518.565 266.118V246.177L508.777 249.974Z" fill="#37474F"/>
<path d="M502.28 272.697C502.332 271.69 502.968 270.7 503.946 269.813C504.417 269.369 504.977 268.951 505.573 268.558C505.752 268.438 505.942 268.319 506.133 268.2C506.375 268.064 506.616 267.928 506.858 267.79C507.062 267.688 507.266 267.586 507.468 267.483C507.9 267.27 508.344 267.074 508.777 266.895V250.051L502.305 252.569V252.483L502.28 272.697Z" fill="#E0E0E0"/>
<path opacity="0.4" d="M527.863 263.679C527.863 265.719 524.455 268.625 523.216 268.147H523.214L518.567 266.121V253.263L523.223 247.887L525.759 247.283L527.863 248.1C527.863 248.1 527.863 261.639 527.863 263.679Z" fill="black"/>
<path d="M373.143 302.537V321.835C374.574 321.835 376.004 321.636 377.072 321.209L391.605 315.585L502.286 272.692L502.309 252.48L373.143 302.537Z" fill="#EBEBEB"/>
<path opacity="0.15" d="M493.917 265.415L462.934 277.422C462.934 277.422 466.151 275.173 478.425 270.474C490.357 265.907 493.917 265.415 493.917 265.415Z" fill="black"/>
<path d="M179.441 230.042V244.616C179.441 246.292 181.212 248.35 183.37 249.188L354.704 315.585L369.214 321.209C370.281 321.636 371.712 321.835 373.143 321.835V304.716L179.441 230.042Z" fill="#F5F5F5"/>
<path d="M313.215 172.06L511.505 248.913C511.505 248.913 511.505 249.706 511.505 250.696C511.505 251.687 513.57 252.053 516.114 251.062C518.68 250.071 520.747 248.836 520.747 247.129L520.997 245.438L318.961 167.151L318.144 166.831C317.939 167.09 317.804 167.38 317.804 167.655V168.478C317.803 169.469 315.759 171.054 313.215 172.06Z" fill="#BA68C8"/>
<path opacity="0.1" d="M313.215 172.06L511.505 248.913C511.505 248.913 511.505 249.706 511.505 250.696C511.505 251.687 513.57 252.053 516.114 251.062C518.68 250.071 520.747 248.836 520.747 247.129L520.997 245.438L318.961 167.151L318.144 166.831C317.939 167.09 317.804 167.38 317.804 167.655V168.478C317.803 169.469 315.759 171.054 313.215 172.06Z" fill="black"/>
<path d="M379.043 300.25L508.569 250.051C510.216 249.472 511.719 249.006 512.352 249.23L511.506 248.912L313.217 172.059C313.217 172.059 312.051 171.611 310.899 171.162C309.62 170.664 306.823 170.942 304.651 171.784L176.127 221.597C172.879 222.863 172.879 224.921 176.127 226.17L367.244 300.249C370.502 301.513 375.784 301.513 379.043 300.25Z" fill="#BA68C8"/>
<path opacity="0.3" d="M379.043 300.25L508.569 250.051C510.216 249.472 511.719 249.006 512.352 249.23L511.506 248.912L313.217 172.059C313.217 172.059 312.051 171.611 310.899 171.162C309.62 170.664 306.823 170.942 304.651 171.784L176.127 221.597C172.879 222.863 172.879 224.921 176.127 226.17L367.244 300.249C370.502 301.513 375.784 301.513 379.043 300.25Z" fill="white"/>
<path d="M383.308 291.22C377.044 288.791 369.256 288.787 362.984 291.211C362.592 291.363 362.105 291.362 361.715 291.21L199.434 228.32C199.039 228.167 198.798 227.885 198.798 227.581C198.798 227.276 199.039 226.994 199.434 226.842C201.292 226.122 202.401 224.832 202.402 223.392C202.402 221.952 201.292 220.661 199.434 219.942C199.039 219.789 198.798 219.508 198.798 219.203C198.798 218.897 199.039 218.616 199.434 218.463L296.579 180.817C296.97 180.665 297.457 180.665 297.85 180.817C304.127 183.25 311.925 183.249 318.198 180.817C318.591 180.665 319.077 180.665 319.469 180.817L481.901 243.765C482.296 243.917 482.536 244.199 482.536 244.505C482.536 244.81 482.293 245.092 481.9 245.243C480.04 245.962 478.927 247.253 478.925 248.695C478.923 250.135 480.033 251.426 481.892 252.147C482.285 252.3 482.527 252.582 482.527 252.887C482.527 253.192 482.284 253.474 481.891 253.625L384.579 291.222C384.383 291.297 384.162 291.335 383.944 291.335C383.726 291.334 383.505 291.295 383.308 291.22ZM476.383 248.692C476.384 247.109 477.324 245.653 478.967 244.598L318.821 182.536C312.097 184.95 303.953 184.95 297.225 182.536L202.364 219.298C204.005 220.354 204.943 221.81 204.943 223.393C204.942 224.974 204.005 226.431 202.364 227.485L362.364 289.491C369.084 287.087 377.218 287.092 383.934 289.502L478.958 252.788C477.317 251.732 476.38 250.276 476.383 248.692Z" fill="white"/>
<path d="M318.143 166.831L318.96 167.151L520.996 245.438C520.996 245.438 521.132 245.224 521.428 245.072C521.609 244.996 521.836 244.919 522.108 244.812L523.562 244.249C524.107 244.035 524.719 243.791 525.355 243.548C526.195 243.227 526.968 243.288 527.648 243.685C527.739 243.715 527.807 243.761 527.874 243.823C528.102 243.975 528.307 244.173 528.488 244.386C528.692 244.615 528.873 244.874 529.01 245.148C529.169 245.423 529.305 245.728 529.418 246.033C529.531 246.368 529.622 246.703 529.714 247.069C529.782 247.267 529.805 247.481 529.827 247.695C529.849 247.862 529.872 248.015 529.895 248.197C529.94 248.578 529.962 248.975 529.962 249.386V245.576C529.962 243.473 527.305 240.745 524.058 239.479L332.921 165.4C329.651 164.135 324.951 163.921 322.408 164.896L320.001 165.841L319.91 165.872C319.751 165.947 319.343 166.1 318.889 166.268C318.889 166.268 318.866 166.268 318.866 166.283C318.597 166.389 318.325 166.588 318.143 166.831Z" fill="#BA68C8"/>
<path opacity="0.3" d="M318.143 166.831L318.96 167.151L520.996 245.438C520.996 245.438 521.132 245.224 521.428 245.072C521.609 244.996 521.836 244.919 522.108 244.812L523.562 244.249C524.107 244.035 524.719 243.791 525.355 243.548C526.195 243.227 526.968 243.288 527.648 243.685C527.739 243.715 527.807 243.761 527.874 243.823C528.102 243.975 528.307 244.173 528.488 244.386C528.692 244.615 528.873 244.874 529.01 245.148C529.169 245.423 529.305 245.728 529.418 246.033C529.531 246.368 529.622 246.703 529.714 247.069C529.782 247.267 529.805 247.481 529.827 247.695C529.849 247.862 529.872 248.015 529.895 248.197C529.94 248.578 529.962 248.975 529.962 249.386V245.576C529.962 243.473 527.305 240.745 524.058 239.479L332.921 165.4C329.651 164.135 324.951 163.921 322.408 164.896L320.001 165.841L319.91 165.872C319.751 165.947 319.343 166.1 318.889 166.268C318.889 166.268 318.866 166.268 318.866 166.283C318.597 166.389 318.325 166.588 318.143 166.831Z" fill="white"/>
<path d="M379.048 324.076L387.041 320.966L506.963 274.492C507.009 273.485 507.623 272.495 508.599 271.611C509.962 270.33 512.005 269.233 513.845 268.516C515.252 267.967 517.364 267.327 519.499 267.327C520.952 267.327 522.223 267.632 523.223 268.15C523.995 267.449 525.426 264.751 525.426 261.489H529.967C529.967 265.696 527.902 269.918 525.358 270.894L523.064 271.793C521.769 272.296 520.747 272.326 520.747 271.854V271.031C520.747 270.116 518.68 270.162 516.114 271.152C513.57 272.144 511.504 273.684 511.504 274.597V275.42C511.504 275.893 509.733 276.944 507.576 277.783L391.603 322.733L379.045 327.596C379.045 327.596 379.023 327.596 379.023 327.611C377.388 328.221 375.277 328.541 373.142 328.541V325.02C375.278 325.02 377.412 324.716 379.048 324.076Z" fill="#BA68C8"/>
<path opacity="0.3" d="M379.048 324.076L387.041 320.966L506.963 274.492C507.009 273.485 507.623 272.495 508.599 271.611C509.962 270.33 512.005 269.233 513.845 268.516C515.252 267.967 517.364 267.327 519.499 267.327C520.952 267.327 522.223 267.632 523.223 268.15C523.995 267.449 525.426 264.751 525.426 261.489H529.967C529.967 265.696 527.902 269.918 525.358 270.894L523.064 271.793C521.769 272.296 520.747 272.326 520.747 271.854V271.031C520.747 270.116 518.68 270.162 516.114 271.152C513.57 272.144 511.504 273.684 511.504 274.597V275.42C511.504 275.893 509.733 276.944 507.576 277.783L391.603 322.733L379.045 327.596C379.045 327.596 379.023 327.596 379.023 327.611C377.388 328.221 375.277 328.541 373.142 328.541V325.02C375.278 325.02 377.412 324.716 379.048 324.076Z" fill="black"/>
<path d="M379.001 300.265C379.001 300.265 379.024 300.25 379.047 300.25L387.04 297.14L479.167 261.458L508.574 250.057C510.663 249.233 512.368 248.944 512.479 249.37C512.502 249.385 512.502 249.401 512.502 249.416V250.315C512.502 251.306 514.569 251.306 517.111 250.315C519.609 249.355 520.698 248.166 520.744 247.206V246.231C520.744 245.727 521.039 245.209 521.426 245.072C521.608 244.996 521.857 244.904 522.107 244.812C522.516 244.66 523.016 244.462 523.56 244.249C524.106 244.035 524.718 243.791 525.354 243.548C526.194 243.227 526.966 243.288 527.647 243.685C527.738 243.715 527.806 243.761 527.873 243.823C528.032 243.929 528.169 244.051 528.282 244.188C528.372 244.249 528.418 244.31 528.487 244.386C528.69 244.615 528.872 244.874 529.008 245.148C529.167 245.423 529.304 245.728 529.417 246.033C529.53 246.368 529.621 246.703 529.713 247.069C529.781 247.267 529.803 247.481 529.826 247.695C529.848 247.862 529.87 248.015 529.894 248.197C529.939 248.578 529.961 248.975 529.961 249.386V261.491H525.42V249.385C525.42 249.065 525.396 248.745 525.374 248.441L525.261 247.679C525.261 247.648 525.261 247.633 525.238 247.602C524.83 250.026 521.378 252.19 518.381 253.334C517.04 253.867 514.975 254.492 512.839 254.492C511.25 254.492 509.819 254.111 508.775 253.487L508.367 253.639C508.095 253.746 507.845 253.853 507.573 253.96L391.601 298.91L379.043 303.772C379.043 303.772 379.02 303.772 379.02 303.787C378.997 303.802 378.974 303.802 378.93 303.817C377.317 304.412 375.228 304.717 373.139 304.717V301.199C375.488 301.198 377.354 300.848 379.001 300.265Z" fill="#BA68C8"/>
<path opacity="0.3" d="M379.001 300.265C379.001 300.265 379.024 300.25 379.047 300.25L387.04 297.14L479.167 261.458L508.574 250.057C510.663 249.233 512.368 248.944 512.479 249.37C512.502 249.385 512.502 249.401 512.502 249.416V250.315C512.502 251.306 514.569 251.306 517.111 250.315C519.609 249.355 520.698 248.166 520.744 247.206V246.231C520.744 245.727 521.039 245.209 521.426 245.072C521.608 244.996 521.857 244.904 522.107 244.812C522.516 244.66 523.016 244.462 523.56 244.249C524.106 244.035 524.718 243.791 525.354 243.548C526.194 243.227 526.966 243.288 527.647 243.685C527.738 243.715 527.806 243.761 527.873 243.823C528.032 243.929 528.169 244.051 528.282 244.188C528.372 244.249 528.418 244.31 528.487 244.386C528.69 244.615 528.872 244.874 529.008 245.148C529.167 245.423 529.304 245.728 529.417 246.033C529.53 246.368 529.621 246.703 529.713 247.069C529.781 247.267 529.803 247.481 529.826 247.695C529.848 247.862 529.87 248.015 529.894 248.197C529.939 248.578 529.961 248.975 529.961 249.386V261.491H525.42V249.385C525.42 249.065 525.396 248.745 525.374 248.441L525.261 247.679C525.261 247.648 525.261 247.633 525.238 247.602C524.83 250.026 521.378 252.19 518.381 253.334C517.04 253.867 514.975 254.492 512.839 254.492C511.25 254.492 509.819 254.111 508.775 253.487L508.367 253.639C508.095 253.746 507.845 253.853 507.573 253.96L391.601 298.91L379.043 303.772C379.043 303.772 379.02 303.772 379.02 303.787C378.997 303.802 378.974 303.802 378.93 303.817C377.317 304.412 375.228 304.717 373.139 304.717V301.199C375.488 301.198 377.354 300.848 379.001 300.265Z" fill="black"/>
<path d="M173.696 223.841V227.424C173.696 228.247 174.469 229.054 176.035 229.679L176.126 229.71L354.703 298.911L367.239 303.774V303.789C367.239 303.789 367.261 303.774 367.261 303.789C368.897 304.398 371.009 304.719 373.143 304.719V301.198C371.009 301.198 368.874 300.892 367.239 300.253L359.268 297.159H359.246L176.127 226.175C174.391 225.497 173.701 224.706 173.696 223.841Z" fill="#BA68C8"/>
<path opacity="0.2" d="M173.696 223.841V227.424C173.696 228.247 174.469 229.054 176.035 229.679L176.126 229.71L354.703 298.911L367.239 303.774V303.789C367.239 303.789 367.261 303.774 367.261 303.789C368.897 304.398 371.009 304.719 373.143 304.719V301.198C371.009 301.198 368.874 300.892 367.239 300.253L359.268 297.159H359.246L176.127 226.175C174.391 225.497 173.701 224.706 173.696 223.841Z" fill="black"/>
<path d="M173.696 247.665V251.246C173.696 252.069 174.469 252.877 176.035 253.502L176.126 253.533L354.703 322.733L367.239 327.596V327.611C367.239 327.611 367.261 327.596 367.261 327.611C368.897 328.221 371.009 328.541 373.143 328.541V325.02C371.009 325.02 368.874 324.715 367.239 324.076L359.268 320.982H359.246L176.127 249.998C174.391 249.32 173.701 248.529 173.696 247.665Z" fill="#BA68C8"/>
<path opacity="0.2" d="M173.696 247.665V251.246C173.696 252.069 174.469 252.877 176.035 253.502L176.126 253.533L354.703 322.733L367.239 327.596V327.611C367.239 327.611 367.261 327.596 367.261 327.611C368.897 328.221 371.009 328.541 373.143 328.541V325.02C371.009 325.02 368.874 324.715 367.239 324.076L359.268 320.982H359.246L176.127 249.998C174.391 249.32 173.701 248.529 173.696 247.665Z" fill="black"/>
<path d="M488.753 267.416V315.443L478.425 307.439L468.098 323.448V275.421L488.753 267.416Z" fill="#BA68C8"/>
<path opacity="0.5" d="M488.753 267.416V315.443L478.425 307.439L468.098 323.448V275.421L488.753 267.416Z" fill="black"/>
<path d="M442.281 329.84V342.872C442.281 347.19 445.713 351.181 451.284 353.341L478.426 363.859L452.607 361.858L457.771 371.864L430.629 361.346C425.058 359.187 421.625 355.195 421.625 350.877V337.845L442.281 329.84Z" fill="#BA68C8"/>
<path opacity="0.5" d="M442.281 329.84V342.872C442.281 347.19 445.713 351.181 451.284 353.341L478.426 363.859L452.607 361.858L457.771 371.864L430.629 361.346C425.058 359.187 421.625 355.195 421.625 350.877V337.845L442.281 329.84Z" fill="black"/>
<path opacity="0.15" d="M448.287 327.516L417.305 339.523C417.305 339.523 420.522 337.276 432.796 332.577C444.726 328.009 448.287 327.516 448.287 327.516Z" fill="black"/>
<path opacity="0.2" d="M405.543 223.802L353.149 203.5C352.218 203.14 351.069 203.14 350.139 203.5L259.246 238.729C258.8 238.902 258.8 239.334 259.246 239.507L312.13 260.005L405.543 223.802Z" fill="black"/>
<path d="M398.118 220.837V221.595C398.118 222.705 397.237 223.733 395.799 224.293L314.607 255.757C313.895 256.038 313.084 256.169 312.296 256.169C311.492 256.169 310.688 256.034 309.961 255.754L265.704 238.659C264.282 238.108 263.39 237.07 263.39 235.96V234.911H263.401V234.922C263.401 235.057 263.494 235.181 263.695 235.264L312.297 254.102L398.118 220.837Z" fill="#37474F"/>
<path d="M398.124 220.834L349.981 202.179C349.126 201.847 348.071 201.847 347.215 202.179L263.698 234.55C263.288 234.709 263.288 235.106 263.698 235.265L312.291 254.1L398.124 220.834Z" fill="#455A64"/>
<path d="M311.848 251.356L285.882 241.303L361.806 211.879L387.907 221.879L311.848 251.356Z" fill="#37474F"/>
<path d="M387.906 221.879L386.914 222.262L361.803 212.645L286.878 241.688L285.886 241.305L361.803 211.878L387.906 221.879Z" fill="#263238"/>
<path d="M299.085 223.393L299.565 223.578L312.291 228.508L334.924 219.738L335.395 219.558L322.189 214.441L299.085 223.393Z" fill="#263238"/>
<path d="M299.564 223.578L312.291 228.509L334.924 219.738L322.189 214.807L299.564 223.578Z" fill="#37474F"/>
<path d="M312.291 254.098V256.171C313.087 256.171 313.892 256.034 314.607 255.756L395.8 224.293C397.239 223.736 398.125 222.705 398.125 221.593V220.834L312.291 254.098Z" fill="#263238"/>
<path d="M313.599 254.558C315.135 254.956 316.882 254.88 318.338 254.312L399.172 222.985C400.595 222.434 401.57 221.49 401.846 220.406L410.696 184.982C410.745 184.78 410.77 184.578 410.77 184.376C410.77 183.389 410.185 182.445 409.144 181.752L325.139 214.312C324.09 214.721 323.368 215.419 323.164 216.221L313.599 254.558Z" fill="#37474F"/>
<path d="M312.291 254.1L312.844 254.312C313.087 254.405 313.339 254.487 313.599 254.558L323.164 216.221C323.368 215.42 324.09 214.721 325.139 214.313L409.144 181.753C408.82 181.534 408.437 181.344 408.023 181.18L323.847 213.8C322.799 214.21 322.076 214.907 321.872 215.71L312.291 254.1Z" fill="#455A64"/>
<path d="M323.944 215.034L322.642 214.53C322.257 214.874 321.983 215.273 321.872 215.708L312.291 254.1L312.844 254.312C313.087 254.405 313.339 254.487 313.599 254.557L323.164 216.22C323.276 215.782 323.554 215.381 323.944 215.034Z" fill="#263238"/>
<path d="M359.127 221.857C359.719 219.485 363.367 216.334 367.274 214.82C371.181 213.306 373.867 214.001 373.276 216.373C372.683 218.745 369.036 221.895 365.128 223.41C361.221 224.923 358.534 224.228 359.127 221.857Z" fill="#BA68C8"/>
<path d="M341.539 111.067C339.761 109.432 338.304 111.02 338.151 110.79C337.999 110.559 341.336 109.322 338.622 107.32C336.716 105.914 335.637 107.279 334.752 107.309C334.752 107.309 337.99 105.942 334.706 103.517C332.681 102.021 330.418 104.102 330.506 103.782C330.546 103.639 335.71 99.5055 339.985 95.9713C344.044 92.6153 342.532 91.115 341.742 90.6202C341.03 90.1739 339.895 90.1907 336.482 92.5394C333.12 94.8547 322.959 101.934 320.741 103.374C318.523 104.813 317.123 105.415 317.231 102.974C317.332 100.683 317.461 98.5229 316.226 96.8604C314.159 94.0794 311.351 94.5398 311.08 96.2915C310.699 98.762 309.41 101.483 308.171 105.39C307.524 107.428 306.745 109.304 306.467 110.734C305.338 115.724 300.207 117.066 293.578 119.811C288.475 121.923 283.485 123.523 272.873 127.264C271.355 125.935 265.672 121.138 257.429 111.951C250.637 104.382 241.1 95.9501 231.814 94.9059L229.419 124.239C229.419 124.239 238.072 132.475 250.782 142.947C261.479 151.76 266.044 152.307 272.592 150.385C277.877 148.834 282.544 146.403 288.167 143.241C297.136 138.198 308.501 131.4 311.991 129.212C315.481 127.024 317.378 126.281 321.6 125.086C326.467 123.708 328.718 122.526 332.377 120.209C334.126 119.102 337.413 117.079 339.729 115.37C341.995 113.701 342.847 112.27 341.539 111.067Z" fill="#C8856A"/>
<path d="M296.45 118.357L301.582 116.396C301.582 116.396 301.132 118.766 305.388 123.096C309.644 127.427 314.253 128.309 314.253 128.309L309.963 130.713C309.963 130.713 304.962 129.642 300.706 125.357C296.45 121.071 296.45 118.357 296.45 118.357Z" fill="#FAFAFA"/>
<path d="M330.826 116.678C330.389 115.749 331.807 114.515 331.807 114.515C331.807 114.515 330.751 115.18 329.421 115.204C328.091 115.229 326.66 114.343 326.587 113.538C326.513 112.733 327.885 111.81 327.885 111.81C327.885 111.81 326.914 112.172 325.538 112.138C324.161 112.103 323.267 111.328 323.27 110.192C323.273 109.056 326.253 106.849 329.198 104.882C329.198 104.882 327.291 105.53 325.17 106.925C323.541 107.996 322.441 108.768 322.052 109.791C321.475 108.713 320.558 107.738 319.298 106.973C321.547 109.759 321.212 115.984 318.098 119.5C321.42 117.705 322.965 114.877 322.759 112.213C323.602 112.807 324.888 113.009 325.805 112.679C325.526 113.227 325.052 114.015 326.581 115.168C328.11 116.321 329.847 115.885 329.847 115.885C329.847 115.885 329.054 116.662 330.464 117.593C331.874 118.523 333.498 118.174 334.934 117.27C333.585 117.98 331.262 117.608 330.826 116.678Z" fill="#AF6152"/>
<path d="M230.563 93.9463C240.659 95.3398 247.5 100.537 255.486 108.778C263.471 117.019 272.874 126.407 272.874 126.407L298.672 117.15C298.672 117.15 298.196 121.086 302.952 125.236C307.707 129.385 311.828 130.024 311.828 130.024C311.828 130.024 296.453 139.303 287.101 144.718C277.749 150.132 271.093 152.792 265.861 152.154C260.63 151.515 256.853 149.282 249.409 143.379C241.965 137.476 227.152 124.673 227.152 124.673L230.563 93.9463Z" fill="#455A64"/>
<path d="M272.874 126.407C265.069 129.067 261.95 133.428 260.736 138.322C257.302 131.513 266.63 125.637 270.684 124.213L272.874 126.407Z" fill="#37474F"/>
<path d="M219.567 350.826L228.794 348.965L226.142 344.889L220.308 348.032L219.567 350.826Z" fill="black"/>
<path d="M211.029 339.907C211.029 339.907 210.372 343.707 210.198 344.904C210.024 346.103 217.649 350.136 219.567 350.826L220.306 348.032C221.912 349.196 222.821 350.63 224.487 352.754C225.876 354.524 227.567 357.838 231.586 360.204C237.551 363.717 247.115 365.747 256.985 366.352C266.856 366.958 272.64 365.6 275.56 364.319C278.48 363.038 279.497 361.449 278.921 359.797C278.347 358.146 211.029 339.907 211.029 339.907Z" fill="#263238"/>
<path d="M238.496 327.893L238.788 325.685C240.613 325.718 240.583 328.93 243.024 331.842C246.305 335.756 251.197 340.69 256.046 343.878C265.613 350.166 274.271 354.214 278.539 357.045C284.249 360.831 273.289 366.093 257.194 364.899C249.205 364.307 235.178 361.166 231.419 357.952C227.659 354.739 225.573 349.874 222.545 347.529C219.517 345.184 212.816 342.683 211.032 339.908C210.052 338.383 210.418 336.303 210.853 332.177C211.141 329.449 210.793 325.029 213.12 325.454L213.179 326.849C214.049 328.066 218.375 330.283 224.779 331.231C227.976 331.704 237.581 332.254 238.496 327.893Z" fill="#37474F"/>
<path opacity="0.15" d="M229.954 331.536C233.051 331.48 236.42 330.945 237.852 329.196C237.869 329.176 237.895 329.162 237.912 329.14C237.912 329.14 236.948 331.179 239.664 333.472C242.379 335.765 259.412 351.855 259.412 351.855C259.412 351.855 243.433 338.51 240.364 335.994C235.827 332.276 234.333 331.805 229.938 331.541C229.943 331.539 229.948 331.538 229.954 331.536Z" fill="black"/>
<path opacity="0.15" d="M233.666 335.77C233.579 336.119 233.072 336.353 232.532 336.293C231.993 336.234 231.626 335.904 231.714 335.556C231.801 335.208 232.31 334.974 232.848 335.033C233.387 335.092 233.752 335.422 233.666 335.77Z" fill="black"/>
<path opacity="0.15" d="M238.163 339.356C238.077 339.704 237.568 339.938 237.029 339.879C236.491 339.82 236.125 339.489 236.212 339.141C236.299 338.793 236.806 338.559 237.346 338.618C237.885 338.677 238.252 339.007 238.163 339.356Z" fill="black"/>
<path opacity="0.15" d="M242.661 342.941C242.573 343.289 242.066 343.523 241.527 343.464C240.989 343.405 240.622 343.074 240.71 342.727C240.797 342.378 241.305 342.145 241.844 342.204C242.383 342.262 242.748 342.593 242.661 342.941Z" fill="black"/>
<path opacity="0.15" d="M247.159 346.526C247.071 346.874 246.564 347.108 246.025 347.049C245.487 346.989 245.121 346.66 245.208 346.311C245.295 345.964 245.803 345.729 246.342 345.788C246.881 345.847 247.247 346.177 247.159 346.526Z" fill="black"/>
<path opacity="0.15" d="M251.657 350.111C251.57 350.459 251.063 350.693 250.523 350.634C249.984 350.575 249.618 350.245 249.706 349.897C249.792 349.548 250.3 349.314 250.838 349.374C251.378 349.433 251.745 349.762 251.657 350.111Z" fill="black"/>
<path d="M232.638 335.918C232.546 335.91 232.458 335.881 232.392 335.831C232.247 335.724 232.261 335.561 232.427 335.469C232.635 335.35 237.616 332.567 243.808 333.034C243.808 333.034 243.812 333.034 243.816 333.034C244.031 333.054 244.183 333.18 244.161 333.319C244.137 333.46 243.941 333.561 243.722 333.544C237.876 333.105 233.002 335.829 232.955 335.856C232.863 335.908 232.749 335.927 232.638 335.918Z" fill="#263238"/>
<path d="M237.14 339.492C237.048 339.484 236.96 339.454 236.894 339.406C236.747 339.298 236.763 339.136 236.927 339.043C237.136 338.924 242.113 336.141 248.309 336.608C248.309 336.608 248.313 336.609 248.317 336.609C248.531 336.629 248.685 336.755 248.661 336.895C248.638 337.036 248.442 337.137 248.222 337.12C242.385 336.68 237.503 339.405 237.455 339.432C237.365 339.481 237.249 339.501 237.14 339.492Z" fill="#263238"/>
<path d="M241.635 343.088C241.543 343.08 241.455 343.051 241.389 343.002C241.244 342.895 241.258 342.732 241.424 342.639C241.633 342.52 246.611 339.737 252.806 340.204C252.806 340.204 252.809 340.205 252.813 340.205C253.028 340.224 253.181 340.351 253.158 340.49C253.134 340.631 252.938 340.732 252.719 340.715C246.882 340.275 241.999 342.999 241.952 343.027C241.86 343.078 241.744 343.098 241.635 343.088Z" fill="#263238"/>
<path d="M246.132 346.674C246.04 346.666 245.95 346.637 245.886 346.588C245.74 346.481 245.755 346.319 245.92 346.226C246.129 346.107 251.108 343.322 257.302 343.79C257.302 343.79 257.306 343.79 257.31 343.79C257.524 343.81 257.678 343.936 257.654 344.075C257.631 344.216 257.435 344.318 257.215 344.301C251.379 343.861 246.496 346.587 246.448 346.614C246.358 346.663 246.242 346.683 246.132 346.674Z" fill="#263238"/>
<path d="M250.631 350.258C250.537 350.25 250.451 350.221 250.385 350.173C250.239 350.066 250.254 349.903 250.419 349.81C250.628 349.691 255.607 346.907 261.801 347.375C261.801 347.375 261.806 347.375 261.809 347.376C262.023 347.395 262.177 347.521 262.153 347.661C262.13 347.802 261.934 347.902 261.714 347.886C255.879 347.446 250.995 350.172 250.947 350.198C250.855 350.248 250.741 350.268 250.631 350.258Z" fill="#263238"/>
<path d="M161.999 369.395C161.355 374.458 160.015 377.802 157.127 380.741C154.239 383.679 148.377 384.372 143.907 384.061C137.62 383.622 131.15 381.245 127.956 375.693C126.035 372.353 126.436 368.36 127.814 363.674L161.999 369.395Z" fill="#263238"/>
<path d="M139.275 332.303C137.083 332.388 136.187 339.185 134.673 345.982C133.052 353.268 129.447 357.311 128.141 362.221C126.33 369.026 126.951 372.108 130.502 376.289C134.051 380.471 149.973 384.825 156.654 378.98C162.1 374.214 162.515 368.861 162.288 362.025C162.053 354.957 161.801 349.986 162.444 344.632C163.061 339.515 163.79 334.558 161.911 333.964C161.737 334.715 161.559 335.667 161.376 336.404C161.237 336.969 160.915 339.74 159.689 339.752C159.6 339.096 159.643 338.487 159.736 337.822C159.816 337.243 159.765 336.611 159.198 336.163C158.627 335.711 157.679 335.556 156.796 335.432C154.654 335.13 152.496 334.857 150.314 334.702C149.227 334.626 148.135 334.579 147.04 334.573C146.153 334.569 142.148 334.468 141.301 334.658C140.78 334.775 140.294 335.007 140.091 335.338C139.94 335.583 139.957 335.855 139.947 336.118C139.93 336.591 139.82 337.063 139.622 337.519C139.534 337.72 139.31 337.964 138.999 337.911C138.746 337.869 138.653 337.662 138.658 337.493C138.681 336.667 138.865 336.068 138.959 335.11C139.003 334.666 139.137 334.063 139.163 333.617C139.191 333.178 139.213 332.74 139.275 332.303Z" fill="#37474F"/>
<path opacity="0.15" d="M136.099 364.009C136.046 364.281 136.343 364.527 136.764 364.56C137.183 364.592 137.565 364.398 137.618 364.127C137.67 363.855 137.373 363.609 136.954 363.576C136.534 363.545 136.151 363.738 136.099 364.009Z" fill="black"/>
<path opacity="0.15" d="M137.007 359.298C136.954 359.569 137.252 359.815 137.672 359.848C138.091 359.881 138.473 359.687 138.526 359.415C138.578 359.143 138.28 358.897 137.861 358.865C137.442 358.832 137.059 359.026 137.007 359.298Z" fill="black"/>
<path opacity="0.15" d="M137.863 354.851C137.811 355.122 138.109 355.368 138.528 355.401C138.947 355.434 139.33 355.24 139.382 354.968C139.435 354.696 139.137 354.45 138.718 354.418C138.298 354.386 137.916 354.579 137.863 354.851Z" fill="black"/>
<path opacity="0.15" d="M138.708 350.466C138.656 350.738 138.953 350.984 139.373 351.017C139.792 351.049 140.175 350.855 140.227 350.584C140.28 350.312 139.983 350.066 139.564 350.033C139.143 350.001 138.761 350.195 138.708 350.466Z" fill="black"/>
<path opacity="0.15" d="M155.994 351.376C155.941 351.647 156.24 351.893 156.659 351.926C157.078 351.959 157.46 351.765 157.513 351.493C157.566 351.221 157.267 350.975 156.848 350.943C156.429 350.91 156.047 351.104 155.994 351.376Z" fill="black"/>
<path opacity="0.15" d="M155.142 355.79C155.09 356.062 155.388 356.309 155.807 356.34C156.227 356.373 156.609 356.179 156.661 355.907C156.714 355.636 156.417 355.39 155.997 355.357C155.577 355.324 155.195 355.518 155.142 355.79Z" fill="black"/>
<path opacity="0.15" d="M154.286 360.238C154.233 360.51 154.532 360.756 154.951 360.788C155.37 360.821 155.752 360.627 155.805 360.355C155.857 360.084 155.559 359.837 155.14 359.805C154.721 359.772 154.338 359.966 154.286 360.238Z" fill="black"/>
<path opacity="0.15" d="M153.378 364.952C153.325 365.224 153.624 365.47 154.043 365.503C154.462 365.535 154.844 365.341 154.897 365.07C154.949 364.798 154.652 364.552 154.232 364.519C153.811 364.487 153.429 364.681 153.378 364.952Z" fill="black"/>
<path opacity="0.15" d="M146.858 367.1L153.956 334.228L151.135 334.156L146.858 367.1Z" fill="black"/>
<path d="M136.815 364.319C136.853 364.322 136.892 364.321 136.933 364.315C142.013 363.652 150.625 364.092 153.965 365.202C154.154 365.269 154.388 365.216 154.488 365.092C154.588 364.969 154.513 364.817 154.323 364.755C150.784 363.579 142.1 363.127 136.785 363.823C136.574 363.851 136.436 363.983 136.478 364.119C136.511 364.229 136.651 364.307 136.815 364.319Z" fill="#263238"/>
<path d="M137.723 359.606C137.79 359.61 137.858 359.604 137.924 359.584C141.825 358.451 151.059 359.222 154.874 360.489C155.066 360.555 155.298 360.503 155.397 360.38C155.497 360.257 155.422 360.105 155.231 360.042C151.252 358.719 141.721 357.929 137.608 359.127C137.411 359.184 137.323 359.332 137.411 359.458C137.469 359.544 137.59 359.597 137.723 359.606Z" fill="#263238"/>
<path d="M138.581 355.159C138.648 355.164 138.716 355.158 138.782 355.138C142.683 354.006 151.915 354.776 155.73 356.043C155.922 356.11 156.153 356.057 156.253 355.934C156.353 355.81 156.278 355.659 156.087 355.596C152.112 354.271 142.582 353.484 138.467 354.681C138.269 354.738 138.181 354.887 138.269 355.013C138.326 355.097 138.448 355.15 138.581 355.159Z" fill="#263238"/>
<path d="M139.424 350.775C139.492 350.779 139.56 350.773 139.626 350.754C143.527 349.62 152.76 350.392 156.576 351.659C156.764 351.725 156.999 351.673 157.099 351.549C157.199 351.426 157.124 351.274 156.934 351.212C152.956 349.889 143.427 349.098 139.311 350.296C139.114 350.353 139.028 350.502 139.114 350.628C139.171 350.712 139.293 350.766 139.424 350.775Z" fill="#263238"/>
<path d="M145.169 163.645C139.894 205.204 138.865 266.477 138.865 266.477C138.394 269.633 134.111 275.95 133.408 291.594C132.55 310.681 135.409 337.676 135.409 337.676C135.409 337.676 149.912 342.943 164.321 339.877C164.321 339.877 179.553 302.799 185.027 278.798C189.289 260.11 196.645 225.186 196.645 225.186L200.682 260.47C200.682 260.47 199.633 272.317 200.135 280.608C200.72 290.252 210.407 329.456 210.407 329.456C210.407 329.456 227.234 335.055 242.729 329.797C242.729 329.797 247.183 272.759 247.66 261.159C248.597 238.408 247.498 193.57 246.36 164.191L145.169 163.645Z" fill="#263238"/>
<path d="M243.771 324.171C243.771 324.171 239.66 326.315 230.318 326.83C220.975 327.345 208.395 324.171 208.395 324.171L209.89 330.519C209.89 330.519 218.734 333.727 230.194 332.981C241.654 332.234 243.397 330.604 243.397 330.604L243.771 324.171Z" fill="#455A64"/>
<path d="M134.511 332.446C134.511 332.446 141.352 334.928 150.693 335.442C160.036 335.957 166.875 334.155 166.875 334.155L165.38 340.503C165.38 340.503 160.434 342.748 148.975 342.002C137.515 341.255 134.885 338.879 134.885 338.879L134.511 332.446Z" fill="#455A64"/>
<path d="M171.98 215.341C171.422 224.262 170.696 233.181 169.837 242.098C169.42 246.556 168.967 251.014 168.485 255.47L167.764 262.156L167.381 265.498C167.267 266.613 166.972 267.72 166.777 268.831C165.02 277.714 162.529 293.817 160.54 302.688C158.564 311.56 156.387 320.422 154.015 329.27C155.235 320.361 156.651 311.466 158.267 302.582C159.872 293.698 162.187 277.595 164.023 268.721C164.229 267.61 164.536 266.504 164.66 265.391L165.071 262.053L165.938 255.378C166.517 250.927 167.122 246.478 167.765 242.03C169.026 233.13 170.42 224.235 171.98 215.341Z" fill="black"/>
<path d="M233.356 216.468C235.12 224.352 236.126 232.288 236.896 240.224C237.608 248.149 238.384 256.127 237.995 264.08C237.804 272.034 237.679 285.366 237.289 293.321C236.938 301.277 236.404 309.233 235.691 317.187C235.312 309.237 235.114 301.288 235.098 293.338C235.043 285.389 235.047 272.063 235.19 264.112L235.348 258.149L235.386 256.66L235.328 255.184L235.21 252.206L234.716 240.293L234.135 228.381C233.976 224.407 233.666 220.44 233.356 216.468Z" fill="black"/>
<path d="M196.645 225.187L203.035 202.435C203.035 202.435 220.49 200.838 229.457 195.668C229.457 195.668 223.655 202.519 207.187 205.165L200.849 225.264L200.681 260.47L196.645 225.187Z" fill="black"/>
<path d="M147.922 97.2775C147.922 97.2775 136.525 102.897 140.714 117.638C144 129.202 145.494 141.711 145.671 146.744C145.943 154.464 143.181 177.358 143.181 177.358C160.028 191.779 237.064 189.73 247.178 177.354C247.178 177.354 245.802 125.341 242.337 113.879C239.315 103.884 232.695 97.3657 227.151 94.396L204.767 90.7437L180.003 91.0735L147.922 97.2775Z" fill="#F5F5F5"/>
<path d="M175.661 84.1005C174.571 80.1703 170.564 76.2648 167.556 71.9289C163.879 66.6272 161.452 63.6143 161.626 59.752C161.728 57.465 163.724 54.3251 166.216 53.6212C163.739 48.204 166.538 43.8275 174.412 41.7998C176.268 41.3217 179.496 40.5826 181.32 40.0243C184.022 39.197 184.571 37.7055 186.719 36.3993C190.418 34.1511 196.819 33.965 199.413 37.1931C201.838 34.9422 205.273 34.9255 209.27 35.5173C213.081 36.0818 214.977 38.1942 214.702 40.542C219.907 38.4367 224.891 40.8454 225.478 42.9279C225.911 44.4634 225.482 45.7758 227.054 47.1271C228.823 48.6485 232.026 48.5532 232.938 47.2743C233.59 49.4547 232.394 51.1534 228.846 51.1075C230.123 52.2691 230.515 53.8188 229.968 55.2723C229.225 57.2427 226.354 58.4528 223.998 58.5375C223.68 59.7485 223.655 60.8527 222.578 61.9138C221.543 62.9343 220.184 63.9539 218.529 64.5272C213.248 66.3582 207.343 67.0426 201.603 67.9687C199.332 68.3356 197.063 68.7025 194.793 69.0686C194.397 69.133 192.33 69.2609 192.095 69.5043C192.092 69.5052 175.661 84.1005 175.661 84.1005Z" fill="#263238"/>
<path d="M167.113 78.0536C172.989 79.6694 175.111 76.4801 175.111 76.4801L174.737 90.0558C174.748 90.7279 174.838 95.9926 174.838 95.9926C174.838 95.9926 202.23 105.549 204.224 108.182C206.575 105.598 210.141 99.5391 205.977 96.4238L206.08 88.6896C206.08 88.6896 210.069 88.5917 213.467 88.1974C219.137 87.5518 223.808 84.4234 225.238 80.248C226.731 75.8847 226.863 68.8014 225.216 63.6443C224.795 62.3275 224.574 60.978 224.716 59.6348C225.096 56.0662 224.045 54.0173 222.535 51.0599C216.106 47.8036 198.339 47.4781 185.082 53.2835C188.198 57.8487 186.601 62.5921 180.847 64.775C181.19 66.2268 181.635 69.9056 178.061 69.9136C175.487 69.9189 175.213 67.7571 172.483 65.9058C169.697 64.0156 163.564 63.6734 161.311 66.5373C158.16 70.5424 161.079 76.3945 167.113 78.0536Z" fill="#C8856A"/>
<path d="M206.078 88.6887C197.009 88.1666 189.48 87.2555 183.955 83.3094C179.927 80.4341 177.943 76.5709 177.943 76.5709C177.943 76.5709 177.963 81.1679 182.47 85.1642C185.342 87.7115 191.815 90.1872 206.019 90.7041L206.078 88.6887Z" fill="#AF6152"/>
<path d="M221.586 59.752L215.715 58.2879C216.261 57.1757 218.017 56.6015 219.639 57.0063C221.26 57.4103 222.133 58.6398 221.586 59.752Z" fill="#263238"/>
<path d="M220.104 63.4635C220.13 64.4434 219.014 65.2487 217.608 65.2628C216.203 65.2769 215.043 64.4955 215.016 63.5156C214.99 62.5365 216.107 61.7304 217.512 61.7154C218.918 61.7013 220.078 62.4836 220.104 63.4635Z" fill="#263238"/>
<path d="M200.035 64.4654C200.062 65.4444 198.945 66.2505 197.54 66.2647C196.135 66.2788 194.975 65.4973 194.949 64.5174C194.923 63.5384 196.041 62.7322 197.444 62.7173C198.849 62.7023 200.009 63.4846 200.035 64.4654Z" fill="#263238"/>
<path d="M218.577 70.4083L209.858 73.2333L206.575 61.6491C209.823 60.7909 214.308 66.0512 218.577 70.4083Z" fill="#AF6152"/>
<path d="M198.097 59.3903L192.393 61.1579C191.703 60.058 192.421 58.7694 193.995 58.2817C195.572 57.793 197.407 58.2896 198.097 59.3903Z" fill="#263238"/>
<path d="M201.049 75.2223L210.458 76.697C209.906 78.5007 207.351 79.6323 204.751 79.2257C202.152 78.8173 200.495 77.0251 201.049 75.2223Z" fill="#AF6152"/>
<path d="M202.162 76.2701C201.761 76.2357 201.372 76.2419 200.991 76.2657C201.202 77.6708 202.662 78.8976 204.75 79.2248C205.274 79.3069 205.792 79.3113 206.297 79.2751C206.481 77.8172 204.671 76.4827 202.162 76.2701Z" fill="#F28F8F"/>
<path d="M208.553 107.044C208.553 107.044 212.734 101.603 212.713 99.4808L207.534 95.9502L206.027 104.801L208.553 107.044Z" fill="#BA68C8"/>
<path opacity="0.2" d="M208.553 107.044C208.553 107.044 212.734 101.603 212.713 99.4808L207.534 95.9502L206.027 104.801L208.553 107.044Z" fill="black"/>
<path d="M201.511 105.171L192.718 101.218L185.454 104.548L198.943 109.093L201.511 105.171Z" fill="#BA68C8"/>
<path opacity="0.2" d="M201.511 105.171L192.718 101.218L185.454 104.548L198.943 109.093L201.511 105.171Z" fill="black"/>
<path d="M197.732 159.678C202.15 142.896 202.676 116.608 202.11 112.01L206.897 111.673C210.275 117.18 220.275 144.022 220.166 157.098C220.446 161.654 211.814 173.911 207.237 174.042C202.661 174.172 197.012 162.412 197.732 159.678Z" fill="#BA68C8"/>
<path opacity="0.1" d="M197.732 159.678C202.15 142.896 202.676 116.608 202.11 112.01L206.897 111.673C210.275 117.18 220.275 144.022 220.166 157.098C220.446 161.654 211.814 173.911 207.237 174.042C202.661 174.172 197.012 162.412 197.732 159.678Z" fill="white"/>
<path opacity="0.5" d="M207.281 112.368C207.131 112.081 207.03 111.89 206.9 111.678C206.898 111.676 206.897 111.674 206.896 111.673L202.11 112.01C202.159 112.399 202.157 112.782 202.131 113.424C203.866 113.597 206.34 112.857 207.281 112.368Z" fill="black"/>
<path d="M201.385 104.727C203.453 104.46 205.909 104.579 205.909 104.579C205.909 104.579 207.589 105.525 208.553 107.045C208.553 107.045 208.501 109.876 206.897 111.673C206.897 111.673 205.047 112.576 202.11 112.01C202.11 112.01 199.406 110.727 198.629 108.934C198.486 107.389 200.322 105.174 201.385 104.727Z" fill="#BA68C8"/>
<path opacity="0.1" d="M201.385 104.727C203.453 104.46 205.909 104.579 205.909 104.579C205.909 104.579 207.589 105.525 208.553 107.045C208.553 107.045 208.501 109.876 206.897 111.673C206.897 111.673 205.047 112.576 202.11 112.01C202.11 112.01 199.406 110.727 198.629 108.934C198.486 107.389 200.322 105.174 201.385 104.727Z" fill="white"/>
<path d="M201.483 104.715C201.328 104.72 201.127 104.959 200.974 104.977C197.635 103.771 197.104 103.363 196.218 103.532C194.54 103.853 190.59 108.544 189.611 110.06C188.613 111.562 188.806 111.555 185.723 110.183C179.756 107.51 174.705 104.003 171.761 101.151C167.64 97.1612 166.217 93.7143 166.217 93.7143C166.217 93.7143 169.724 90.4562 170.753 89.2126C172.742 86.8091 173.278 85.8627 174.857 85.7393L174.803 87.5297C175.155 89.6245 179.536 91.7025 183.902 94.232C188.27 96.774 195.322 99.1659 196.987 100.246C198.204 101.028 199.957 102.863 201.483 104.715Z" fill="#E6E6E6"/>
<path d="M217.335 106.489C216.843 107.34 212.796 100.657 210.808 100.798C209.848 100.85 207.696 102.664 205.909 104.579C205.909 104.579 204.759 104.558 204.554 104.553C205.308 102.02 205.561 99.9386 205.683 98.5847C205.943 95.7024 206.022 90.7049 206.022 90.7049L206.081 88.6896C206.915 88.6622 207.688 88.6305 208.49 88.5917C208.993 88.933 210.128 90.1431 210.634 90.7049C212.58 92.8385 216.404 96.445 217.045 98.9993C218.074 103.094 217.527 106.173 217.335 106.489Z" fill="#E6E6E6"/>
<path d="M167.309 93.507C167.309 93.507 171.24 104.252 181.955 115.291C192.669 126.329 210.859 139.542 210.859 139.542C210.859 139.542 222.431 116.47 212.713 92.6912L230.45 94.9544C230.45 94.9544 243.999 102.056 245.743 120.464C247.486 138.873 247.18 181.83 247.18 181.83C247.18 181.83 236.304 188.881 221.339 191.223L218.058 180.354L213.053 192.728C213.053 192.728 193.668 196.576 169.996 191.223C146.324 185.87 142.146 181.084 142.146 181.084C142.146 181.084 144.332 156.246 143.585 146.64C142.837 137.034 139.598 124.22 138.85 116.577C138.103 108.935 142.339 98.1878 142.339 98.1878L167.309 93.507Z" fill="#455A64"/>
<path d="M143.444 97.1056C152.731 95.9502 164.942 94.7286 167.821 92.3304C175.323 103.392 183.21 116.054 184.605 130.756C187.806 164.466 190.628 199.899 190.628 199.899C190.628 199.899 155.403 198.022 139.108 190.643C139.108 190.643 141.21 182.53 142.432 165.256C143.654 147.982 140.876 135.136 138.097 122.29C135.321 109.445 139.84 99.2691 143.444 97.1056Z" fill="#37474F"/>
<path d="M211.691 91.8313C220.738 107.032 223.116 107.815 226.405 138.18C229.694 168.546 230.347 193.111 230.347 193.111C230.347 193.111 244.701 188.654 248.399 184.585C248.399 184.585 248.932 159.787 248.014 138.472C247.094 117.158 247.312 106.209 230.565 93.9463L211.691 91.8313Z" fill="#37474F"/>
<path d="M143.444 97.1056C130.4 98.6429 123.997 104.138 118.262 115.509C110.427 131.043 103.55 146.347 102.067 154.125L132.839 148.476L149.295 126.24C149.295 126.24 156.697 108.228 143.444 97.1056Z" fill="#455A64"/>
<path d="M206.043 192.879L139.471 186.009L129.346 128.722L195.917 135.592L206.043 192.879Z" fill="#BA68C8"/>
<path opacity="0.2" d="M206.043 192.879L139.471 186.009L129.346 128.722L195.917 135.592L206.043 192.879Z" fill="black"/>
<path d="M203.583 190.366L139.799 183.775L130.357 130.348L194.14 136.939L203.583 190.366Z" fill="#FAFAFA"/>
<path d="M195.388 174.185L189.012 138.112L129.344 128.708L139.473 186.022L202.56 195.965C203.8 196.159 204.733 195.584 204.581 194.717L201.351 176.444C201.215 175.674 200.263 174.949 199.159 174.776L195.388 174.185Z" fill="#BA68C8"/>
<path d="M102.501 154.125C102.46 159.998 103.799 160.977 113.398 164.278C122.998 167.579 147.217 172.661 166.405 173.904C178.908 174.714 185.344 174.32 190.197 173.029C196.877 171.254 204.6 166.038 202.724 158.269C204.805 154.215 201.64 153.666 199.039 153.225L199.508 155.878C199.508 155.878 193.9 158.441 188.732 158.488C183.564 158.535 188.363 154.473 189.29 152.023C190.216 149.573 190.027 148.159 187.036 147C185.355 146.991 184.805 148.546 179.59 152.029C175.629 154.674 172.543 159.501 166.406 158.942C161.589 158.502 133.04 149.613 133.04 149.613L131.746 142.271L102.501 154.125Z" fill="#C8856A"/>
<path d="M158.316 156.934L164.079 158.298C164.079 158.298 160.37 161.336 159.442 165.205C158.514 169.074 160.237 173.609 160.237 173.609L153.677 172.675C153.677 172.675 152.22 168.629 153.214 164.004C154.208 159.38 158.316 156.934 158.316 156.934Z" fill="#FAFAFA"/>
<path d="M160.437 157.29C160.437 157.29 157.003 159.909 156.02 164.385C154.913 169.429 156.287 172.461 157.018 173.359C153.108 172.962 130.813 169.128 124.44 167.629C118.067 166.138 107.699 162.857 105.176 161.278C102.654 159.708 101.694 157.785 102.062 154.125L114.322 147.907L118.605 145.737L131.22 139.334L132.324 145.552L133.007 149.371L160.437 157.29Z" fill="#455A64"/>
<path d="M133.008 149.372C125.518 147.07 118.357 147.282 114.323 147.908C113.587 148.023 112.957 148.155 112.444 148.278C113.536 147.478 117.238 146.479 120.046 146.256C124.596 145.894 127.909 146.168 132.573 146.935L133.008 149.372Z" fill="#37474F"/>
<path d="M428.859 139.638L419.291 143.309L428.993 164.171C429.688 165.519 431.966 165.958 433.592 165.343C434.061 165.166 441.56 162.292 443.189 161.663C443.647 161.485 444.052 161.224 444.353 160.875L452.879 148.946L428.859 139.638Z" fill="#BA68C8"/>
<path d="M488.983 97.6012V157.019C488.983 159.007 486.903 161.424 484.338 162.419L479.519 164.289C476.954 165.283 472.794 165.283 470.229 164.289L392.372 134.117C389.806 133.123 387.727 130.705 387.727 128.716V69.2987C387.727 67.3106 389.807 64.8922 392.372 63.8982L397.192 62.0283C399.757 61.0343 403.917 61.0343 406.482 62.0283L484.339 92.2007C486.904 93.1947 488.983 95.6131 488.983 97.6012Z" fill="#BA68C8"/>
<path opacity="0.4" d="M488.983 97.6012V157.019C488.983 159.007 486.903 161.424 484.338 162.419L479.519 164.289C476.954 165.283 472.794 165.283 470.229 164.289L392.372 134.117C389.806 133.123 387.727 130.705 387.727 128.716V69.2987C387.727 67.3106 389.807 64.8922 392.372 63.8982L397.192 62.0283C399.757 61.0343 403.917 61.0343 406.482 62.0283L484.339 92.2007C486.904 93.1947 488.983 95.6131 488.983 97.6012Z" fill="white"/>
<path d="M479.517 164.289L484.336 162.419C486.901 161.425 488.981 159.007 488.981 157.019V97.6012C488.981 96.6072 488.462 95.5056 487.621 94.5283L466.159 102.848L466.157 162.712L470.227 164.289C472.794 165.283 476.952 165.283 479.517 164.289Z" fill="#BA68C8"/>
<path d="M474.873 103.071C474.873 101.082 472.793 98.664 470.228 97.67L392.372 67.4986C389.807 66.5046 387.727 67.3107 387.727 69.2987V128.716C387.727 130.704 389.807 133.123 392.372 134.117L419.995 144.822L428.993 164.172C429.89 165.908 433.41 166.136 434.783 164.547L442.616 153.589L470.229 164.29C472.794 165.284 474.874 164.478 474.874 162.49L474.873 103.071Z" fill="white"/>
<path d="M390.297 68.6195C390.405 68.6195 390.71 68.6407 391.22 68.8383L469.076 99.0097C470.936 99.7303 472.568 101.628 472.568 103.07L472.57 162.489C472.57 162.945 472.396 163.145 472.375 163.164C472.375 163.164 472.354 163.168 472.304 163.168C472.196 163.168 471.892 163.147 471.382 162.949L443.768 152.248C443.415 152.111 443.016 152.041 442.616 152.041C442.387 152.041 442.157 152.064 441.935 152.11C441.321 152.237 440.816 152.53 440.538 152.918L432.755 163.807C432.543 164.022 432.244 164.069 432.026 164.069C431.876 164.069 431.381 164.04 431.181 163.681L422.196 144.36C422.024 143.989 421.65 143.675 421.149 143.481L393.526 132.776C391.665 132.056 390.033 130.158 390.033 128.715V69.2978C390.033 68.8418 390.207 68.6416 390.228 68.6231C390.228 68.6231 390.248 68.6195 390.297 68.6195ZM390.297 67.0725C388.773 67.0725 387.727 67.8875 387.727 69.2987V128.716C387.727 130.704 389.807 133.123 392.372 134.117L419.995 144.822L428.993 164.172C429.482 165.118 430.75 165.617 432.025 165.617C433.089 165.617 434.157 165.27 434.783 164.547L442.616 153.589L470.229 164.29C470.974 164.579 471.679 164.716 472.304 164.716C473.828 164.716 474.874 163.901 474.874 162.49L474.873 103.071C474.873 101.083 472.794 98.6649 470.228 97.6709L392.372 67.4994C391.626 67.2092 390.922 67.0725 390.297 67.0725Z" fill="#BA68C8"/>
<path d="M404.497 104.127C404.497 109.201 411.17 111.923 413.735 112.917C416.302 113.912 423.404 116.587 423.404 110.771C423.404 110.72 423.366 110.676 423.347 110.628C423.339 110.607 423.363 110.588 423.351 110.567L415.831 93.1814L428.681 98.1612C429.063 98.9497 429.763 99.7188 430.628 100.296V118.258L429.233 117.688V128.957L425.116 127.362C423.686 126.808 422.526 127.395 422.526 128.676V129.861L421.259 129.37C418.466 128.288 416.202 129.437 416.202 131.937V132.274L447.386 144.359V144.022C447.386 141.521 445.122 138.618 442.328 137.535L441.061 137.043V135.858C441.061 134.578 439.902 133.091 438.471 132.537L434.353 130.942V119.783L432.958 119.213V101.2C433.822 101.292 434.523 101.067 434.904 100.573L447.212 105.343L439.332 117.102C439.329 117.106 439.332 117.109 439.329 117.113C439.245 117.204 439.195 117.309 439.195 117.42C439.195 122.494 445.869 125.216 448.434 126.21C451 127.205 458.103 129.88 458.103 124.064C458.103 124.013 458.064 123.969 458.046 123.921C458.038 123.9 458.062 123.88 458.05 123.859L450.333 106.037C450.604 105.939 450.722 105.763 450.748 105.613V105.492C450.748 105.072 450.367 104.584 449.897 104.401L435.017 98.6348C434.677 97.7546 433.921 96.8726 432.957 96.2287V94.216C432.957 93.4628 432.435 92.6505 431.792 92.4009C431.148 92.1513 430.627 92.5596 430.627 93.3129V95.3256C429.662 95.2224 428.908 95.5196 428.566 96.1353L413.687 90.3687C413.218 90.1871 412.837 90.3802 412.837 90.8V91.2596C412.837 91.324 412.896 91.3883 412.913 91.4545L404.633 103.81C404.631 103.813 404.633 103.817 404.631 103.82C404.548 103.912 404.497 104.016 404.497 104.127ZM448.434 106.073L455.557 122.735L441.312 117.215L448.434 106.073ZM406.613 103.924L413.735 92.781L420.859 109.443L406.613 103.924Z" fill="#455A64"/>
</svg>
